<?xml version="1.0" encoding="UTF-8" standalone="no"?>
<!-- Created with Inkscape (http://www.inkscape.org/) -->

<svg
   xmlns:dc="http://purl.org/dc/elements/1.1/"
   xmlns:cc="http://creativecommons.org/ns#"
   xmlns:rdf="http://www.w3.org/1999/02/22-rdf-syntax-ns#"
   xmlns:svg="http://www.w3.org/2000/svg"
   xmlns="http://www.w3.org/2000/svg"
   xmlns:sodipodi="http://sodipodi.sourceforge.net/DTD/sodipodi-0.dtd"
   xmlns:inkscape="http://www.inkscape.org/namespaces/inkscape"
   id="svg3170"
   version="1.1"
   inkscape:version="0.48.5 r10040"
   width="540"
   height="1000"
   sodipodi:docname="0.svg">
  <metadata
     id="metadata3176">
    <rdf:RDF>
      <cc:Work
         rdf:about="">
        <dc:format>image/svg+xml</dc:format>
        <dc:type
           rdf:resource="http://purl.org/dc/dcmitype/StillImage" />
        <dc:title />
      </cc:Work>
    </rdf:RDF>
  </metadata>
  <defs
     id="defs3174" />
  <sodipodi:namedview
     pagecolor="#ffffff"
     bordercolor="#666666"
     borderopacity="1"
     objecttolerance="10"
     gridtolerance="10"
     guidetolerance="10"
     inkscape:pageopacity="0"
     inkscape:pageshadow="2"
     inkscape:window-width="903"
     inkscape:window-height="779"
     id="namedview3172"
     showgrid="false"
     inkscape:zoom="2.1261261"
     inkscape:cx="30"
     inkscape:cy="55.499999"
     inkscape:window-x="0"
     inkscape:window-y="0"
     inkscape:window-maximized="0"
     inkscape:current-layer="svg3170" />
  <path
     style="fill:#000000"
     d="M 270.61561,795.36754 C 158.25558,781.71821 85.931658,634.0569 105.25696,457.76038 124.76818,279.76785 174.06984,215.56339 301.24132,202.5343 c 45.66892,-4.67892 60.85348,-2.6842 82.14217,10.79059 52.28523,33.09422 75.7131,63.80324 99.33102,130.20207 19.80047,55.66656 23.78743,82.16697 23.61642,156.97304 -0.32166,140.70043 -42.12312,234.809 -124.6043,280.52448 -34.9738,19.38435 -51.76676,21.55211 -111.11102,14.34306 z m 64.29446,-70.85527 C 421.66954,679.6472 462.77621,593.18089 456.38233,469 449.88951,342.89725 406.45198,274.59197 318.88899,252.79246 c -40.57848,-10.10235 -48.32175,-9.57908 -70.17921,4.74248 -13.51252,8.85373 -30.53445,28.66786 -37.82653,44.03138 -7.29208,15.36352 -23.23231,44.13368 -35.42273,63.93368 -18.59292,30.1991 -22.18827,47.45292 -22.31247,107.07596 -0.20025,96.15866 25.13083,168.17339 76.73164,218.14297 54.12381,52.41284 63.30916,55.36822 105.03038,33.79334 z"
     id="path3186"
     inkscape:connector-curvature="0" />
</svg>
