<?xml version="1.0" encoding="UTF-8" standalone="no"?>
<!-- Created with Inkscape (http://www.inkscape.org/) -->

<svg
   xmlns:dc="http://purl.org/dc/elements/1.1/"
   xmlns:cc="http://creativecommons.org/ns#"
   xmlns:rdf="http://www.w3.org/1999/02/22-rdf-syntax-ns#"
   xmlns:svg="http://www.w3.org/2000/svg"
   xmlns="http://www.w3.org/2000/svg"
   xmlns:sodipodi="http://sodipodi.sourceforge.net/DTD/sodipodi-0.dtd"
   xmlns:inkscape="http://www.inkscape.org/namespaces/inkscape"
   id="svg3025"
   version="1.1"
   inkscape:version="0.48.5 r10040"
   width="540"
   height="1000"
   sodipodi:docname="2.svg">
  <metadata
     id="metadata3031">
    <rdf:RDF>
      <cc:Work
         rdf:about="">
        <dc:format>image/svg+xml</dc:format>
        <dc:type
           rdf:resource="http://purl.org/dc/dcmitype/StillImage" />
        <dc:title />
      </cc:Work>
    </rdf:RDF>
  </metadata>
  <defs
     id="defs3029" />
  <sodipodi:namedview
     pagecolor="#ffffff"
     bordercolor="#666666"
     borderopacity="1"
     objecttolerance="10"
     gridtolerance="10"
     guidetolerance="10"
     inkscape:pageopacity="0"
     inkscape:pageshadow="2"
     inkscape:window-width="902"
     inkscape:window-height="782"
     id="namedview3027"
     showgrid="false"
     inkscape:zoom="2.1261261"
     inkscape:cx="30"
     inkscape:cy="55.499999"
     inkscape:window-x="0"
     inkscape:window-y="0"
     inkscape:window-maximized="0"
     inkscape:current-layer="svg3025" />
  <path
     style="fill:#000000"
     d="M 86.010336,781.99745 C 67.811397,756.01482 68.190483,698.86251 86.946972,640.78641 100.759,598.01996 113.98039,579.96097 161.29424,539.23616 181.23285,522.07425 262.72575,483.61105 297,475.18547 336.56838,465.45843 405.33211,396.47823 413.8291,357.98858 421.0983,325.06061 420.03819,322.64544 390.72393,305.3496 373.82577,295.37943 360,284.22216 360,280.55565 c 0,-26.45076 -131.99201,-38.27793 -156.26756,-14.00237 -19.43821,19.43822 -27.15236,49.62679 -15.62647,61.15269 11.52,11.52 12.95247,59.53937 2.27798,76.36292 -4.03723,6.36288 -21.85145,13.9237 -39.58715,16.80181 -29.53611,4.79305 -33.53093,2.74955 -47.52413,-24.31031 -30.733408,-59.43185 -0.92643,-142.25629 60.48865,-168.0794 45.87725,-19.28992 121.04487,-24.12204 174.76534,-11.2347 77.4488,18.57968 116.25912,81.78715 112.82286,183.74615 -1.67718,49.7644 -41.21962,88.14027 -122.19232,118.58743 -35.01146,13.16492 -70.05109,29.44511 -77.86586,36.17818 C 243.47657,562.49112 232.93974,568 227.87616,568 c -11.8741,0 -61.90778,47.76836 -74.31377,70.94915 C 137.12652,669.65987 142.5162,676 185.05893,676 c 36.49983,0 99.5828,14.73033 152.8479,35.69108 29.79501,11.72486 65.31982,-12.58601 72.23196,-49.43084 5.70409,-30.40543 43.5486,-71.60592 57.72529,-62.84425 11.30167,6.98482 16.66177,85.66812 7.9783,117.11705 -9.2571,33.52647 -56.79978,74.10844 -96.00585,81.94965 -18.12732,3.62547 -43.4417,-2.85293 -83.66408,-21.41111 C 202.91624,734.04419 193.6619,733.60698 150.90136,770.2084 130.47363,787.69378 110.66867,802 106.89035,802 c -3.77832,0 -13.174331,-9.00115 -20.880014,-20.00255 z"
     id="path3035"
     inkscape:connector-curvature="0" />
</svg>
