<?xml version="1.0" encoding="UTF-8" standalone="no"?>
<!-- Created with Inkscape (http://www.inkscape.org/) -->

<svg
   xmlns:dc="http://purl.org/dc/elements/1.1/"
   xmlns:cc="http://creativecommons.org/ns#"
   xmlns:rdf="http://www.w3.org/1999/02/22-rdf-syntax-ns#"
   xmlns:svg="http://www.w3.org/2000/svg"
   xmlns="http://www.w3.org/2000/svg"
   xmlns:sodipodi="http://sodipodi.sourceforge.net/DTD/sodipodi-0.dtd"
   xmlns:inkscape="http://www.inkscape.org/namespaces/inkscape"
   id="svg3096"
   version="1.1"
   inkscape:version="0.48.5 r10040"
   width="540"
   height="1000"
   sodipodi:docname="3.svg">
  <metadata
     id="metadata3102">
    <rdf:RDF>
      <cc:Work
         rdf:about="">
        <dc:format>image/svg+xml</dc:format>
        <dc:type
           rdf:resource="http://purl.org/dc/dcmitype/StillImage" />
        <dc:title />
      </cc:Work>
    </rdf:RDF>
  </metadata>
  <defs
     id="defs3100" />
  <sodipodi:namedview
     pagecolor="#ffffff"
     bordercolor="#666666"
     borderopacity="1"
     objecttolerance="10"
     gridtolerance="10"
     guidetolerance="10"
     inkscape:pageopacity="0"
     inkscape:pageshadow="2"
     inkscape:window-width="905"
     inkscape:window-height="782"
     id="namedview3098"
     showgrid="false"
     inkscape:zoom="2.1261261"
     inkscape:cx="30"
     inkscape:cy="55.499999"
     inkscape:window-x="0"
     inkscape:window-y="0"
     inkscape:window-maximized="0"
     inkscape:current-layer="svg3096" />
  <path
     style="fill:#000000"
     d="M 220.15201,792.12509 C 195.21063,788.99246 162.4609,780.04651 147.37486,772.24521 111.38373,753.63347 74.85539,704.87283 67.489315,665.60828 c -5.325811,-28.38901 -2.852221,-33.72055 25.775461,-55.55595 28.410134,-21.66946 34.266794,-23.01004 56.950934,-13.03601 44.12211,19.40015 51.43246,48.49892 19.62805,78.12924 -26.47138,24.66184 -16.6074,41.51086 31.37509,53.593 66.60498,16.77132 94.56028,12.83182 144.3496,-20.34199 67.06602,-44.68499 83.50814,-66.37112 88.88892,-117.23889 3.90792,-36.94398 0.96603,-49.97041 -17.63238,-78.0745 -24.11566,-36.44122 -34.4519,-42.80876 -86.021,-52.99237 -23.16031,-4.57359 -38.63744,-2.90352 -49.5,5.34131 -18.40606,13.97043 -44.03086,16.14509 -51.31748,4.35508 -2.79169,-4.51704 13.16929,-29.58748 35.46885,-55.71208 C 287.75491,387.95052 306,363.30795 306,359.31386 c 0,-3.9941 14.50836,-23.32102 32.2408,-42.94871 17.73243,-19.62769 30.28101,-38.87685 27.88571,-42.77592 -2.39529,-3.89907 -54.36615,-5.06422 -115.4908,-2.58922 l -111.13571,4.5 -7.205,58.5 c -13.17872,107.00268 -41.93015,93.94364 -42.157184,-19.148 -0.09054,-45.10612 3.830607,-71.9415 11.434084,-78.25183 20.3447,-16.88459 315.57127,-29.8445 339.73009,-14.91353 22.59092,13.96195 6.71274,53.07907 -45.30199,111.60497 -56.98296,64.11603 -61.84429,72.70839 -41.13643,72.70839 7.07496,0 36.9937,16.02767 66.48607,35.61704 C 484.47452,483.54574 495,506.13294 495,599.66736 c 0,62.56534 -1.37523,66.70855 -36.98864,111.43712 -20.34376,25.55067 -49.53912,52.94588 -64.87858,60.87822 -35.39079,18.30128 -114.39494,27.50076 -172.98077,20.14239 z"
     id="path3106"
     inkscape:connector-curvature="0" />
</svg>
