<?xml version="1.0" encoding="UTF-8" standalone="no"?>
<!-- Created with Inkscape (http://www.inkscape.org/) -->

<svg
   xmlns:dc="http://purl.org/dc/elements/1.1/"
   xmlns:cc="http://creativecommons.org/ns#"
   xmlns:rdf="http://www.w3.org/1999/02/22-rdf-syntax-ns#"
   xmlns:svg="http://www.w3.org/2000/svg"
   xmlns="http://www.w3.org/2000/svg"
   xmlns:sodipodi="http://sodipodi.sourceforge.net/DTD/sodipodi-0.dtd"
   xmlns:inkscape="http://www.inkscape.org/namespaces/inkscape"
   id="svg3167"
   version="1.1"
   inkscape:version="0.48.5 r10040"
   width="540"
   height="1000"
   sodipodi:docname="5.svg">
  <metadata
     id="metadata3173">
    <rdf:RDF>
      <cc:Work
         rdf:about="">
        <dc:format>image/svg+xml</dc:format>
        <dc:type
           rdf:resource="http://purl.org/dc/dcmitype/StillImage" />
        <dc:title />
      </cc:Work>
    </rdf:RDF>
  </metadata>
  <defs
     id="defs3171" />
  <sodipodi:namedview
     pagecolor="#ffffff"
     bordercolor="#666666"
     borderopacity="1"
     objecttolerance="10"
     gridtolerance="10"
     guidetolerance="10"
     inkscape:pageopacity="0"
     inkscape:pageshadow="2"
     inkscape:window-width="902"
     inkscape:window-height="789"
     id="namedview3169"
     showgrid="false"
     inkscape:zoom="2.1261261"
     inkscape:cx="30"
     inkscape:cy="55.499999"
     inkscape:window-x="0"
     inkscape:window-y="0"
     inkscape:window-maximized="0"
     inkscape:current-layer="svg3167" />
  <path
     style="fill:#000000"
     d="M 229.5,786.95874 C 157.36106,770.20019 99,712.67584 99,658.32969 c 0,-44.1291 18.37951,-63.56552 55.64877,-58.84883 38.58022,4.88262 56.10268,25.02563 55.01924,63.24759 -1.26358,44.57721 26.38575,62.18466 84.84163,54.02828 56.8254,-7.92888 77.31722,-20.0823 106.5479,-63.19209 17.84723,-26.32132 25.57519,-50.99877 28.8856,-92.23941 4.01728,-50.04677 1.91665,-60.06004 -18.90179,-90.10105 C 387.26968,436.92164 343.20769,408.07404 310.5,405.39924 c -51.21614,-4.18839 -67.61832,2.14014 -106.61328,41.1351 -35.10043,35.10042 -43.44151,39.42902 -62.22055,32.28925 -21.4848,-8.16852 -21.68856,-9.42577 -21.9391,-135.37975 -0.23321,-117.2425 1.12099,-127.86995 17.40435,-136.58453 17.88818,-9.57347 251.60707,-17.19657 297.11858,-9.69098 27.25703,4.49513 31.83823,20.45773 11.66182,40.63414 -10.52777,10.52778 -36.25853,12.36578 -131.52971,9.39543 -81.05537,-2.52711 -122.37778,-0.42597 -130.91182,6.65669 -13.2117,10.96474 -18.44157,125.26128 -5.72029,125.01444 3.7125,-0.072 24.975,-6.49405 47.25,-14.27114 79.07222,-27.60724 191.13779,1.41198 241.96655,62.65689 34.69372,41.80338 41.82725,181.32804 12.80003,250.3556 C 466.762,708.53563 407.5116,766 388.62975,766 c -4.63416,0 -12.77008,5.2346 -18.07982,11.63245 -9.60612,11.57467 -104.39307,17.84202 -141.04993,9.32629 z"
     id="path3177"
     inkscape:connector-curvature="0" />
</svg>
