<?xml version="1.0" encoding="UTF-8" standalone="no"?>
<!-- Created with Inkscape (http://www.inkscape.org/) -->

<svg
   xmlns:dc="http://purl.org/dc/elements/1.1/"
   xmlns:cc="http://creativecommons.org/ns#"
   xmlns:rdf="http://www.w3.org/1999/02/22-rdf-syntax-ns#"
   xmlns:svg="http://www.w3.org/2000/svg"
   xmlns="http://www.w3.org/2000/svg"
   xmlns:sodipodi="http://sodipodi.sourceforge.net/DTD/sodipodi-0.dtd"
   xmlns:inkscape="http://www.inkscape.org/namespaces/inkscape"
   id="svg3238"
   version="1.1"
   inkscape:version="0.48.5 r10040"
   width="540"
   height="1000"
   sodipodi:docname="6.svg">
  <metadata
     id="metadata3244">
    <rdf:RDF>
      <cc:Work
         rdf:about="">
        <dc:format>image/svg+xml</dc:format>
        <dc:type
           rdf:resource="http://purl.org/dc/dcmitype/StillImage" />
        <dc:title />
      </cc:Work>
    </rdf:RDF>
  </metadata>
  <defs
     id="defs3242" />
  <sodipodi:namedview
     pagecolor="#ffffff"
     bordercolor="#666666"
     borderopacity="1"
     objecttolerance="10"
     gridtolerance="10"
     guidetolerance="10"
     inkscape:pageopacity="0"
     inkscape:pageshadow="2"
     inkscape:window-width="902"
     inkscape:window-height="780"
     id="namedview3240"
     showgrid="false"
     inkscape:zoom="2.1261261"
     inkscape:cx="30"
     inkscape:cy="55.499999"
     inkscape:window-x="0"
     inkscape:window-y="0"
     inkscape:window-maximized="0"
     inkscape:current-layer="svg3238" />
  <path
     style="fill:#000000"
     d="M 233.09503,777.42704 C 128.10865,737.04247 97.540058,624.05147 132.60913,406.00001 146.3882,320.32489 189.87837,255.0973 245.92381,236.04795 c 41.70844,-14.17633 54.19392,-5.67442 25.65049,17.46656 -39.66019,32.15365 -90.95775,126.52984 -91.44332,168.2355 -0.18693,16.05514 24.29604,13.95205 80.99608,-6.95758 42.52401,-15.68185 55.2801,-16.81132 91.95675,-8.1422 47.67997,11.26993 108.28688,51.18043 125.00473,82.31736 18.30657,34.0959 33.34264,122.66366 26.08825,153.66892 -21.92138,93.6919 -77.69823,142.05805 -169.88156,147.31053 -42.41361,2.41666 -71.83106,-1.22272 -101.2002,-12.52 z M 384.05536,691.75 C 418.8836,667.97882 432,636.05693 432,575.06532 c 0,-46.71096 -11.80899,-79.06531 -28.85798,-79.06531 -5.62358,0 -17.41183,-6.50428 -26.19611,-14.45395 -8.78429,-7.94967 -36.17398,-15.89565 -60.86599,-17.65772 -42.46432,-3.03035 -47.36257,-0.98481 -90.48723,37.78797 C 188.44138,535.07853 180,548.12107 180,572.12031 c 0,16.19873 8.1,39.74972 18,52.33553 9.9,12.58581 18,29.39152 18,37.34601 0,7.9545 13.1625,22.48805 29.25,32.29679 40.35936,24.60759 100.80918,23.58475 138.80536,-2.34864 z M 362.25,328.74003 C 336.38221,317.4275 333,311.85877 333,280.58069 c 0,-26.82512 -4.12436,-36.67673 -17.07554,-40.78727 -11.62975,-3.69114 -15.60046,-11.06037 -12.45032,-23.1065 5.45137,-20.84609 31.28878,-22.82673 83.96944,-6.43691 29.89435,9.30062 37.83828,16.84492 45.84504,43.53872 7.82232,26.07889 6.85437,37.76244 -5.03296,60.75 -16.2504,31.42481 -23.20167,32.92039 -66.00566,14.2013 z"
     id="path3248"
     inkscape:connector-curvature="0" />
</svg>
