<?xml version="1.0" encoding="UTF-8" standalone="no"?>
<!-- Created with Inkscape (http://www.inkscape.org/) -->

<svg
   xmlns:dc="http://purl.org/dc/elements/1.1/"
   xmlns:cc="http://creativecommons.org/ns#"
   xmlns:rdf="http://www.w3.org/1999/02/22-rdf-syntax-ns#"
   xmlns:svg="http://www.w3.org/2000/svg"
   xmlns="http://www.w3.org/2000/svg"
   xmlns:sodipodi="http://sodipodi.sourceforge.net/DTD/sodipodi-0.dtd"
   xmlns:inkscape="http://www.inkscape.org/namespaces/inkscape"
   id="svg3309"
   version="1.1"
   inkscape:version="0.48.5 r10040"
   width="540"
   height="1000"
   sodipodi:docname="7.svg">
  <metadata
     id="metadata3315">
    <rdf:RDF>
      <cc:Work
         rdf:about="">
        <dc:format>image/svg+xml</dc:format>
        <dc:type
           rdf:resource="http://purl.org/dc/dcmitype/StillImage" />
        <dc:title />
      </cc:Work>
    </rdf:RDF>
  </metadata>
  <defs
     id="defs3313" />
  <sodipodi:namedview
     pagecolor="#ffffff"
     bordercolor="#666666"
     borderopacity="1"
     objecttolerance="10"
     gridtolerance="10"
     guidetolerance="10"
     inkscape:pageopacity="0"
     inkscape:pageshadow="2"
     inkscape:window-width="904"
     inkscape:window-height="780"
     id="namedview3311"
     showgrid="false"
     inkscape:zoom="2.1261261"
     inkscape:cx="30"
     inkscape:cy="55.499999"
     inkscape:window-x="0"
     inkscape:window-y="0"
     inkscape:window-maximized="0"
     inkscape:current-layer="svg3309" />
  <path
     style="fill:#000000"
     d="m 215.92848,743.28331 c -8.60644,-26.07779 -7.66451,-40.87882 5.29804,-83.25 20.89958,-68.31531 51.65041,-129.75659 97.8627,-195.5333 20.86612,-29.7 48.32688,-83.3625 61.0239,-119.25 l 23.0855,-65.25 -21.01341,0 c -11.55738,0 -30.65309,-3.66499 -42.43492,-8.14444 -11.78182,-4.47944 -43.91473,-10.95478 -71.40646,-14.38965 -44.03238,-5.50148 -52.11701,-3.95672 -67.88817,12.97162 -10.44013,11.20617 -21.84039,42.52863 -27.34816,75.13965 -14.17459,83.92646 -25.25543,107.22218 -49.37201,103.79688 -19.83483,-2.81715 -20.22252,-5.19067 -19.58041,-119.87406 l 0.65502,-117 35.34493,-0.33003 c 19.43971,-0.18153 53.16267,-5.56311 74.93992,-11.95906 33.84527,-9.94032 44.99778,-9.56566 76.80089,2.58006 42.10549,16.08018 91.29552,18.6527 99.60416,5.20903 10.94079,-17.70256 49.54849,-9.74054 59.58549,12.28826 14.37076,31.54041 -4.31041,134.73596 -35.21516,194.52994 -91.24806,176.54514 -126.28846,251.50889 -130.49834,279.1818 -12.77829,83.9959 -49.40796,109.99159 -69.44351,49.2833 z"
     id="path3319"
     inkscape:connector-curvature="0" />
</svg>
