<?xml version="1.0" encoding="UTF-8" standalone="no"?>
<!-- Created with Inkscape (http://www.inkscape.org/) -->

<svg
   xmlns:dc="http://purl.org/dc/elements/1.1/"
   xmlns:cc="http://creativecommons.org/ns#"
   xmlns:rdf="http://www.w3.org/1999/02/22-rdf-syntax-ns#"
   xmlns:svg="http://www.w3.org/2000/svg"
   xmlns="http://www.w3.org/2000/svg"
   xmlns:sodipodi="http://sodipodi.sourceforge.net/DTD/sodipodi-0.dtd"
   xmlns:inkscape="http://www.inkscape.org/namespaces/inkscape"
   id="svg3025"
   version="1.1"
   inkscape:version="0.48.5 r10040"
   width="540"
   height="1000"
   sodipodi:docname="8.svg">
  <metadata
     id="metadata3031">
    <rdf:RDF>
      <cc:Work
         rdf:about="">
        <dc:format>image/svg+xml</dc:format>
        <dc:type
           rdf:resource="http://purl.org/dc/dcmitype/StillImage" />
        <dc:title />
      </cc:Work>
    </rdf:RDF>
  </metadata>
  <defs
     id="defs3029" />
  <sodipodi:namedview
     pagecolor="#ffffff"
     bordercolor="#666666"
     borderopacity="1"
     objecttolerance="10"
     gridtolerance="10"
     guidetolerance="10"
     inkscape:pageopacity="0"
     inkscape:pageshadow="2"
     inkscape:window-width="911"
     inkscape:window-height="784"
     id="namedview3027"
     showgrid="false"
     inkscape:zoom="2.1261261"
     inkscape:cx="30"
     inkscape:cy="55.499999"
     inkscape:window-x="0"
     inkscape:window-y="0"
     inkscape:window-maximized="0"
     inkscape:current-layer="svg3025" />
  <path
     style="fill:#000000"
     d="M 195.36489,778.98655 C 131.23682,761.47427 97.806716,738.7097 65.249999,690.38353 43.884286,658.66892 36.023699,636.92968 36.08792,609.73287 36.180986,570.32072 73.673351,478 89.585956,478 103.37872,478 100.53423,440.2853 85.213769,420.02983 67.029565,395.98817 68.444989,318.5549 87.763985,280.51577 97.22222,261.89249 119.6572,240.52541 144,226.95656 c 35.78312,-19.94577 51.08453,-22.57061 131.38083,-22.53735 l 90.88083,0.0378 46.36917,34.0381 L 459,272.5332 l 1.60452,59.98349 c 1.80108,67.3308 1.35542,74.85067 -6.91827,116.73736 -4.57973,23.18553 -1.69716,34.20328 13.05768,49.90909 23.42064,24.93014 51.49888,159.37166 38.33364,183.54548 -19.78949,36.33719 -71.28894,73.65627 -126.31398,91.53346 -64.36147,20.91051 -119.02268,22.32463 -183.3987,4.74463 z M 406.43374,677.75385 C 435.45944,646.63677 441,634.47047 441,601.85106 441,522.78602 388.84074,490.91974 265.98541,494.9273 c -66.35634,2.16456 -84.89187,6.05069 -105.40719,22.09956 -29.26261,22.89174 -47.33578,77.62177 -39.473,119.53401 6.07553,32.3854 44.77497,66.43913 75.50296,66.43913 10.08123,0 21.13478,4.53903 24.56346,10.08674 4.13013,6.68269 30.61026,8.67561 78.4649,5.90536 70.97084,-4.10845 72.83396,-4.82786 106.7972,-41.23825 z M 318.43049,445.25111 c 32.05327,-4.3934 49.43605,-13.41219 73.72283,-38.25 27.89342,-28.52628 31.07495,-36.33324 26.01453,-63.83542 -8.84676,-48.08006 -20.47153,-63.46642 -61.18757,-80.98691 C 315.62613,244.38371 224.31212,242.95067 193.5,259.61319 c -69.80975,37.75159 -80.38621,114.1682 -21.5955,156.03088 45.3933,32.32288 78.26002,38.96392 146.52599,29.60704 z"
     id="path3035"
     inkscape:connector-curvature="0" />
</svg>
