<?xml version="1.0" encoding="UTF-8" standalone="no"?>
<!-- Created with Inkscape (http://www.inkscape.org/) -->

<svg
   xmlns:dc="http://purl.org/dc/elements/1.1/"
   xmlns:cc="http://creativecommons.org/ns#"
   xmlns:rdf="http://www.w3.org/1999/02/22-rdf-syntax-ns#"
   xmlns:svg="http://www.w3.org/2000/svg"
   xmlns="http://www.w3.org/2000/svg"
   xmlns:sodipodi="http://sodipodi.sourceforge.net/DTD/sodipodi-0.dtd"
   xmlns:inkscape="http://www.inkscape.org/namespaces/inkscape"
   id="svg3025"
   version="1.1"
   inkscape:version="0.48.5 r10040"
   width="540"
   height="1000"
   sodipodi:docname="9.svg">
  <metadata
     id="metadata3031">
    <rdf:RDF>
      <cc:Work
         rdf:about="">
        <dc:format>image/svg+xml</dc:format>
        <dc:type
           rdf:resource="http://purl.org/dc/dcmitype/StillImage" />
        <dc:title />
      </cc:Work>
    </rdf:RDF>
  </metadata>
  <defs
     id="defs3029" />
  <sodipodi:namedview
     pagecolor="#ffffff"
     bordercolor="#666666"
     borderopacity="1"
     objecttolerance="10"
     gridtolerance="10"
     guidetolerance="10"
     inkscape:pageopacity="0"
     inkscape:pageshadow="2"
     inkscape:window-width="922"
     inkscape:window-height="789"
     id="namedview3027"
     showgrid="false"
     inkscape:zoom="2.1261261"
     inkscape:cx="30"
     inkscape:cy="55.499999"
     inkscape:window-x="0"
     inkscape:window-y="0"
     inkscape:window-maximized="0"
     inkscape:current-layer="svg3025" />
  <path
     style="fill:#000000"
     d="m 243,786.15116 c -12.375,-2.02486 -33.6375,-14.21994 -47.25,-27.10019 -20.1309,-19.04799 -24.67891,-31.0828 -24.36907,-64.48479 0.33759,-36.39652 3.7336,-43.19826 29.86506,-59.81626 l 29.48412,-18.75007 27.75413,23.25007 c 15.26476,12.78754 29.16299,33.33371 30.88494,45.65814 5.02095,35.93623 30.75071,32.08646 73.17688,-10.94898 41.29463,-41.88764 65.68567,-88.34396 57.5351,-109.58403 -4.20489,-10.95775 -10.93423,-11.20275 -43.77493,-1.59374 -44.27302,12.95405 -145.05154,12.30142 -162.27752,-1.05089 -6.34079,-4.91491 -18.11324,-11.26978 -26.16098,-14.12194 -8.04776,-2.85215 -27.17681,-23.77319 -42.509,-46.49119 -66.671764,-98.78881 -35.3625,-242.83216 62.59545,-287.98046 36.32081,-16.74008 111.08345,-24.0249 138.54582,-13.49981 39.84349,15.27022 46.01998,18.18056 71.77994,33.82247 14.72897,8.94369 36.57363,35.29225 48.5437,58.55235 18.30371,35.56758 22.46081,59.21655 26.14835,148.75287 3.82707,92.92411 1.80257,114.80455 -15.92094,172.07035 -13.66832,44.16319 -30.94625,77.38653 -52.85902,101.64135 C 378.73203,764.79519 300.82561,795.6129 243,786.15116 z M 310.5,505 c 3.05927,-4.95 17.47328,-9 32.03115,-9 C 357.08902,496 369,492.22292 369,487.60649 c 0,-4.61643 7.48538,-10.76928 16.63419,-13.673 19.5274,-6.19776 37.11737,-40.12412 46.79164,-90.24858 5.69774,-29.52124 3.10248,-42.3164 -14.76838,-72.8107 -24.01452,-40.97769 -44.96157,-53.5178 -104.24686,-62.40818 -81.69311,-12.25063 -146.15618,48.15646 -146.22915,137.02851 -0.0324,39.62712 4.0551,51.26742 26.0738,74.25 C 207.61707,474.73504 224.25161,487 230.22092,487 c 5.9693,0 13.18448,6.075 16.03371,13.5 5.83024,15.19334 55.48691,18.67149 64.24537,4.5 z"
     id="path3035"
     inkscape:connector-curvature="0" />
</svg>
