<?xml version="1.0" encoding="UTF-8" standalone="no"?>
<!-- Created with Inkscape (http://www.inkscape.org/) -->

<svg
   xmlns:dc="http://purl.org/dc/elements/1.1/"
   xmlns:cc="http://creativecommons.org/ns#"
   xmlns:rdf="http://www.w3.org/1999/02/22-rdf-syntax-ns#"
   xmlns:svg="http://www.w3.org/2000/svg"
   xmlns="http://www.w3.org/2000/svg"
   xmlns:sodipodi="http://sodipodi.sourceforge.net/DTD/sodipodi-0.dtd"
   xmlns:inkscape="http://www.inkscape.org/namespaces/inkscape"
   id="svg3170"
   version="1.1"
   inkscape:version="0.48.5 r10040"
   width="540"
   height="1000"
   sodipodi:docname="b.svg">
  <metadata
     id="metadata3176">
    <rdf:RDF>
      <cc:Work
         rdf:about="">
        <dc:format>image/svg+xml</dc:format>
        <dc:type
           rdf:resource="http://purl.org/dc/dcmitype/StillImage" />
        <dc:title />
      </cc:Work>
    </rdf:RDF>
  </metadata>
  <defs
     id="defs3174" />
  <sodipodi:namedview
     pagecolor="#ffffff"
     bordercolor="#666666"
     borderopacity="1"
     objecttolerance="10"
     gridtolerance="10"
     guidetolerance="10"
     inkscape:pageopacity="0"
     inkscape:pageshadow="2"
     inkscape:window-width="943"
     inkscape:window-height="673"
     id="namedview3172"
     showgrid="false"
     inkscape:zoom="0.020487013"
     inkscape:cx="30"
     inkscape:cy="55.499999"
     inkscape:window-x="0"
     inkscape:window-y="0"
     inkscape:window-maximized="0"
     inkscape:current-layer="svg3170" />
  <path
     style="fill:#000000"
     d="m 249.17461,738.85086 c -13.92897,-4.18104 -31.05687,-12.35862 -38.06199,-18.17235 -9.21076,-7.64424 -20.10979,-8.0001 -39.37125,-1.28556 -20.08,6.99993 -29.01866,6.41232 -36.32198,-2.38761 -6.4895,-7.81938 -9.01073,-88.97877 -7.63766,-245.85849 C 129.92657,226.08999 126.89667,204.74352 91.290388,214.05483 68.925046,219.90348 47.739622,192.93669 59.746153,173.90241 72.342985,153.93231 141.09263,150.02487 168.13267,167.74218 186.55798,179.81487 189,188.5527 189,242.40744 c 0,33.54588 4.151,65.14353 9.22445,70.21701 6.29924,6.29919 26.99085,6.00111 65.25,-0.94014 70.30641,-12.75561 124.03603,4.42818 162.65811,52.02108 34.08559,42.00282 56.17195,159.51519 42.21358,224.60103 C 441.85436,711.8334 355.88672,770.88285 249.17461,738.85086 z m 94.44754,-61.23339 c 16.91677,-6.84351 56.29702,-61.43094 65.70789,-91.08198 3.37268,-10.62639 3.28757,-49.67649 -0.18909,-86.778 -5.64761,-60.26796 -9.54536,-70.77726 -36.57213,-98.60742 -25.77634,-26.54262 -36.31163,-31.15008 -71.22647,-31.15008 -54.09063,0 -79.29259,18.08955 -103.4561,74.25918 -15.07915,35.05239 -18.6808,56.4057 -14.72823,87.3198 7.74032,60.53895 21.81356,103.41486 42.63066,129.87954 15.43567,19.62324 25.52436,23.43618 60.61454,22.90896 23.15323,-0.3483 48.90175,-3.38544 57.21893,-6.75 z"
     id="path3180"
     inkscape:connector-curvature="0" />
</svg>
