<?xml version="1.0" encoding="UTF-8" standalone="no"?>
<!-- Created with Inkscape (http://www.inkscape.org/) -->

<svg
   xmlns:dc="http://purl.org/dc/elements/1.1/"
   xmlns:cc="http://creativecommons.org/ns#"
   xmlns:rdf="http://www.w3.org/1999/02/22-rdf-syntax-ns#"
   xmlns:svg="http://www.w3.org/2000/svg"
   xmlns="http://www.w3.org/2000/svg"
   xmlns:sodipodi="http://sodipodi.sourceforge.net/DTD/sodipodi-0.dtd"
   xmlns:inkscape="http://www.inkscape.org/namespaces/inkscape"
   id="svg5013"
   version="1.1"
   inkscape:version="0.48.5 r10040"
   width="540"
   height="1000"
   sodipodi:docname="cents.svg">
  <metadata
     id="metadata5019">
    <rdf:RDF>
      <cc:Work
         rdf:about="">
        <dc:format>image/svg+xml</dc:format>
        <dc:type
           rdf:resource="http://purl.org/dc/dcmitype/StillImage" />
        <dc:title />
      </cc:Work>
    </rdf:RDF>
  </metadata>
  <defs
     id="defs5017" />
  <sodipodi:namedview
     pagecolor="#ffffff"
     bordercolor="#666666"
     borderopacity="1"
     objecttolerance="10"
     gridtolerance="10"
     guidetolerance="10"
     inkscape:pageopacity="0"
     inkscape:pageshadow="2"
     inkscape:window-width="954"
     inkscape:window-height="785"
     id="namedview5015"
     showgrid="false"
     inkscape:zoom="2.1261261"
     inkscape:cx="30"
     inkscape:cy="55.499999"
     inkscape:window-x="0"
     inkscape:window-y="0"
     inkscape:window-maximized="0"
     inkscape:current-layer="svg5013" />
  <path
     style="fill:#000000"
     d="M 78.945575,912.25 C 75.43127,895.84632 95.942232,836.83395 107.88083,829 c 3.77178,-2.475 9.51997,-16.78181 12.77373,-31.7929 4.96368,-22.89974 1.39467,-31.59176 -22.172798,-54 C 83.032954,728.51819 64.50002,705.21637 57.29746,691.42525 36.540417,651.6807 35.679782,554.06843 55.534745,491.5 74.898798,430.47856 99.729162,397.93418 143.63339,376.03186 c 34.60947,-17.26547 118.23955,-20.01464 146.63066,-4.82018 16.28172,8.71371 22.11256,6.68693 39.74895,-13.81658 11.36753,-13.21554 26.98728,-45.765 34.71055,-72.33212 11.16288,-38.39895 18.66237,-49.46342 36.57327,-53.95876 53.1752,-13.34613 52.02663,12.88996 -5.90109,134.7943 -25.08235,52.78384 -43.33601,101.88161 -40.56369,109.10615 7.27105,18.94807 -18.3836,63.68786 -40.55494,70.72477 -10.40617,3.30279 -25.04439,20.66206 -32.52938,38.57616 -7.48498,17.91409 -19.49357,36.87394 -26.68575,42.13299 -16.60508,12.14193 -33.75947,85.46391 -22.60484,96.61854 13.56019,13.56019 76.72584,-21.95355 91.70084,-51.55713 24.5986,-48.62812 26.50272,-50.3149 45.38822,-40.20769 30.23444,16.18098 22.35162,57.79637 -19.5607,103.26586 -38.76406,42.05404 -76.60959,58.3027 -136.00282,58.39164 -32.4029,0.0486 -34.74909,2.29451 -70.56349,67.55019 -36.25272,66.05433 -57.717914,83.28348 -64.473605,51.75 z M 170.55995,699.03022 c 5.92018,-7.13338 28.29229,-47.89535 49.7158,-90.58216 35.15327,-70.04366 38.08289,-80.75941 30.04139,-109.88333 -6.45674,-23.3844 -5.83913,-38.00977 2.24283,-53.11105 8.91622,-16.6601 8.85497,-23.60937 -0.30537,-34.64688 -17.63723,-21.25155 -56.91517,-16.45026 -95.65428,11.69268 -49.28586,35.8049 -57.451802,47.877 -70.576159,104.33614 -9.943936,42.7774 -9.527736,57.26409 2.948896,102.64243 7.989811,29.05946 20.085323,59.51486 26.878933,67.67866 15.22846,18.2999 40.36095,19.16057 54.70794,1.87351 z"
     id="path5023"
     inkscape:connector-curvature="0" />
</svg>
