<?xml version="1.0" encoding="UTF-8" standalone="no"?>
<!-- Created with Inkscape (http://www.inkscape.org/) -->

<svg
   xmlns:dc="http://purl.org/dc/elements/1.1/"
   xmlns:cc="http://creativecommons.org/ns#"
   xmlns:rdf="http://www.w3.org/1999/02/22-rdf-syntax-ns#"
   xmlns:svg="http://www.w3.org/2000/svg"
   xmlns="http://www.w3.org/2000/svg"
   xmlns:sodipodi="http://sodipodi.sourceforge.net/DTD/sodipodi-0.dtd"
   xmlns:inkscape="http://www.inkscape.org/namespaces/inkscape"
   id="svg3312"
   version="1.1"
   inkscape:version="0.48.5 r10040"
   width="540"
   height="1000"
   sodipodi:docname="d.svg">
  <metadata
     id="metadata3318">
    <rdf:RDF>
      <cc:Work
         rdf:about="">
        <dc:format>image/svg+xml</dc:format>
        <dc:type
           rdf:resource="http://purl.org/dc/dcmitype/StillImage" />
        <dc:title />
      </cc:Work>
    </rdf:RDF>
  </metadata>
  <defs
     id="defs3316" />
  <sodipodi:namedview
     pagecolor="#ffffff"
     bordercolor="#666666"
     borderopacity="1"
     objecttolerance="10"
     gridtolerance="10"
     guidetolerance="10"
     inkscape:pageopacity="0"
     inkscape:pageshadow="2"
     inkscape:window-width="948"
     inkscape:window-height="749"
     id="namedview3314"
     showgrid="false"
     inkscape:zoom="2.1261261"
     inkscape:cx="30"
     inkscape:cy="55.499999"
     inkscape:window-x="0"
     inkscape:window-y="0"
     inkscape:window-maximized="0"
     inkscape:current-layer="svg3312" />
  <path
     style="fill:#000000"
     d="M 155.47543,739.1224 C 112.13166,729.03277 85.97567,708.57217 60.203918,664.59601 22.81871,600.80293 13.57364,549.63793 26.431562,477.68932 38.379269,410.83399 80.648579,343.95256 125.66644,320.67289 c 22.40114,-11.58408 33.74023,-11.52108 129.68802,0.72 51.58136,6.58107 59.30415,-0.7938 59.50772,-56.82636 0.17298,-47.61513 -20.09652,-60.94107 -81.61273,-53.65539 -46.34993,5.48946 -67.15146,-6.66459 -56.94183,-33.27048 5.86572,-15.28587 31.86829,-18.65016 116.19237,-15.03351 57.48511,2.46555 70.57012,15.45498 70.22677,69.71418 -0.1503,23.74821 2.758,47.22858 6.46285,52.17858 3.70485,4.95 3.39621,33.06807 -0.68589,62.48466 -4.08207,29.4165 -5.38278,56.78406 -2.89047,60.81669 2.49231,4.03263 6.18444,60.5817 8.20473,125.66457 3.4269,110.39652 5.27764,120.64761 27.59611,152.85321 20.12452,29.03967 22.06348,36.76104 12.21207,48.63123 -8.87415,10.69272 -20.60226,12.64572 -48.41849,8.06256 -20.18924,-3.3264 -41.76655,-10.13301 -47.94958,-15.12576 -7.57269,-6.11487 -19.32256,-6.02118 -36,0.2871 -36.36582,13.75533 -92.66982,18.65583 -125.78266,10.94787 z m 69.52456,-71.9505 c 0,-4.85577 9.1125,-11.29374 20.25,-14.30676 11.1375,-3.01302 30.375,-18.1467 42.75,-33.6303 20.23757,-25.32132 22.3643,-35.61723 21.15041,-102.39372 -1.17907,-64.86138 -4.59045,-79.35507 -27,-114.71256 -24.36806,-38.44764 -27.76252,-40.4874 -67.89853,-40.79952 -59.32386,-0.4617 -83.90711,23.36418 -105.56019,102.30705 -11.022886,40.18725 -14.375161,68.79915 -9.490249,81 4.154059,10.37538 9.829059,29.57859 12.611129,42.67386 8.08229,38.04354 58.24549,88.69041 87.84342,88.69041 13.93921,0 25.34401,-3.97278 25.34401,-8.82846 z"
     id="path3322"
     inkscape:connector-curvature="0" />
</svg>
