<?xml version="1.0" encoding="UTF-8" standalone="no"?>
<!-- Created with Inkscape (http://www.inkscape.org/) -->

<svg
   xmlns:dc="http://purl.org/dc/elements/1.1/"
   xmlns:cc="http://creativecommons.org/ns#"
   xmlns:rdf="http://www.w3.org/1999/02/22-rdf-syntax-ns#"
   xmlns:svg="http://www.w3.org/2000/svg"
   xmlns="http://www.w3.org/2000/svg"
   xmlns:sodipodi="http://sodipodi.sourceforge.net/DTD/sodipodi-0.dtd"
   xmlns:inkscape="http://www.inkscape.org/namespaces/inkscape"
   id="svg3383"
   version="1.1"
   inkscape:version="0.48.5 r10040"
   width="540"
   height="1000"
   sodipodi:docname="e.svg">
  <metadata
     id="metadata3389">
    <rdf:RDF>
      <cc:Work
         rdf:about="">
        <dc:format>image/svg+xml</dc:format>
        <dc:type
           rdf:resource="http://purl.org/dc/dcmitype/StillImage" />
        <dc:title />
      </cc:Work>
    </rdf:RDF>
  </metadata>
  <defs
     id="defs3387" />
  <sodipodi:namedview
     pagecolor="#ffffff"
     bordercolor="#666666"
     borderopacity="1"
     objecttolerance="10"
     gridtolerance="10"
     guidetolerance="10"
     inkscape:pageopacity="0"
     inkscape:pageshadow="2"
     inkscape:window-width="913"
     inkscape:window-height="695"
     id="namedview3385"
     showgrid="false"
     inkscape:zoom="2.1261261"
     inkscape:cx="30"
     inkscape:cy="55.499999"
     inkscape:window-x="0"
     inkscape:window-y="0"
     inkscape:window-maximized="0"
     inkscape:current-layer="svg3383" />
  <path
     style="fill:#000000"
     d="M 167.43889,774.65418 C 129.80707,763.39293 92.143202,724.07022 61.851542,664.41624 c -21.37644,-42.09696 -26.682246,-64.53099 -27.671328,-117 -1.484748,-78.76287 10.647927,-105.41016 73.877776,-162.2592 86.80715,-78.0471 188.31159,-68.07717 281.42245,27.6417 27.32228,28.08756 35.03666,43.85025 39.37087,80.44587 4.48891,37.90179 2.40393,48.50019 -12.46673,63.3708 -16.19069,16.19073 -28.6838,17.67573 -133.87087,15.91308 -98.9765,-1.6587 -183.513714,6.27354 -183.513714,17.21934 0,19.44765 33.282064,72.12771 56.995904,90.2151 23.99437,18.30141 40.44006,23.03712 80.00161,23.03712 33.28576,0 53.51363,-4.47651 61.00249,-13.5 6.1622,-7.425 14.99559,-13.5 19.62974,-13.5 4.63417,0 24.74804,-13.11696 44.69751,-29.14884 35.14357,-28.24209 36.6668,-28.60848 48.97226,-11.77983 32.95151,45.0639 -12.26132,118.25514 -86.29951,139.70313 -37.49279,10.8612 -120.0761,10.79766 -156.56111,-0.1206 z M 334.24886,489.35112 c 18.66636,-18.66636 3.90136,-50.99706 -32.74886,-71.70975 -64.65779,-36.54108 -135.60983,-22.66191 -176.30358,34.48719 -19.70796,27.67725 -19.78863,28.71747 -3.16969,40.86954 20.15781,14.73975 196.87219,11.70297 212.22213,-3.64698 z"
     id="path3393"
     inkscape:connector-curvature="0" />
</svg>
