<?xml version="1.0" encoding="UTF-8" standalone="no"?>
<!-- Created with Inkscape (http://www.inkscape.org/) -->

<svg
   xmlns:dc="http://purl.org/dc/elements/1.1/"
   xmlns:cc="http://creativecommons.org/ns#"
   xmlns:rdf="http://www.w3.org/1999/02/22-rdf-syntax-ns#"
   xmlns:svg="http://www.w3.org/2000/svg"
   xmlns="http://www.w3.org/2000/svg"
   xmlns:sodipodi="http://sodipodi.sourceforge.net/DTD/sodipodi-0.dtd"
   xmlns:inkscape="http://www.inkscape.org/namespaces/inkscape"
   id="svg3443"
   version="1.1"
   inkscape:version="0.48.5 r10040"
   width="540"
   height="1000"
   sodipodi:docname="f.svg">
  <metadata
     id="metadata3449">
    <rdf:RDF>
      <cc:Work
         rdf:about="">
        <dc:format>image/svg+xml</dc:format>
        <dc:type
           rdf:resource="http://purl.org/dc/dcmitype/StillImage" />
        <dc:title />
      </cc:Work>
    </rdf:RDF>
  </metadata>
  <defs
     id="defs3447" />
  <sodipodi:namedview
     pagecolor="#ffffff"
     bordercolor="#666666"
     borderopacity="1"
     objecttolerance="10"
     gridtolerance="10"
     guidetolerance="10"
     inkscape:pageopacity="0"
     inkscape:pageshadow="2"
     inkscape:window-width="1052"
     inkscape:window-height="801"
     id="namedview3445"
     showgrid="false"
     inkscape:zoom="2.1261261"
     inkscape:cx="30"
     inkscape:cy="55.499999"
     inkscape:window-x="0"
     inkscape:window-y="0"
     inkscape:window-maximized="0"
     inkscape:current-layer="svg3443" />
  <path
     style="fill:#000000"
     d="m 86.238245,745.15273 c -10.406799,-7.60968 -14.969997,-18.26442 -11.592162,-27.06687 6.270543,-16.34076 67.381447,-44.76861 83.194267,-38.70063 22.9473,8.80569 30.36247,-11.95515 35.04173,-98.10927 2.68177,-49.37679 6.53953,-103.95099 8.57276,-121.27599 2.03324,-17.325 -0.29142,-42.30612 -5.16592,-55.51371 -7.41065,-20.07927 -16.03234,-24.99975 -52.62304,-30.03219 -51.766842,-7.11981 -68.379672,-21.96117 -54.212907,-48.43197 7.656003,-14.30541 20.470577,-18.69723 60.764497,-20.82528 46.80691,-2.47212 51.59653,-4.70556 57.47117,-26.80011 12.53928,-47.16036 52.48811,-87.45489 100.98206,-101.85606 25.07799,-7.44741 56.51661,-13.54068 69.8637,-13.54068 34.03872,0 81.14013,21.3453 106.25796,48.15378 25.28001,26.98155 36.72558,97.23843 19.26792,118.27359 -13.1625,15.8598 -51.30126,17.59788 -87.14205,3.97125 -22.27644,-8.46945 -27.42516,-6.87798 -43.67403,13.5 -14.57631,18.28044 -26.39259,23.10138 -56.62233,23.10138 -46.57844,0 -55.26726,16.04691 -45.55265,84.12885 3.63919,25.50411 6.91238,83.59461 7.27375,129.08997 0.36135,45.49545 4.6982,85.2165 9.63743,88.26912 4.93923,3.05253 29.78555,7.29909 55.21415,9.43677 62.68275,5.26932 83.50686,24.09534 62.80002,56.77416 -11.63475,18.36162 -295.78057,24.98544 -319.756325,7.45389 z M 395.99998,292.24213 c 0,-13.06674 7.0875,-29.26674 15.75,-36 14.91516,-11.59317 14.8239,-12.95775 -1.72017,-25.74216 -36.71559,-28.37178 -116.81005,-5.93082 -127.24672,35.65215 -8.27601,32.97429 3.04176,43.50969 41.23714,38.38662 18.52758,-2.48508 39.26502,-0.98496 46.08315,3.3336 20.26818,12.83787 25.8966,9.44082 25.8966,-15.63021 z"
     id="path3453"
     inkscape:connector-curvature="0" />
</svg>
