<?xml version="1.0" encoding="UTF-8" standalone="no"?>
<!-- Created with Inkscape (http://www.inkscape.org/) -->

<svg
   xmlns:dc="http://purl.org/dc/elements/1.1/"
   xmlns:cc="http://creativecommons.org/ns#"
   xmlns:rdf="http://www.w3.org/1999/02/22-rdf-syntax-ns#"
   xmlns:svg="http://www.w3.org/2000/svg"
   xmlns="http://www.w3.org/2000/svg"
   xmlns:sodipodi="http://sodipodi.sourceforge.net/DTD/sodipodi-0.dtd"
   xmlns:inkscape="http://www.inkscape.org/namespaces/inkscape"
   id="svg3025"
   version="1.1"
   inkscape:version="0.48.5 r10040"
   width="540"
   height="1000"
   sodipodi:docname="frac12.svg">
  <metadata
     id="metadata3031">
    <rdf:RDF>
      <cc:Work
         rdf:about="">
        <dc:format>image/svg+xml</dc:format>
        <dc:type
           rdf:resource="http://purl.org/dc/dcmitype/StillImage" />
        <dc:title />
      </cc:Work>
    </rdf:RDF>
  </metadata>
  <defs
     id="defs3029" />
  <sodipodi:namedview
     pagecolor="#ffffff"
     bordercolor="#666666"
     borderopacity="1"
     objecttolerance="10"
     gridtolerance="10"
     guidetolerance="10"
     inkscape:pageopacity="0"
     inkscape:pageshadow="2"
     inkscape:window-width="924"
     inkscape:window-height="755"
     id="namedview3027"
     showgrid="false"
     inkscape:zoom="2.1261261"
     inkscape:cx="30"
     inkscape:cy="55.499999"
     inkscape:window-x="0"
     inkscape:window-y="0"
     inkscape:window-maximized="0"
     inkscape:current-layer="svg3025" />
  <path
     style="fill:#000000"
     d="M 264.65625,53.03125 219.9375,75.8125 c -24.50291,12.60205 -55.64429,25.4563 -69.46875,28.40625 -26.61841,5.67999 -41.23076,27.39424 -27.5625,41.0625 4.71499,4.71501 27.71184,5.08827 54.5625,0.84375 25.59688,-4.04632 50.14316,-4.90001 54.5625,-1.96875 10.08104,6.68655 13.66337,217.34348 3.9375,232.3125 -6.09746,9.38455 -41.08835,15.59325 -112.21875,19.6875 -22.07381,1.27057 -19.61776,22.83256 4.5,39.65625 24.91664,17.38095 19.52474,16.90295 46.96875,6.46875 14.66369,-5.57512 51.77207,-6.05454 100.40625,-1.125 84.31467,8.54611 118.45242,3.42474 133.03125,-19.6875 14.97901,-23.74666 -4.49098,-34.875 -61.03125,-34.875 -63.32545,0 -63.32513,0.30867 -57.375,-170.15625 3.79823,-108.81529 2.301,-128.80363 -10.6875,-144.84375 l -14.90625,-18.5625 z m -19.96875,421.3125 c -80.06066,0.37012 -161.663621,3.12753 -174.9375,7.875 -14.420378,5.15753 -24.75,15.41209 -24.75,24.75 0,17.40031 17.636531,20.77524 91.125,16.875 22.96914,-1.21903 44.49373,1.94262 47.8125,7.3125 3.64989,5.90564 12.17861,7.06244 21.375,2.53125 8.3621,-4.12013 63.7875,-6.59151 123.1875,-5.34375 98.679,2.07285 168.96036,-4.71036 181.96875,-17.71875 2.79495,-2.79495 0.17826,-11.23111 -5.90625,-18.5625 -7.55992,-9.10918 -22.65909,-12.06487 -47.8125,-9.5625 -20.24445,2.01399 -40.87682,1.10098 -45.84375,-1.96875 -7.52599,-4.65133 -86.15809,-6.55762 -166.21875,-6.1875 z m 3.375,89.71875 c -10.27187,0.38201 -17.1745,1.7991 -18.84375,4.5 -2.83397,4.58546 -15.32427,8.4375 -27.5625,8.4375 -12.23822,0 -24.432,6.075 -27.28125,13.5 -2.84924,7.425 -10.95046,13.5 -17.71875,13.5 -31.65978,0 -54.37046,111.67422 -27.28125,134.15625 9.46363,7.85412 18.73797,7.74124 38.25,-0.84375 C 202.51762,721.96028 206.84025,714.31475 207,664.75 l 0,-42.75 53.4375,0 c 66.50252,0 96.91206,11.22644 110.25,40.5 7.91096,17.36267 7.75165,27.49611 -0.5625,43.03125 C 359.03411,726.25476 305.93362,748 266.625,748 c -27.87403,0 -80.17612,22.00051 -95.0625,39.9375 -6.39955,7.71098 -17.65725,14.0625 -24.75,14.0625 -7.09276,0 -23.11891,22.54081 -35.71875,50.0625 -21.93255,47.90699 -22.159472,50.78349 -7.03125,67.5 20.96347,23.16429 34.80393,22.07349 52.03125,-4.21875 16.52442,-25.21944 45.70917,-22.76026 60.75,5.34375 5.17287,9.66564 14.51601,15.80832 20.53125,13.5 6.01524,-2.30823 18.71361,1.73295 28.40625,9 26.47958,19.85319 97.90273,10.9107 127.125,-16.03125 32.82204,-30.26092 52.30367,-77.90524 38.53125,-94.5 -8.798,-10.60094 -16.98614,-5.86264 -48.375,27.84375 -44.40717,47.68587 -78.54148,53.21916 -119.25,19.40625 -13.99229,-11.62214 -36.45,-23.95908 -50.0625,-27.28125 -43.98425,-10.73449 -25.69831,-35.18396 33.75,-45.28125 153.16956,-26.01584 218.07274,-97.43832 165.65625,-182.25 -10.38892,-16.80962 -31.65142,-35.97844 -47.25,-42.46875 C 338.41788,571.18757 278.8781,562.91649 248.0625,564.0625 z"
     id="path3035"
     inkscape:connector-curvature="0" />
</svg>
