<?xml version="1.0" encoding="UTF-8" standalone="no"?>
<!-- Created with Inkscape (http://www.inkscape.org/) -->

<svg
   xmlns:dc="http://purl.org/dc/elements/1.1/"
   xmlns:cc="http://creativecommons.org/ns#"
   xmlns:rdf="http://www.w3.org/1999/02/22-rdf-syntax-ns#"
   xmlns:svg="http://www.w3.org/2000/svg"
   xmlns="http://www.w3.org/2000/svg"
   xmlns:sodipodi="http://sodipodi.sourceforge.net/DTD/sodipodi-0.dtd"
   xmlns:inkscape="http://www.inkscape.org/namespaces/inkscape"
   id="svg3546"
   version="1.1"
   inkscape:version="0.48.5 r10040"
   width="540"
   height="1000"
   sodipodi:docname="g.svg">
  <metadata
     id="metadata3552">
    <rdf:RDF>
      <cc:Work
         rdf:about="">
        <dc:format>image/svg+xml</dc:format>
        <dc:type
           rdf:resource="http://purl.org/dc/dcmitype/StillImage" />
        <dc:title />
      </cc:Work>
    </rdf:RDF>
  </metadata>
  <defs
     id="defs3550" />
  <sodipodi:namedview
     pagecolor="#ffffff"
     bordercolor="#666666"
     borderopacity="1"
     objecttolerance="10"
     gridtolerance="10"
     guidetolerance="10"
     inkscape:pageopacity="0"
     inkscape:pageshadow="2"
     inkscape:window-width="1010"
     inkscape:window-height="863"
     id="namedview3548"
     showgrid="false"
     inkscape:zoom="2.1261261"
     inkscape:cx="30"
     inkscape:cy="55.499999"
     inkscape:window-x="0"
     inkscape:window-y="0"
     inkscape:window-maximized="0"
     inkscape:current-layer="svg3546" />
  <path
     style="fill:#000000"
     d="M 199.75695,900.39905 C 146.57369,889.9269 83.447606,857.00723 57.564596,826.24702 31.917098,795.76669 29.150309,748.82066 51.033134,715.42324 c 12.535317,-19.13132 13.28301,-27.78334 4.5,-52.07234 -5.793219,-16.02088 -10.533132,-36.09017 -10.533132,-44.59842 0,-20.21896 30.778947,-80.21538 48.842208,-95.20656 C 102.50058,516.36011 108,497.48319 108,474.94889 c 0,-62.19618 24.71367,-112.41666 65.58027,-133.26525 50.26306,-25.64229 124.58725,-32.1904 151.49053,-13.3466 23.43805,16.41665 57.96402,19.35992 66.4292,5.66296 17.4984,-28.31301 105.03209,6.47066 115.32396,45.82681 C 513.74342,406.28687 476.77117,442 442.45878,442 c -27.05116,0 -37.04874,15.79452 -37.33588,58.9845 -0.12807,19.26576 -40.04948,61.24232 -84.47611,88.82497 -21.27078,13.20615 -36.42548,14.93901 -85.5,9.77647 C 201.95864,596.09462 168.51348,587.07858 159.75,579.26072 145.4255,566.48191 142.37086,566.68458 126,581.5 c -19.55892,17.70058 -23.73234,44.89491 -8.34895,54.40237 5.30808,3.28057 65.04558,7.24952 132.75,8.81988 186.20299,4.31887 230.72283,20.46243 254.41659,92.25523 13.42644,40.6825 -2.43069,96.94837 -34.63444,122.89341 -55.52746,44.73586 -165.41823,61.20496 -270.42625,40.52816 z M 376.08693,834.75413 C 402.24952,828.15656 423.3047,815.67428 435.13206,799.75 L 453.51452,775 435.19785,750.25 C 395.16241,696.15299 308.04802,673.99072 207,692.19549 c -95.91375,17.27979 -127.679848,50.70248 -93.95366,98.85335 39.89875,56.96345 142.71898,74.04746 263.04059,43.70529 z M 318.02406,529.41937 c 59.82293,-56.10879 52.8665,-130.38818 -15.23776,-162.70576 -51.09139,-24.24446 -84.81097,-19.32589 -119.47361,17.42721 -43.40856,46.02649 -39.6081,86.0238 13.30307,140.00584 31.05383,31.68234 90.49795,34.26398 121.4083,5.27271 z"
     id="path3556"
     inkscape:connector-curvature="0" />
</svg>
