<?xml version="1.0" encoding="UTF-8" standalone="no"?>
<!-- Created with Inkscape (http://www.inkscape.org/) -->

<svg
   xmlns:dc="http://purl.org/dc/elements/1.1/"
   xmlns:cc="http://creativecommons.org/ns#"
   xmlns:rdf="http://www.w3.org/1999/02/22-rdf-syntax-ns#"
   xmlns:svg="http://www.w3.org/2000/svg"
   xmlns="http://www.w3.org/2000/svg"
   xmlns:sodipodi="http://sodipodi.sourceforge.net/DTD/sodipodi-0.dtd"
   xmlns:inkscape="http://www.inkscape.org/namespaces/inkscape"
   id="svg3617"
   version="1.1"
   inkscape:version="0.48.5 r10040"
   width="540"
   height="1000"
   sodipodi:docname="h.svg">
  <metadata
     id="metadata3623">
    <rdf:RDF>
      <cc:Work
         rdf:about="">
        <dc:format>image/svg+xml</dc:format>
        <dc:type
           rdf:resource="http://purl.org/dc/dcmitype/StillImage" />
        <dc:title />
      </cc:Work>
    </rdf:RDF>
  </metadata>
  <defs
     id="defs3621" />
  <sodipodi:namedview
     pagecolor="#ffffff"
     bordercolor="#666666"
     borderopacity="1"
     objecttolerance="10"
     gridtolerance="10"
     guidetolerance="10"
     inkscape:pageopacity="0"
     inkscape:pageshadow="2"
     inkscape:window-width="952"
     inkscape:window-height="793"
     id="namedview3619"
     showgrid="false"
     inkscape:zoom="2.1261261"
     inkscape:cx="30"
     inkscape:cy="55.499999"
     inkscape:window-x="0"
     inkscape:window-y="0"
     inkscape:window-maximized="0"
     inkscape:current-layer="svg3617" />
  <path
     style="fill:#000000"
     d="M 84.056131,758.84147 C 23.372173,755.93167 12.361107,746.0032 27.029715,707.42184 32.922871,691.92166 42.38182,685 57.670753,685 86.53467,685 89.666837,673.15079 93.588912,549.11905 95.373648,492.67857 99.819918,435.22461 103.46952,421.44359 110.97127,393.11668 92.32866,254.44933 78.70631,237.25 73.805637,231.0625 60.600201,226 49.360897,226 25.149724,226 14.466654,204.41877 27.044231,180.91735 c 10.251075,-19.1543 57.103592,-26.90275 87.445429,-14.46168 24.87096,10.19784 42.23012,60.13519 35.44299,101.95936 -7.70006,47.44989 2.16867,86.01327 20.04102,78.31297 39.32292,-16.94228 107.81991,-33.46431 135.4345,-32.6679 40.62747,1.1717 86.537,26.56952 100.08966,55.37106 6.13465,13.03711 12.84022,81.04734 15.42003,156.39543 l 4.56492,133.32658 34.75861,37.27525 c 37.27984,39.979 42.55887,55.65254 21.47011,63.74506 -17.54799,6.73379 -189.31766,-3.89564 -203.37802,-12.58541 -18.78998,-11.61286 -1.18856,-35.77963 39.01062,-53.56164 l 38.55672,-17.05547 2.01925,-133.94515 c 1.97996,-131.33833 1.59473,-134.34398 -19.79404,-154.43769 l -21.81329,-20.49252 -58.24535,19.3828 c -47.72299,15.8812 -62.40896,25.67444 -81.29247,54.20934 -20.63107,31.17564 -22.66851,41.74457 -19.43573,100.81939 1.98625,36.29607 3.84749,80.73435 4.13608,98.75172 0.47772,29.82293 4.15445,34.46504 41.02473,51.79611 40.02427,18.81363 51.06904,38.3507 29.28994,51.81092 -16.92906,10.46274 -85.57126,16.95628 -147.733809,13.97559 z"
     id="path3627"
     inkscape:connector-curvature="0" />
</svg>
