<?xml version="1.0" encoding="UTF-8" standalone="no"?>
<!-- Created with Inkscape (http://www.inkscape.org/) -->

<svg
   xmlns:dc="http://purl.org/dc/elements/1.1/"
   xmlns:cc="http://creativecommons.org/ns#"
   xmlns:rdf="http://www.w3.org/1999/02/22-rdf-syntax-ns#"
   xmlns:svg="http://www.w3.org/2000/svg"
   xmlns="http://www.w3.org/2000/svg"
   xmlns:sodipodi="http://sodipodi.sourceforge.net/DTD/sodipodi-0.dtd"
   xmlns:inkscape="http://www.inkscape.org/namespaces/inkscape"
   id="svg3727"
   version="1.1"
   inkscape:version="0.48.5 r10040"
   width="540"
   height="1000"
   sodipodi:docname="j.svg">
  <metadata
     id="metadata3733">
    <rdf:RDF>
      <cc:Work
         rdf:about="">
        <dc:format>image/svg+xml</dc:format>
        <dc:type
           rdf:resource="http://purl.org/dc/dcmitype/StillImage" />
        <dc:title />
      </cc:Work>
    </rdf:RDF>
  </metadata>
  <defs
     id="defs3731" />
  <sodipodi:namedview
     pagecolor="#ffffff"
     bordercolor="#666666"
     borderopacity="1"
     objecttolerance="10"
     gridtolerance="10"
     guidetolerance="10"
     inkscape:pageopacity="0"
     inkscape:pageshadow="2"
     inkscape:window-width="969"
     inkscape:window-height="732"
     id="namedview3729"
     showgrid="false"
     inkscape:zoom="2.1261261"
     inkscape:cx="30"
     inkscape:cy="55.499999"
     inkscape:window-x="0"
     inkscape:window-y="0"
     inkscape:window-maximized="0"
     inkscape:current-layer="svg3727" />
  <path
     style="fill:#000000"
     d="m 129.60454,897.1517 c -88.69215,-38.61032 -84.149696,-185.15174 5.7393,-185.15174 16.48838,0 31.69442,8.06597 43.50006,23.07442 19.3403,24.58721 17.65812,38.35958 -9.47136,77.54373 -9.18412,13.26498 -13.55674,26.0598 -9.71692,28.43294 18.08569,11.17758 74.20648,15.65602 90.03509,7.18481 30.247,-16.18771 45.70308,-92.47262 52.21983,-257.7359 3.31824,-84.15 7.24307,-166.43457 8.72182,-182.85461 3.06936,-34.08188 -1.4509,-37.01954 -69.83934,-45.38779 -57.2808,-7.00908 -70.50324,-30.86376 -22.96984,-41.43999 39.34077,-8.75336 126.45723,-5.67554 137.23873,4.84864 10.38531,10.13745 10.54101,26.06316 2.56336,262.19827 -6.93493,205.27137 -15.13856,247.17796 -57.18796,292.13339 -26.22992,28.04261 -31.81393,29.97905 -85.5,29.64983 -31.59052,-0.1935 -69.99027,-5.81697 -85.33277,-12.496 z M 286.1972,239.13735 C 271.01281,205.81124 286.0028,170.52522 319.10362,161.6768 353.6269,152.44813 378,173.31264 378,212.09486 c 0,36.23161 -14.10854,49.9051 -51.49295,49.9051 -23.27845,0 -32.19792,-5.05886 -40.30985,-22.86261 z"
     id="path3737"
     inkscape:connector-curvature="0" />
</svg>
