<?xml version="1.0" encoding="UTF-8" standalone="no"?>
<!-- Created with Inkscape (http://www.inkscape.org/) -->

<svg
   xmlns:dc="http://purl.org/dc/elements/1.1/"
   xmlns:cc="http://creativecommons.org/ns#"
   xmlns:rdf="http://www.w3.org/1999/02/22-rdf-syntax-ns#"
   xmlns:svg="http://www.w3.org/2000/svg"
   xmlns="http://www.w3.org/2000/svg"
   xmlns:sodipodi="http://sodipodi.sourceforge.net/DTD/sodipodi-0.dtd"
   xmlns:inkscape="http://www.inkscape.org/namespaces/inkscape"
   id="svg3787"
   version="1.1"
   inkscape:version="0.48.5 r10040"
   width="540"
   height="1000"
   sodipodi:docname="k.svg">
  <metadata
     id="metadata3793">
    <rdf:RDF>
      <cc:Work
         rdf:about="">
        <dc:format>image/svg+xml</dc:format>
        <dc:type
           rdf:resource="http://purl.org/dc/dcmitype/StillImage" />
        <dc:title />
      </cc:Work>
    </rdf:RDF>
  </metadata>
  <defs
     id="defs3791" />
  <sodipodi:namedview
     pagecolor="#ffffff"
     bordercolor="#666666"
     borderopacity="1"
     objecttolerance="10"
     gridtolerance="10"
     guidetolerance="10"
     inkscape:pageopacity="0"
     inkscape:pageshadow="2"
     inkscape:window-width="977"
     inkscape:window-height="728"
     id="namedview3789"
     showgrid="false"
     inkscape:zoom="2.1261261"
     inkscape:cx="30"
     inkscape:cy="55.499999"
     inkscape:window-x="0"
     inkscape:window-y="0"
     inkscape:window-maximized="0"
     inkscape:current-layer="svg3787" />
  <path
     style="fill:#000000"
     d="m 337.5,760.65017 c -9.9,-2.39304 -27.1125,-6.29547 -38.25,-8.67206 -25.62622,-5.46826 -25.67331,-19.54514 -0.15624,-46.70683 20.02169,-21.31211 20.03217,-21.49176 2.91995,-50.08006 -9.4456,-15.78017 -25.1207,-44.15091 -34.83355,-63.04609 -35.80291,-69.65017 -84.17216,-74.30001 -105.35097,-10.12761 -16.35146,49.54544 -4.93794,89.19028 31.94185,110.94989 35.65838,21.03896 37.82042,28.27762 14.69636,49.2046 -13.12829,11.88095 -31.23792,14.392 -87.94738,12.19463 -39.278121,-1.52193 -76.388453,-5.84106 -82.467396,-9.59805 -18.169977,-11.22967 -12.553763,-32.64338 10.900161,-41.56054 12.074031,-4.59054 26.104842,-16.10463 31.17958,-25.58686 5.074738,-9.48223 11.778542,-112.1377 14.897339,-228.12327 C 101.24722,218.27384 100.74964,215.77109 49.317165,219.57088 19.056557,221.80651 10.691031,203.43594 29.965953,177.07591 39.086114,164.60335 53.584372,160 83.746527,160 c 67.596613,0 69.593873,4.48229 68.422313,153.5545 -0.60642,77.16712 2.68248,133.89681 8.07541,139.28975 C 187.20116,479.80115 288,406.17068 288,359.52257 c 0,-35.79993 33.81605,-49.45911 108,-43.62402 54.58434,4.29345 58.5,6.05657 58.5,26.34099 0,17.58996 -10.67913,27.19422 -55.9477,50.3165 C 318.86712,433.25762 270,469.02732 270,486.65361 c 0,12.90772 39.65805,71.70305 115.78589,171.6592 11.13481,14.62006 34.10533,27.1008 63.96156,34.75272 86.02015,22.0463 68.03158,60.93372 -31.302,67.66817 C 383.82546,763.08081 347.4,763.04323 337.5,760.6502 z"
     id="path3797"
     inkscape:connector-curvature="0" />
</svg>
