<?xml version="1.0" encoding="UTF-8" standalone="no"?>
<!-- Created with Inkscape (http://www.inkscape.org/) -->

<svg
   xmlns:dc="http://purl.org/dc/elements/1.1/"
   xmlns:cc="http://creativecommons.org/ns#"
   xmlns:rdf="http://www.w3.org/1999/02/22-rdf-syntax-ns#"
   xmlns:svg="http://www.w3.org/2000/svg"
   xmlns="http://www.w3.org/2000/svg"
   xmlns:sodipodi="http://sodipodi.sourceforge.net/DTD/sodipodi-0.dtd"
   xmlns:inkscape="http://www.inkscape.org/namespaces/inkscape"
   id="svg3842"
   version="1.1"
   inkscape:version="0.48.5 r10040"
   width="540"
   height="1000"
   sodipodi:docname="l.svg">
  <metadata
     id="metadata3848">
    <rdf:RDF>
      <cc:Work
         rdf:about="">
        <dc:format>image/svg+xml</dc:format>
        <dc:type
           rdf:resource="http://purl.org/dc/dcmitype/StillImage" />
        <dc:title />
      </cc:Work>
    </rdf:RDF>
  </metadata>
  <defs
     id="defs3846" />
  <sodipodi:namedview
     pagecolor="#ffffff"
     bordercolor="#666666"
     borderopacity="1"
     objecttolerance="10"
     gridtolerance="10"
     guidetolerance="10"
     inkscape:pageopacity="0"
     inkscape:pageshadow="2"
     inkscape:window-width="1309"
     inkscape:window-height="809"
     id="namedview3844"
     showgrid="false"
     inkscape:zoom="2.1261261"
     inkscape:cx="30"
     inkscape:cy="55.499999"
     inkscape:window-x="0"
     inkscape:window-y="0"
     inkscape:window-maximized="0"
     inkscape:current-layer="svg3842" />
  <path
     style="fill:#000000"
     d="m 36.522814,757.97688 c -6.113656,-11.42347 -6.567395,-25.57843 -1.266816,-39.52 7.384964,-19.42394 15.225352,-22.30575 74.118952,-27.24318 47.41722,-3.97529 69.04565,-9.8776 77.23493,-21.07711 8.7311,-11.94049 10.19336,-61.6965 6.29202,-214.09611 -2.7954,-109.19727 -8.3939,-201.91499 -12.44112,-206.03939 -4.04722,-4.12439 -34.5837,-9.21185 -67.85884,-11.30545 C 46.648942,234.546 36,230.98373 36,213.07085 c 0,-23.22211 26.512458,-33.09826 100.50576,-37.43937 74.07211,-4.34574 75.3539,-4.05752 104.24424,23.4405 31.98236,30.44104 34.02647,37.18644 19.49634,64.33623 -6.91934,12.92893 -6.97966,25.17968 -0.20754,42.15834 5.25035,13.16339 11.79338,93.8713 14.54008,179.35091 2.74671,85.4796 8.62362,164.96408 13.05981,176.63216 6.94194,18.25867 16.28932,22.09536 67.08404,27.53501 33.62734,3.60118 67.12458,12.88444 77.86054,21.5779 18.58291,15.04754 18.60331,15.47388 1.48095,30.9694 -14.35796,12.99377 -40.56003,16.4577 -151.46278,20.02344 -73.75577,2.3714 -157.15307,6.51848 -185.327316,9.21574 -44.684572,4.27788 -52.442251,2.63134 -60.751283,-12.89423 z"
     id="path3858"
     inkscape:connector-curvature="0" />
</svg>
