<?xml version="1.0" encoding="UTF-8" standalone="no"?>
<!-- Created with Inkscape (http://www.inkscape.org/) -->

<svg
   xmlns:dc="http://purl.org/dc/elements/1.1/"
   xmlns:cc="http://creativecommons.org/ns#"
   xmlns:rdf="http://www.w3.org/1999/02/22-rdf-syntax-ns#"
   xmlns:svg="http://www.w3.org/2000/svg"
   xmlns="http://www.w3.org/2000/svg"
   xmlns:sodipodi="http://sodipodi.sourceforge.net/DTD/sodipodi-0.dtd"
   xmlns:inkscape="http://www.inkscape.org/namespaces/inkscape"
   id="svg3903"
   version="1.1"
   inkscape:version="0.48.5 r10040"
   width="540"
   height="1000"
   sodipodi:docname="m.svg">
  <metadata
     id="metadata3909">
    <rdf:RDF>
      <cc:Work
         rdf:about="">
        <dc:format>image/svg+xml</dc:format>
        <dc:type
           rdf:resource="http://purl.org/dc/dcmitype/StillImage" />
        <dc:title />
      </cc:Work>
    </rdf:RDF>
  </metadata>
  <defs
     id="defs3907" />
  <sodipodi:namedview
     pagecolor="#ffffff"
     bordercolor="#666666"
     borderopacity="1"
     objecttolerance="10"
     gridtolerance="10"
     guidetolerance="10"
     inkscape:pageopacity="0"
     inkscape:pageshadow="2"
     inkscape:window-width="959"
     inkscape:window-height="768"
     id="namedview3905"
     showgrid="false"
     inkscape:zoom="2.1261261"
     inkscape:cx="218.13559"
     inkscape:cy="544.65254"
     inkscape:window-x="0"
     inkscape:window-y="0"
     inkscape:window-maximized="0"
     inkscape:current-layer="svg3903" />
  <path
     style="fill:#000000"
     d="M 301.5,746.90638 C 256.95,743.60616 173.5875,740.47713 116.25,739.95298 58.9125,739.42884 9.5454019,736.5454 6.5453366,733.54534 3.5452717,730.54528 17.045272,707.90659 36.545337,683.23716 56.045402,658.56772 72.335325,633.68483 72.745166,627.94182 76.744898,571.89455 72.047764,467.48711 64.956483,454.81569 c -5.899552,-10.54191 -5.902123,-24.62861 -0.0076,-41.5377 6.867184,-19.69922 5.598335,-30.65468 -5.514764,-47.61541 -21.452783,-32.74109 -17.751523,-46.7491 14.031841,-53.10577 19.986485,-3.9973 33.29722,-1.32099 44.68462,8.98447 11.33058,10.25404 23.77301,12.78631 41.28403,8.40211 55.88334,-13.99143 108.15944,-14.1867 119.56271,-0.44658 15.10978,18.20617 38.65479,16.99026 82.65533,-4.26849 29.43947,-14.2236 43.86726,-16.18 72.26603,-9.79923 19.51557,4.38487 38.07577,10.56538 41.24488,13.7345 8.83558,8.83557 19.89603,106.10968 25.10997,220.83642 4.66123,102.56492 16.43033,157.33549 31.77095,147.85447 4.37552,-2.70424 7.9555,7.47224 7.9555,22.61437 0,15.14213 -3.0375,28.08202 -6.75,28.75531 -22.9118,4.15524 -163.32741,2.75092 -231.75,-2.31778 z m -52.34635,-87.27181 c 15.11924,-33.6652 21.98119,-108.47734 20.36502,-222.02877 -0.89532,-62.90415 -7.26111,-76.19103 -36.63616,-76.46798 -15.28176,-0.14409 -89.78785,71.40339 -97.77333,93.89078 -2.53505,7.13878 -3.35236,59.72644 -1.81624,116.86147 l 2.79294,103.88188 42.20706,12.50386 c 23.21388,6.87713 45.30592,10.7015 49.09342,8.49859 3.7875,-2.20289 13.58278,-18.91582 21.76729,-37.13983 z m 146.23876,30.17963 c 33.99217,-17.57804 40.19688,-42.61257 48.6219,-196.17783 2.94438,-53.66834 0.88641,-63.51015 -17.40785,-83.25 -25.22059,-27.21347 -39.05688,-27.98864 -69.67612,-3.90354 -33.41259,26.28235 -44.26378,72.82261 -40.60587,174.15665 2.87331,79.59861 5.19763,89.60734 24.42259,105.16571 25.44897,20.59534 22.9285,20.41043 54.64535,4.00901 z"
     id="path3913"
     inkscape:connector-curvature="0" />
</svg>
