<?xml version="1.0" encoding="UTF-8" standalone="no"?>
<!-- Created with Inkscape (http://www.inkscape.org/) -->

<svg
   xmlns:dc="http://purl.org/dc/elements/1.1/"
   xmlns:cc="http://creativecommons.org/ns#"
   xmlns:rdf="http://www.w3.org/1999/02/22-rdf-syntax-ns#"
   xmlns:svg="http://www.w3.org/2000/svg"
   xmlns="http://www.w3.org/2000/svg"
   xmlns:sodipodi="http://sodipodi.sourceforge.net/DTD/sodipodi-0.dtd"
   xmlns:inkscape="http://www.inkscape.org/namespaces/inkscape"
   id="svg3958"
   version="1.1"
   inkscape:version="0.48.5 r10040"
   width="540"
   height="1000"
   sodipodi:docname="n.svg">
  <metadata
     id="metadata3964">
    <rdf:RDF>
      <cc:Work
         rdf:about="">
        <dc:format>image/svg+xml</dc:format>
        <dc:type
           rdf:resource="http://purl.org/dc/dcmitype/StillImage" />
        <dc:title />
      </cc:Work>
    </rdf:RDF>
  </metadata>
  <defs
     id="defs3962" />
  <sodipodi:namedview
     pagecolor="#ffffff"
     bordercolor="#666666"
     borderopacity="1"
     objecttolerance="10"
     gridtolerance="10"
     guidetolerance="10"
     inkscape:pageopacity="0"
     inkscape:pageshadow="2"
     inkscape:window-width="1311"
     inkscape:window-height="791"
     id="namedview3960"
     showgrid="false"
     inkscape:zoom="2.1261261"
     inkscape:cx="30"
     inkscape:cy="55.499999"
     inkscape:window-x="0"
     inkscape:window-y="0"
     inkscape:window-maximized="0"
     inkscape:current-layer="svg3958" />
  <path
     style="fill:#000000"
     d="M 42.75,743.04149 C 27.502923,727.13598 37.852452,696.89814 67.236562,671.5 c 27.438875,-23.71679 31.86233,-33.56645 36.376858,-81 2.82673,-29.7 5.01895,-62.1 4.87161,-72 -2.02507,-136.06978 -1.73369,-134.353 -26.249904,-154.66051 -22.77966,-18.86907 -23.16886,-20.68055 -9.668295,-45 11.745779,-21.15843 19.609099,-25.16416 47.655969,-24.27692 20.75385,0.65655 41.39373,8.39458 54.01323,20.25 25.41435,23.87553 27.36791,23.81486 81.79414,-2.54015 42.85299,-20.75085 63.09692,-22.19942 128.12229,-9.16791 10.80885,2.16617 28.65292,16.57846 39.65348,32.02733 17.70974,24.87102 20.37683,41.62278 23.28148,146.2285 4.73668,170.58271 8.68844,193.55654 35.38646,205.72097 35.82411,16.32255 22.48436,36.70196 -32.56029,49.743 -54.00625,12.79501 -143.87602,7.79878 -153.98678,-8.56078 -10.28644,-16.6438 1.20613,-33.48211 33.22152,-48.6744 16.60448,-7.87934 32.30462,-21.02277 34.88916,-29.20761 2.58456,-8.18484 6.93416,-61.45652 9.66579,-118.38152 4.20663,-87.66293 2.50535,-108.70618 -11.11834,-137.52389 -12.53517,-26.51517 -20.05735,-32.99745 -34.08494,-29.37288 -9.9,2.55804 -28.57895,4.70628 -41.50877,4.77387 -13.6148,0.0711 -41.06149,14.32701 -65.21532,33.8729 l -41.70656,33.75 -0.0347,105.86697 -0.0347,105.86697 40.86755,19.85498 c 48.57325,23.59869 52.30052,50.62894 8.6325,62.60278 -40.20834,11.0252 -178.976596,19.45888 -186.75,11.34979 z"
     id="path3968"
     inkscape:connector-curvature="0" />
</svg>
