<?xml version="1.0" encoding="UTF-8" standalone="no"?>
<!-- Created with Inkscape (http://www.inkscape.org/) -->

<svg
   xmlns:dc="http://purl.org/dc/elements/1.1/"
   xmlns:cc="http://creativecommons.org/ns#"
   xmlns:rdf="http://www.w3.org/1999/02/22-rdf-syntax-ns#"
   xmlns:svg="http://www.w3.org/2000/svg"
   xmlns="http://www.w3.org/2000/svg"
   xmlns:sodipodi="http://sodipodi.sourceforge.net/DTD/sodipodi-0.dtd"
   xmlns:inkscape="http://www.inkscape.org/namespaces/inkscape"
   id="svg4068"
   version="1.1"
   inkscape:version="0.48.5 r10040"
   width="540"
   height="1000"
   sodipodi:docname="p.svg">
  <metadata
     id="metadata4074">
    <rdf:RDF>
      <cc:Work
         rdf:about="">
        <dc:format>image/svg+xml</dc:format>
        <dc:type
           rdf:resource="http://purl.org/dc/dcmitype/StillImage" />
        <dc:title />
      </cc:Work>
    </rdf:RDF>
  </metadata>
  <defs
     id="defs4072" />
  <sodipodi:namedview
     pagecolor="#ffffff"
     bordercolor="#666666"
     borderopacity="1"
     objecttolerance="10"
     gridtolerance="10"
     guidetolerance="10"
     inkscape:pageopacity="0"
     inkscape:pageshadow="2"
     inkscape:window-width="1042"
     inkscape:window-height="810"
     id="namedview4070"
     showgrid="false"
     inkscape:zoom="2.1261261"
     inkscape:cx="30"
     inkscape:cy="55.499999"
     inkscape:window-x="0"
     inkscape:window-y="0"
     inkscape:window-maximized="0"
     inkscape:current-layer="svg4068" />
  <path
     style="fill:#000000"
     d="m 64.616736,953.92516 c -34.094479,-12.75669 -22.766473,-45.91107 20.518619,-60.0531 19.599445,-6.4035 37.005805,-13.01319 38.680815,-14.68819 6.81611,-6.81613 11.83035,-109.02056 13.22287,-269.52035 1.36215,-156.99737 0.19017,-170.77494 -15.50291,-182.25 -9.33705,-6.82743 -24.558987,-12.41349 -33.826522,-12.41349 -13.588832,0 -16.304222,-5.66117 -14.029834,-29.25 l 2.820227,-29.25 53.999999,2.9893 c 35.49406,1.96485 57.75796,7.81866 64.96566,17.08131 9.93679,12.76981 14.60942,12.70045 49.8009,-0.73935 21.35938,-8.15717 58.26822,-14.83126 82.01966,-14.83126 59.0759,0 111.41701,42.07834 136.48232,109.72161 25.46941,68.73374 24.33406,178.74852 -2.3639,229.06137 -32.11224,60.51618 -83.94932,98.8261 -141.80047,104.79687 -27.82294,2.87157 -60.71355,0.6633 -75.9871,-5.10185 -33.6651,-12.70715 -39.36406,-7.01461 -40.33816,40.29275 -0.76869,37.33289 -0.19116,38.04902 44.07427,54.65079 54.64172,20.49336 64.38536,33.21459 40.60485,53.01315 -14.20775,11.8287 -37.12551,14.86908 -110.1982,14.61933 -50.7429,-0.1737 -101.657299,-3.83139 -113.143094,-8.12889 z M 376.11267,712.50274 c 24.41302,-24.41302 46.94764,-83.93595 46.84565,-123.73809 -0.0834,-32.5489 -43.85186,-122.93652 -68.89394,-142.27504 -36.38894,-28.10103 -87.32868,-34.51934 -112.45944,-14.16968 -26.07555,21.1147 -54.02467,102.64199 -52.64678,153.57007 1.86635,68.98221 40.80965,135.73931 85.54184,146.63688 47.74335,11.63115 75.40934,6.17919 101.61267,-20.02414 z"
     id="path4078"
     inkscape:connector-curvature="0" />
</svg>
