<?xml version="1.0" encoding="UTF-8" standalone="no"?>
<!-- Created with Inkscape (http://www.inkscape.org/) -->

<svg
   xmlns:dc="http://purl.org/dc/elements/1.1/"
   xmlns:cc="http://creativecommons.org/ns#"
   xmlns:rdf="http://www.w3.org/1999/02/22-rdf-syntax-ns#"
   xmlns:svg="http://www.w3.org/2000/svg"
   xmlns="http://www.w3.org/2000/svg"
   xmlns:sodipodi="http://sodipodi.sourceforge.net/DTD/sodipodi-0.dtd"
   xmlns:inkscape="http://www.inkscape.org/namespaces/inkscape"
   id="svg3025"
   version="1.1"
   inkscape:version="0.48.5 r10040"
   width="540"
   height="1000"
   sodipodi:docname="semicolon.svg">
  <metadata
     id="metadata3031">
    <rdf:RDF>
      <cc:Work
         rdf:about="">
        <dc:format>image/svg+xml</dc:format>
        <dc:type
           rdf:resource="http://purl.org/dc/dcmitype/StillImage" />
        <dc:title />
      </cc:Work>
    </rdf:RDF>
  </metadata>
  <defs
     id="defs3029" />
  <sodipodi:namedview
     pagecolor="#ffffff"
     bordercolor="#666666"
     borderopacity="1"
     objecttolerance="10"
     gridtolerance="10"
     guidetolerance="10"
     inkscape:pageopacity="0"
     inkscape:pageshadow="2"
     inkscape:window-width="938"
     inkscape:window-height="728"
     id="namedview3027"
     showgrid="false"
     inkscape:zoom="2.1261261"
     inkscape:cx="30"
     inkscape:cy="55.499999"
     inkscape:window-x="0"
     inkscape:window-y="0"
     inkscape:window-maximized="0"
     inkscape:current-layer="svg3025" />
  <path
     style="fill:#000000"
     d="m 150.75,963.27909 c -29.83207,-17.37558 -19.36513,-54.68481 26.92678,-95.98015 L 220.5,829.09789 187.03729,801.40646 c -62.69289,-51.88032 -51.73474,-124.10035 21.83603,-143.9109 30.71126,-8.26969 38.52239,-7.30728 53.94057,6.64597 30.38673,27.49962 43.20447,62.6034 42.78017,117.16152 -0.59904,77.02702 -30.92581,129.25449 -99.65636,171.6237 -37.23791,22.95558 -34.4479,22.43214 -55.1877,10.35234 z m 32.46299,-467.20333 c -73.40277,-29.62168 -56.41455,-134.21418 24.00262,-147.77849 26.64217,-4.49385 36.36012,-1.10749 60.74999,21.16922 32.63992,29.81196 36.78488,57.28314 13.69742,90.78095 -30.07696,43.63892 -55.85159,53.01893 -98.45003,35.82832 z"
     id="path3035"
     inkscape:connector-curvature="0" />
</svg>
