<?xml version="1.0" encoding="UTF-8" standalone="no"?>
<!-- Created with Inkscape (http://www.inkscape.org/) -->

<svg
   xmlns:dc="http://purl.org/dc/elements/1.1/"
   xmlns:cc="http://creativecommons.org/ns#"
   xmlns:rdf="http://www.w3.org/1999/02/22-rdf-syntax-ns#"
   xmlns:svg="http://www.w3.org/2000/svg"
   xmlns="http://www.w3.org/2000/svg"
   xmlns:sodipodi="http://sodipodi.sourceforge.net/DTD/sodipodi-0.dtd"
   xmlns:inkscape="http://www.inkscape.org/namespaces/inkscape"
   id="svg4346"
   version="1.1"
   inkscape:version="0.48.5 r10040"
   width="540"
   height="1000"
   sodipodi:docname="u.svg">
  <metadata
     id="metadata4352">
    <rdf:RDF>
      <cc:Work
         rdf:about="">
        <dc:format>image/svg+xml</dc:format>
        <dc:type
           rdf:resource="http://purl.org/dc/dcmitype/StillImage" />
        <dc:title />
      </cc:Work>
    </rdf:RDF>
  </metadata>
  <defs
     id="defs4350" />
  <sodipodi:namedview
     pagecolor="#ffffff"
     bordercolor="#666666"
     borderopacity="1"
     objecttolerance="10"
     gridtolerance="10"
     guidetolerance="10"
     inkscape:pageopacity="0"
     inkscape:pageshadow="2"
     inkscape:window-width="1126"
     inkscape:window-height="805"
     id="namedview4348"
     showgrid="false"
     inkscape:zoom="2.1261261"
     inkscape:cx="30"
     inkscape:cy="55.499999"
     inkscape:window-x="0"
     inkscape:window-y="0"
     inkscape:window-maximized="0"
     inkscape:current-layer="svg4346" />
  <path
     style="fill:#000000"
     d="m 432,793.63137 c -17.325,-3.46425 -40.6332,-11.25208 -51.796,-17.30628 -16.39751,-8.89327 -28.1269,-8.34898 -61.06453,2.83364 -74.91552,25.43448 -144.4423,13.7544 -185.46207,-31.15651 C 105.57314,717.23201 95.460822,676.66143 97.819281,604.13967 99.562563,550.53447 100.58612,453.61723 99.605304,435.02724 99.272385,428.71722 88.771216,419.66551 76.269369,414.91231 26.627684,396.03858 46.041487,350.09709 108,339.82386 c 26.64493,-4.41795 34.09281,-1.66811 48.32232,17.84117 14.36107,19.68965 17.21088,43.19475 19.47802,160.65364 3.19251,165.40178 11.10513,188.70422 67.30073,198.1984 46.57795,7.8693 69.64495,-6.66039 110.45787,-69.57639 29.9348,-46.14664 30.69913,-49.61139 28.02065,-127.02088 C 378.65417,435.37362 370.09467,415 337.5,415 326.3372,415 311.77696,408.46081 305.1439,400.46846 285.5581,376.86903 324.09733,352 380.25487,352 c 67.37829,0 69.10065,4.56693 69.58179,184.5 0.225,84.15 2.78456,161.85775 5.68787,172.68389 2.94682,10.98836 16.80792,23.70298 31.37711,28.78182 33.82957,11.79305 35.52519,42.89573 3.01246,55.25705 -12.69724,4.82748 -23.83474,8.31149 -24.75,7.74225 -0.91526,-0.56925 -15.8391,-3.86938 -33.1641,-7.33364 z"
     id="path4356"
     inkscape:connector-curvature="0" />
</svg>
