<?xml version="1.0" encoding="UTF-8" standalone="no"?>
<!-- Created with Inkscape (http://www.inkscape.org/) -->

<svg
   xmlns:dc="http://purl.org/dc/elements/1.1/"
   xmlns:cc="http://creativecommons.org/ns#"
   xmlns:rdf="http://www.w3.org/1999/02/22-rdf-syntax-ns#"
   xmlns:svg="http://www.w3.org/2000/svg"
   xmlns="http://www.w3.org/2000/svg"
   xmlns:sodipodi="http://sodipodi.sourceforge.net/DTD/sodipodi-0.dtd"
   xmlns:inkscape="http://www.inkscape.org/namespaces/inkscape"
   id="svg4411"
   version="1.1"
   inkscape:version="0.48.5 r10040"
   width="540"
   height="1000"
   sodipodi:docname="v.svg">
  <metadata
     id="metadata4417">
    <rdf:RDF>
      <cc:Work
         rdf:about="">
        <dc:format>image/svg+xml</dc:format>
        <dc:type
           rdf:resource="http://purl.org/dc/dcmitype/StillImage" />
        <dc:title />
      </cc:Work>
    </rdf:RDF>
  </metadata>
  <defs
     id="defs4415" />
  <sodipodi:namedview
     pagecolor="#ffffff"
     bordercolor="#666666"
     borderopacity="1"
     objecttolerance="10"
     gridtolerance="10"
     guidetolerance="10"
     inkscape:pageopacity="0"
     inkscape:pageshadow="2"
     inkscape:window-width="1121"
     inkscape:window-height="797"
     id="namedview4413"
     showgrid="false"
     inkscape:zoom="2.1261261"
     inkscape:cx="30"
     inkscape:cy="55.499999"
     inkscape:window-x="0"
     inkscape:window-y="0"
     inkscape:window-maximized="0"
     inkscape:current-layer="svg4411" />
  <path
     style="fill:#000000"
     d="M 244.3462,739.83199 C 230.67815,731.38467 201.04948,661.58596 185.03869,600.11639 177.55252,571.37505 167.99217,543.27855 163.79347,537.67971 159.59477,532.08087 148.68367,501.175 139.54659,469 120.95741,403.5407 96.483429,370 67.308261,370 56.553514,370 39.127757,362.51835 28.584357,353.3741 L 9.4145409,336.74821 30.748226,316.70626 C 48.839175,299.71069 61.46173,296.83403 113.79095,297.78094 231.46789,299.91034 229.5,299.37088 229.5,329.5 c 0,19.53526 -5.70659,29.48825 -20.64073,36 -23.48785,10.24143 -23.43556,10.77236 12.6828,128.8074 12.58997,41.14407 28.83802,77.08953 36.10679,79.87882 15.3925,5.90665 36.96139,-18.93691 44.43925,-51.18622 2.86947,-12.375 10.72743,-36.675 17.46213,-54 6.73469,-17.325 14.72451,-46.6875 17.75514,-65.25 4.88255,-29.90535 3.38795,-33.75 -13.12032,-33.75 -22.21401,0 -41.75872,-40.93981 -27.65668,-57.93174 5.51628,-6.64671 39.82547,-11.29584 89.98976,-12.19421 71.45964,-1.27974 82.16595,0.58752 90.27816,15.74533 14.79251,27.64006 11.17347,35.31561 -24.5463,52.05979 -31.086,14.57204 -35.9159,22.21443 -61.18956,96.82083 -15.09176,44.55 -32.30426,92.40116 -38.25,106.3359 C 346.8647,584.77063 342,603.36126 342,612.14839 c 0,8.78713 -12.2421,40.47521 -27.20466,70.41794 -25.89259,51.81566 -48.94625,70.55518 -70.44914,57.26566 z"
     id="path4421"
     inkscape:connector-curvature="0" />
</svg>
