<?xml version="1.0" encoding="UTF-8" standalone="no"?>
<!-- Created with Inkscape (http://www.inkscape.org/) -->

<svg
   xmlns:dc="http://purl.org/dc/elements/1.1/"
   xmlns:cc="http://creativecommons.org/ns#"
   xmlns:rdf="http://www.w3.org/1999/02/22-rdf-syntax-ns#"
   xmlns:svg="http://www.w3.org/2000/svg"
   xmlns="http://www.w3.org/2000/svg"
   xmlns:sodipodi="http://sodipodi.sourceforge.net/DTD/sodipodi-0.dtd"
   xmlns:inkscape="http://www.inkscape.org/namespaces/inkscape"
   id="svg4529"
   version="1.1"
   inkscape:version="0.48.5 r10040"
   width="540"
   height="1000"
   sodipodi:docname="x.svg">
  <metadata
     id="metadata4535">
    <rdf:RDF>
      <cc:Work
         rdf:about="">
        <dc:format>image/svg+xml</dc:format>
        <dc:type
           rdf:resource="http://purl.org/dc/dcmitype/StillImage" />
        <dc:title />
      </cc:Work>
    </rdf:RDF>
  </metadata>
  <defs
     id="defs4533" />
  <sodipodi:namedview
     pagecolor="#ffffff"
     bordercolor="#666666"
     borderopacity="1"
     objecttolerance="10"
     gridtolerance="10"
     guidetolerance="10"
     inkscape:pageopacity="0"
     inkscape:pageshadow="2"
     inkscape:window-width="1098"
     inkscape:window-height="752"
     id="namedview4531"
     showgrid="false"
     inkscape:zoom="2.1261261"
     inkscape:cx="30"
     inkscape:cy="55.499999"
     inkscape:window-x="0"
     inkscape:window-y="0"
     inkscape:window-maximized="0"
     inkscape:current-layer="svg4529" />
  <path
     style="fill:#000000"
     d="m 33.749999,738.01006 c -21.56918,-12.19444 -20.084165,-50.05718 2.436001,-62.1096 10.0023,-5.35307 22.188542,-7.25915 27.080537,-4.23573 17.715351,10.94869 45.897933,-6.87041 69.002363,-43.62837 12.97653,-20.645 30.30505,-42.307 38.50781,-48.13778 8.20276,-5.83078 20.13462,-26.4197 26.51524,-45.75317 10.4104,-31.54381 9.68031,-38.76946 -7.11315,-70.39858 -10.29285,-19.38576 -29.24719,-46.9629 -42.12076,-61.28254 -20.3301,-22.61374 -29.79778,-26.03572 -72.033853,-26.03572 -52.869544,0 -68.2946211,-15.42143 -49.866488,-49.85471 16.174807,-30.22291 187.116701,-30.83744 220.430181,-0.79245 4.67231,4.2139 1.7625,16.94812 -6.89029,30.15394 -12.33408,18.82418 -13.00163,26.02455 -3.7815,40.78833 27.72682,44.39769 64.70712,19.7088 55.86242,-37.29502 -6.83349,-44.04154 12.43779,-54.02554 97.61128,-50.57012 62.68945,2.54325 65.11021,3.47536 65.11021,25.07063 0,17.01708 -7.99167,26.19216 -33.11959,38.02399 -18.21578,8.57716 -44.54078,30.88402 -58.5,49.57083 -13.95923,18.68681 -30.44291,39.3278 -36.63041,45.86887 -17.59455,18.59995 -13.07234,47.84846 13.66377,88.37365 13.52243,20.49657 31.58197,50.02739 40.1323,65.62403 8.77039,15.99803 29.36409,34.13107 47.25,41.60427 C 453.33177,673.87323 459,680.95223 459,702.58963 c 0,14.49144 -4.69896,29.25218 -10.44215,32.80167 -13.76536,8.50746 -145.14731,8.63293 -158.8702,0.15174 -16.14203,-9.97633 -12.85884,-33.57179 7.71922,-55.47613 l 18.40688,-19.59322 -20.65688,-32.3559 C 283.7956,610.32203 269.79752,595.59044 264.05005,595.38093 248.88751,594.82821 207,647.47435 207,667.08404 c 0,9.18663 8.1,19.27383 18,22.41596 20.95809,6.65184 23.41511,24.80185 5.38338,39.76686 -16.15226,13.40518 -175.829201,20.50513 -196.633381,8.7432 z"
     id="path4539"
     inkscape:connector-curvature="0" />
</svg>
