<?xml version="1.0" encoding="UTF-8" standalone="no"?>
<!-- Created with Inkscape (http://www.inkscape.org/) -->

<svg
   xmlns:dc="http://purl.org/dc/elements/1.1/"
   xmlns:cc="http://creativecommons.org/ns#"
   xmlns:rdf="http://www.w3.org/1999/02/22-rdf-syntax-ns#"
   xmlns:svg="http://www.w3.org/2000/svg"
   xmlns="http://www.w3.org/2000/svg"
   xmlns:sodipodi="http://sodipodi.sourceforge.net/DTD/sodipodi-0.dtd"
   xmlns:inkscape="http://www.inkscape.org/namespaces/inkscape"
   id="svg4584"
   version="1.1"
   inkscape:version="0.48.5 r10040"
   width="540"
   height="1000"
   sodipodi:docname="y.svg">
  <metadata
     id="metadata4590">
    <rdf:RDF>
      <cc:Work
         rdf:about="">
        <dc:format>image/svg+xml</dc:format>
        <dc:type
           rdf:resource="http://purl.org/dc/dcmitype/StillImage" />
        <dc:title />
      </cc:Work>
    </rdf:RDF>
  </metadata>
  <defs
     id="defs4588" />
  <sodipodi:namedview
     pagecolor="#ffffff"
     bordercolor="#666666"
     borderopacity="1"
     objecttolerance="10"
     gridtolerance="10"
     guidetolerance="10"
     inkscape:pageopacity="0"
     inkscape:pageshadow="2"
     inkscape:window-width="1083"
     inkscape:window-height="778"
     id="namedview4586"
     showgrid="false"
     inkscape:zoom="2.1261261"
     inkscape:cx="30"
     inkscape:cy="55.499999"
     inkscape:window-x="0"
     inkscape:window-y="0"
     inkscape:window-maximized="0"
     inkscape:current-layer="svg4584" />
  <path
     style="fill:#000000"
     d="M 102.60455,933.15168 C 74.508318,920.92059 36,869.89749 36,844.90141 c 0,-22.62625 36.095377,-60.90142 57.433059,-60.90142 33.007771,0 55.066941,22.24245 55.066941,55.5245 0,41.21288 30.13811,41.70921 50.55909,0.83259 8.0075,-16.02859 18.64933,-34.25359 23.6485,-40.5 19.97769,-24.96191 20.27364,-50.36791 1.08759,-93.36547 C 200.52297,654.33664 181.7707,605.54857 149.80879,513.99999 131.48434,461.51324 117.99722,439.25703 89.170327,413.93544 55.60906,384.45517 53.128936,379.44424 62.984559,361.02885 c 10.33749,-19.31579 14.358476,-20.02964 79.701091,-14.14956 81.83675,7.36436 94.16659,15.70717 61.35623,41.5158 -28.61036,22.50492 -29.78948,37.23426 -6.8128,85.1049 9.50348,19.8 28.75224,68.30319 42.77499,107.78487 14.02277,39.48166 29.37759,71.88166 34.12185,72 4.74426,0.11835 14.28733,-15.98487 21.20682,-35.78487 6.9195,-19.8 21.87882,-58.275 33.24294,-85.5 35.84842,-85.88198 37.21983,-107.20265 8.37506,-130.20267 -15.38159,-12.26485 -22.96591,-25.17038 -19.73705,-33.58465 5.54195,-14.4421 54.28377,-24.12743 103.53631,-20.57336 16.0875,1.16088 39.375,2.61693 51.75,3.23568 31.05799,1.5529 29.75116,32.07115 -2.25,52.54376 -42.27108,27.04276 -39.43485,21.45536 -106.3862,209.58124 -13.21227,37.125 -29.97701,74.29764 -37.255,82.60586 -7.27798,8.30822 -17.07313,32.1984 -21.767,53.08929 -4.69388,20.89089 -22.34526,67.8754 -39.22529,104.41003 -25.51709,55.22838 -36.03052,68.65755 -62.36468,79.66068 -38.70569,16.17228 -64.15996,16.26984 -100.64729,0.3861 z"
     id="path4594"
     inkscape:connector-curvature="0" />
</svg>
