<?xml version="1.0" encoding="UTF-8" standalone="no"?>
<!-- Created with Inkscape (http://www.inkscape.org/) -->

<svg
   xmlns:dc="http://purl.org/dc/elements/1.1/"
   xmlns:cc="http://creativecommons.org/ns#"
   xmlns:rdf="http://www.w3.org/1999/02/22-rdf-syntax-ns#"
   xmlns:svg="http://www.w3.org/2000/svg"
   xmlns="http://www.w3.org/2000/svg"
   xmlns:sodipodi="http://sodipodi.sourceforge.net/DTD/sodipodi-0.dtd"
   xmlns:inkscape="http://www.inkscape.org/namespaces/inkscape"
   id="svg4639"
   version="1.1"
   inkscape:version="0.48.5 r10040"
   width="540"
   height="1000"
   sodipodi:docname="z.svg">
  <metadata
     id="metadata4645">
    <rdf:RDF>
      <cc:Work
         rdf:about="">
        <dc:format>image/svg+xml</dc:format>
        <dc:type
           rdf:resource="http://purl.org/dc/dcmitype/StillImage" />
        <dc:title />
      </cc:Work>
    </rdf:RDF>
  </metadata>
  <defs
     id="defs4643" />
  <sodipodi:namedview
     pagecolor="#ffffff"
     bordercolor="#666666"
     borderopacity="1"
     objecttolerance="10"
     gridtolerance="10"
     guidetolerance="10"
     inkscape:pageopacity="0"
     inkscape:pageshadow="2"
     inkscape:window-width="1043"
     inkscape:window-height="781"
     id="namedview4641"
     showgrid="false"
     inkscape:zoom="2.1261261"
     inkscape:cx="30"
     inkscape:cy="55.499999"
     inkscape:window-x="0"
     inkscape:window-y="0"
     inkscape:window-maximized="0"
     inkscape:current-layer="svg4639" />
  <path
     style="fill:#000000"
     d="M 189,757.47298 C 117.225,754.73784 53.437499,749.22348 47.249999,745.21885 22.886176,729.45025 36.0768,693.75902 86.996822,637.67181 158.04286,559.41626 214.14763,499.74836 257.40211,456.44436 c 64.59422,-64.66818 58.18258,-79.11457 -34.76669,-78.33449 -81.7805,0.68634 -99.38114,9.58545 -113.97216,57.62574 C 98.12078,470.44627 92.048975,478 74.690502,478 46.049566,478 34.464653,444.66893 42.864866,386.43415 47.940344,351.2482 55.276325,336.12397 74.07383,322.09219 c 22.537677,-16.82372 29.7198,-17.54713 86.67937,-8.7306 36.27789,5.61529 78.45768,6.58054 101.42616,2.32104 56.31309,-10.44322 132.92265,-4.43776 149.04405,11.68364 8.681,8.68099 11.38514,20.68886 7.4507,33.08518 -6.9469,21.88775 -151.75085,190.94511 -215.66918,251.79189 -58.98732,56.15275 -53.25802,67.7468 34.78508,70.39258 39.09212,1.17476 83.59411,-1.10231 98.89329,-5.06014 24.15968,-6.25 29.01135,-12.79291 36.90357,-49.76787 8.20642,-38.44693 23.26971,-59.29058 43.12238,-59.67009 23.53913,-0.45 45.17736,138.23482 26.21977,168.04913 -10.55105,16.59348 -53.69959,29.9953 -90.26492,28.03603 -18.24025,-0.97735 -91.8891,-4.01485 -163.6641,-6.75 z"
     id="path4649"
     inkscape:connector-curvature="0" />
</svg>
