<?xml version="1.0" encoding="UTF-8" standalone="no"?>
<!-- Created with Inkscape (http://www.inkscape.org/) -->

<svg
   xmlns:dc="http://purl.org/dc/elements/1.1/"
   xmlns:cc="http://creativecommons.org/ns#"
   xmlns:rdf="http://www.w3.org/1999/02/22-rdf-syntax-ns#"
   xmlns:svg="http://www.w3.org/2000/svg"
   xmlns="http://www.w3.org/2000/svg"
   xmlns:sodipodi="http://sodipodi.sourceforge.net/DTD/sodipodi-0.dtd"
   xmlns:inkscape="http://www.inkscape.org/namespaces/inkscape"
   id="svg4681"
   version="1.1"
   inkscape:version="0.48.5 r10040"
   width="540"
   height="1000"
   sodipodi:docname="and.svg">
  <metadata
     id="metadata4687">
    <rdf:RDF>
      <cc:Work
         rdf:about="">
        <dc:format>image/svg+xml</dc:format>
        <dc:type
           rdf:resource="http://purl.org/dc/dcmitype/StillImage" />
        <dc:title />
      </cc:Work>
    </rdf:RDF>
  </metadata>
  <defs
     id="defs4685" />
  <sodipodi:namedview
     pagecolor="#ffffff"
     bordercolor="#666666"
     borderopacity="1"
     objecttolerance="10"
     gridtolerance="10"
     guidetolerance="10"
     inkscape:pageopacity="0"
     inkscape:pageshadow="2"
     inkscape:window-width="1017"
     inkscape:window-height="810"
     id="namedview4683"
     showgrid="false"
     inkscape:zoom="2.1261261"
     inkscape:cx="30"
     inkscape:cy="55.499999"
     inkscape:window-x="0"
     inkscape:window-y="0"
     inkscape:window-maximized="0"
     inkscape:current-layer="svg4681" />
  <path
     style="fill:#000000"
     d="m 162.84375,189.71875 c -33.18855,0.6987 -79.563085,29.52647 -90.5625,71.71875 -8.856945,33.97405 -1.441502,91.27149 16.03125,123.75 15.7516,29.27921 14.86898,31.38194 -39.65625,86.34375 L -1.6875,522.4375 1.40625,609.34375 4.5,695.96875 39.9375,726.625 c 19.506458,16.85645 47.856455,34.1165 63,38.25 57.41198,15.67086 116.73898,-4.89576 156.9375,-54.5625 20.91237,-25.838 21.71182,-25.98155 40.5,-9.84375 64.36825,55.28805 108.3103,68.467 161.15625,48.375 22.8895,-8.70257 40.20146,-42.13582 44.4375,-85.5 3.60629,-36.91742 -11.97549,-37.50768 -36.5625,-1.40625 -37.4836,55.03768 -98.20552,49.46497 -144.5625,-13.5 -19.40296,-26.35432 -20.40973,-32.24371 -10.40625,-57.09375 6.13833,-15.24846 17.30034,-53.26038 24.75,-84.375 9.81664,-41.00064 19.47083,-60.6945 35.4375,-71.15625 20.53606,-13.45575 22.87332,-13.04079 34.875,2.8125 7.08131,9.35385 13.06134,19.9125 13.21875,23.625 0.4169,9.83155 25.16161,8.28698 31.5,-1.96875 2.96942,-4.80463 -0.96435,-21.00463 -8.71875,-36 C 434.51974,403.04777 425.63321,397 404.4375,397 c -47.03086,0 -77.33501,22.27798 -93.9375,69.46875 -8.30916,23.61791 -21.24413,57.04489 -28.6875,74.25 l -13.5,31.21875 -26.71875,-31.21875 C 226.89201,523.51364 208.87018,496.40241 201.65625,480.25 190.06734,454.30172 190.21751,447.75172 202.5,424 c 7.64567,-14.78509 17.62853,-27 22.21875,-27 7.98947,0 27.17649,-55.26504 27.28125,-78.75 0.0761,-17.05601 -26.7261,-13.4534 -33.46875,4.5 -3.25333,8.6625 -18.20903,27.22806 -33.1875,41.34375 l -27.28125,25.875 -26.15625,-29.25 c -23.21079,-25.97739 -25.45916,-33.79692 -20.53125,-69.75 6.16967,-45.01265 24.60597,-64.25649 61.875,-64.6875 13.6125,-0.15742 24.75,-1.86735 24.75,-3.9375 0,-23.25003 -15.24312,-33.04423 -35.15625,-32.625 z m 73.6875,66.375 c -6.60388,0.67867 -9.56332,9.25397 -5.34375,20.25 2.66353,6.94106 8.23585,12.65625 12.65625,12.65625 10.28351,0 10.50462,-24.33786 0.28125,-30.65625 -2.80986,-1.73659 -5.39246,-2.47623 -7.59375,-2.25 z M 139.78125,487 c 5.06185,-0.0185 16.50044,13.771 25.59375,30.65625 9.09331,16.88526 32.49266,48.18963 51.75,69.46875 19.25734,21.27912 34.875,43.64754 34.875,49.78125 0,6.13371 -14.14341,21.91774 -31.5,35.15625 -37.66947,28.73192 -97.59713,37.08505 -130.78125,18.28125 -12.464177,-7.06283 -30.144559,-29.98498 -39.375,-50.90625 -16.591629,-37.60578 -16.652366,-38.43698 2.25,-77.34375 C 69.835011,526.60604 115.84904,487.08748 139.78125,487 z"
     id="path4691"
     inkscape:connector-curvature="0" />
</svg>
