<?xml version="1.0" encoding="UTF-8" standalone="no"?>
<!-- Created with Inkscape (http://www.inkscape.org/) -->

<svg
   xmlns:dc="http://purl.org/dc/elements/1.1/"
   xmlns:cc="http://creativecommons.org/ns#"
   xmlns:rdf="http://www.w3.org/1999/02/22-rdf-syntax-ns#"
   xmlns:svg="http://www.w3.org/2000/svg"
   xmlns="http://www.w3.org/2000/svg"
   xmlns:sodipodi="http://sodipodi.sourceforge.net/DTD/sodipodi-0.dtd"
   xmlns:inkscape="http://www.inkscape.org/namespaces/inkscape"
   id="svg4828"
   version="1.1"
   inkscape:version="0.48.5 r10040"
   width="540"
   height="1000"
   sodipodi:docname="at.svg">
  <metadata
     id="metadata4834">
    <rdf:RDF>
      <cc:Work
         rdf:about="">
        <dc:format>image/svg+xml</dc:format>
        <dc:type
           rdf:resource="http://purl.org/dc/dcmitype/StillImage" />
        <dc:title />
      </cc:Work>
    </rdf:RDF>
  </metadata>
  <defs
     id="defs4832" />
  <sodipodi:namedview
     pagecolor="#ffffff"
     bordercolor="#666666"
     borderopacity="1"
     objecttolerance="10"
     gridtolerance="10"
     guidetolerance="10"
     inkscape:pageopacity="0"
     inkscape:pageshadow="2"
     inkscape:window-width="901"
     inkscape:window-height="795"
     id="namedview4830"
     showgrid="false"
     inkscape:zoom="2.1261261"
     inkscape:cx="30"
     inkscape:cy="55.499999"
     inkscape:window-x="0"
     inkscape:window-y="0"
     inkscape:window-maximized="0"
     inkscape:current-layer="svg4828" />
  <path
     style="fill:#000000"
     d="m 357.95367,751.95366 c -2.03416,-2.03415 -32.87145,-5.5306 -68.52732,-7.76988 C 203.27786,738.77343 123.99902,701.87903 83.25,648.23443 51.178339,606.01325 50.81301,604.96474 62.014202,587.28689 70.383182,574.07886 108,580.88437 108,595.60649 108,600.22291 118.2675,604 130.81666,604 c 20.88994,0 21.89662,-1.70998 11.92137,-20.25 -15.79765,-29.36158 -13.4566,-120.46475 4.56758,-177.75 12.79812,-40.67552 24.11359,-56.3302 63.47297,-87.81326 56.33212,-45.05934 100.50649,-63.50167 115.7033,-48.30487 12.43028,12.43029 39.53622,13.22409 46.86101,1.37234 2.97286,-4.81019 -1.44017,-19.19314 -9.80673,-31.96212 -18.55557,-28.31938 -6.50247,-45.24679 26.34716,-37.00206 31.80216,7.98184 104.19033,84.17582 125.13119,131.70997 20.69062,46.96613 28.47191,125.43743 16.67512,168.16193 -5.41034,19.59459 -4.99834,31.67514 1.21111,35.51279 5.8512,3.61624 3.86724,8.91847 -5.24519,14.01804 -8.06077,4.51103 -21.03591,20.53938 -28.83365,35.61855 l -14.17771,27.41667 27.6779,-6.07909 C 538.42868,602.91492 540,604.10342 540,629.58359 c 0,20.57418 -8.96792,34.69 -37.61999,59.2151 C 481.68902,706.50941 459.74979,721 453.62616,721 c -6.12362,0 -29.3229,7.79672 -51.55394,17.32607 -22.23104,9.52933 -42.0844,15.66175 -44.11855,13.62759 z M 375.75,679.85524 c 28.13977,-5.83387 25.28178,-18.02672 -8.13274,-34.69607 -32.02398,-15.97566 -67.50709,-17.58058 -119.93947,-5.4249 -27.61356,6.40179 -39.11887,5.32142 -50.20867,-4.71471 C 189.55657,627.8588 175.97657,622 167.29134,622 c -28.20411,0 -9.4585,21.92564 40.43981,47.30009 48.61408,24.7214 87.81037,27.18375 168.01885,10.55515 z M 305.97407,571.45274 C 327.17229,552.30142 342,530.77824 342,519.15925 c 0,-10.86041 9.99495,-45.25023 22.211,-76.42182 l 22.211,-56.6756 -19.961,-34.9616 c -18.86516,-33.04224 -22.35674,-34.96541 -63.60011,-35.03092 -37.46379,-0.0594 -47.4168,3.97471 -70.33481,28.50853 -14.68264,15.71781 -32.28403,39.38447 -39.11421,52.59257 -17.53376,33.90656 -26.97506,112.94708 -14.41837,120.70753 5.50358,3.4014 10.0065,13.33937 10.0065,22.08438 0,22.89003 43.60277,60.09143 74.22407,63.32715 3.69825,0.39078 22.93575,-13.93574 42.75,-31.83673 z M 449.94355,530.64965 C 473.25691,498.46649 477,485.393 477,436.14965 477,385 475.11023,379 459,379 c -13.08395,0 -18,6 -18,21.96884 0,12.08287 -4.05,24.47188 -9,27.53116 -4.95,3.05927 -9,12.09188 -9,20.07248 0,7.98061 -5.71629,20.90408 -12.70287,28.71885 -10.56712,11.81974 -18.80837,57.31417 -15.20898,83.95867 2.49092,18.43903 30.75133,2.67435 54.8554,-30.60035 z M 22.5,552.11218 C 12.769068,544.96299 9.8066222,520.90783 8.4987394,438.42142 7.819298,395.56997 11.336448,381.6971 26.752699,366.42142 L 45.848258,347.5 44.909113,388 c -0.516529,22.275 3.112059,64.66282 8.063532,94.19516 C 63.486837,544.90555 51.166656,573.17321 22.5,552.11218 z M 49.859797,313.75 C 66.357994,258.73586 188.56243,177.54542 230.59302,193.67407 c 22.8577,8.77131 -1.18628,30.67223 -28.03823,25.53916 -15.08968,-2.88458 -24.13866,0.44208 -27.90575,10.25897 C 171.58288,237.46249 163.94978,244 157.68659,244 c -6.26318,0 -31.14238,20.14599 -55.2871,44.76887 C 54.081548,338.0437 40.660687,344.42493 49.859797,313.75 z M 310.5,208 c -3.05927,-4.95 0.75168,-9 8.46885,-9 7.71713,0 14.03115,4.05 14.03115,9 0,4.95 -3.81098,9 -8.46885,9 -4.65786,0 -10.97188,-4.05 -14.03115,-9 z"
     id="path4838"
     inkscape:connector-curvature="0" />
</svg>
