<?xml version="1.0" encoding="UTF-8" standalone="no"?>
<!-- Created with Inkscape (http://www.inkscape.org/) -->

<svg
   xmlns:dc="http://purl.org/dc/elements/1.1/"
   xmlns:cc="http://creativecommons.org/ns#"
   xmlns:rdf="http://www.w3.org/1999/02/22-rdf-syntax-ns#"
   xmlns:svg="http://www.w3.org/2000/svg"
   xmlns="http://www.w3.org/2000/svg"
   xmlns:sodipodi="http://sodipodi.sourceforge.net/DTD/sodipodi-0.dtd"
   xmlns:inkscape="http://www.inkscape.org/namespaces/inkscape"
   id="svg3208"
   version="1.1"
   inkscape:version="0.48.5 r10040"
   width="540"
   height="1000"
   sodipodi:docname="B.svg">
  <metadata
     id="metadata3214">
    <rdf:RDF>
      <cc:Work
         rdf:about="">
        <dc:format>image/svg+xml</dc:format>
        <dc:type
           rdf:resource="http://purl.org/dc/dcmitype/StillImage" />
        <dc:title />
      </cc:Work>
    </rdf:RDF>
  </metadata>
  <defs
     id="defs3212" />
  <sodipodi:namedview
     pagecolor="#ffffff"
     bordercolor="#666666"
     borderopacity="1"
     objecttolerance="10"
     gridtolerance="10"
     guidetolerance="10"
     inkscape:pageopacity="0"
     inkscape:pageshadow="2"
     inkscape:window-width="1014"
     inkscape:window-height="775"
     id="namedview3210"
     showgrid="false"
     inkscape:zoom="2.1261261"
     inkscape:cx="30"
     inkscape:cy="55.499999"
     inkscape:window-x="0"
     inkscape:window-y="0"
     inkscape:window-maximized="0"
     inkscape:current-layer="svg3208" />
  <path
     style="fill:#000000"
     d="m 176.625,141.34375 c -7.90509,-0.13768 -15.8056,0.71805 -25.03125,2.8125 -18.1662,4.12419 -44.23894,5.65863 -57.65625,3.09375 -18.145474,-3.46873 -23.321608,-1.7216 -20.25,7.59375 2.27124,6.88805 13.145625,13.88555 23.90625,15.46875 38.65031,5.68658 52.78771,75.52025 36,175.78125 C 123.97061,403.56593 118.84626,447.31513 112.78125,523 105.00244,620.07133 81.360926,667 39.9375,667 12.37266,667 -5.7367076,689.85862 8.4375003,706.9375 14.353073,714.06533 28.034471,721.15283 38.8125,722.6875 49.590528,724.22216 129.375,725.5 216,725.5 c 166.42387,0 179.27092,-2.47332 239.90625,-47.25 39.27642,-29.00401 50.8079,-62.64172 46.6875,-135.5625 -2.88706,-51.09386 -7.8008,-66.68981 -28.125,-90.84375 -29.11398,-34.59999 -30.39333,-52.88017 -7.03125,-96.46875 32.57217,-60.7726 2.53151,-172.24143 -52.3125,-194.0625 -12.9858,-5.16672 -50.9625,-11.3015 -84.375,-13.5 -50.00664,-3.29038 -60.75,-1.37112 -60.75,9.84375 0,11.99921 48.20443,32.19114 77.0625,32.34375 5.22018,0.0276 24.95136,14.16664 43.875,31.5 32.36521,29.64539 33.95448,33.78372 28.40625,69.75 -9.86929,63.97744 -29.22251,81.62644 -105.1875,95.34375 -52.89065,9.55068 -73.16334,9.55626 -99.5625,0.84375 -38.77685,-12.79751 -43.20396,-24.47492 -43.3125,-111.9375 -0.0677,-54.58852 2.84909,-66.60492 22.78125,-90 15.12257,-17.74991 24.75274,-23.1458 27.84375,-15.75 2.586,6.1875 10.425,11.25 17.4375,11.25 22.74231,0 12.93389,-13.24743 -21.375,-28.96875 -15.60343,-7.14993 -28.16861,-10.45804 -41.34375,-10.6875 z m 51.75,278.4375 c 42.72362,0.43824 107.61807,14.9162 141.75,35.71875 19.09506,11.63797 52.875,75.44607 52.875,99.84375 0,42.94005 -18.71492,72.80176 -57.65625,92.25 -40.0686,20.01123 -141.10827,27.21333 -165.375,11.8125 C 174.78717,643.42481 165.93672,456.57081 189,428.78125 c 5.28588,-6.36909 19.95518,-9.1992 39.375,-9 z"
     id="path3218"
     inkscape:connector-curvature="0" />
</svg>
