<?xml version="1.0" encoding="UTF-8" standalone="no"?>
<!-- Created with Inkscape (http://www.inkscape.org/) -->

<svg
   xmlns:dc="http://purl.org/dc/elements/1.1/"
   xmlns:cc="http://creativecommons.org/ns#"
   xmlns:rdf="http://www.w3.org/1999/02/22-rdf-syntax-ns#"
   xmlns:svg="http://www.w3.org/2000/svg"
   xmlns="http://www.w3.org/2000/svg"
   xmlns:sodipodi="http://sodipodi.sourceforge.net/DTD/sodipodi-0.dtd"
   xmlns:inkscape="http://www.inkscape.org/namespaces/inkscape"
   id="svg4970"
   version="1.1"
   inkscape:version="0.48.5 r10040"
   width="540"
   height="1000"
   sodipodi:docname="colon.svg">
  <metadata
     id="metadata4976">
    <rdf:RDF>
      <cc:Work
         rdf:about="">
        <dc:format>image/svg+xml</dc:format>
        <dc:type
           rdf:resource="http://purl.org/dc/dcmitype/StillImage" />
        <dc:title />
      </cc:Work>
    </rdf:RDF>
  </metadata>
  <defs
     id="defs4974" />
  <sodipodi:namedview
     pagecolor="#ffffff"
     bordercolor="#666666"
     borderopacity="1"
     objecttolerance="10"
     gridtolerance="10"
     guidetolerance="10"
     inkscape:pageopacity="0"
     inkscape:pageshadow="2"
     inkscape:window-width="967"
     inkscape:window-height="808"
     id="namedview4972"
     showgrid="false"
     inkscape:zoom="2.1261261"
     inkscape:cx="30"
     inkscape:cy="55.499999"
     inkscape:window-x="0"
     inkscape:window-y="0"
     inkscape:window-maximized="0"
     inkscape:current-layer="svg4970" />
  <path
     style="fill:#000000"
     d="M 268.40862,768.61726 C 238.60125,764.05701 228.92429,752.32321 221.71596,712 208.00126,635.28029 307.954,569.954 359.77107,621.77108 c 40.10145,40.10144 31.13971,97.49645 -20.76352,132.97892 -16.29176,11.1375 -33.42078,19.64319 -38.06447,18.90151 -4.6437,-0.74169 -19.2842,-3.00708 -32.53446,-5.03425 z M 239.15585,454.87014 c -25.93328,-25.93328 -25.7354,-48.88796 0.79128,-91.79387 18.8326,-30.46102 33.66383,-43.53381 55.93769,-49.30555 38.72222,-10.03394 51.02379,-4.9335 72.23845,29.95122 21.0983,34.69336 11.69513,71.5227 -24.76023,96.97827 -33.27541,23.23512 -87.73648,30.64065 -104.2072,14.16993 z"
     id="path4980"
     inkscape:connector-curvature="0" />
</svg>
