<?xml version="1.0" encoding="UTF-8" standalone="no"?>
<!-- Created with Inkscape (http://www.inkscape.org/) -->

<svg
   xmlns:dc="http://purl.org/dc/elements/1.1/"
   xmlns:cc="http://creativecommons.org/ns#"
   xmlns:rdf="http://www.w3.org/1999/02/22-rdf-syntax-ns#"
   xmlns:svg="http://www.w3.org/2000/svg"
   xmlns="http://www.w3.org/2000/svg"
   xmlns:sodipodi="http://sodipodi.sourceforge.net/DTD/sodipodi-0.dtd"
   xmlns:inkscape="http://www.inkscape.org/namespaces/inkscape"
   id="svg3328"
   version="1.1"
   inkscape:version="0.48.5 r10040"
   width="540"
   height="1000"
   sodipodi:docname="D.svg">
  <metadata
     id="metadata3334">
    <rdf:RDF>
      <cc:Work
         rdf:about="">
        <dc:format>image/svg+xml</dc:format>
        <dc:type
           rdf:resource="http://purl.org/dc/dcmitype/StillImage" />
        <dc:title />
      </cc:Work>
    </rdf:RDF>
  </metadata>
  <defs
     id="defs3332" />
  <sodipodi:namedview
     pagecolor="#ffffff"
     bordercolor="#666666"
     borderopacity="1"
     objecttolerance="10"
     gridtolerance="10"
     guidetolerance="10"
     inkscape:pageopacity="0"
     inkscape:pageshadow="2"
     inkscape:window-width="1138"
     inkscape:window-height="810"
     id="namedview3330"
     showgrid="false"
     inkscape:zoom="2.1261261"
     inkscape:cx="30"
     inkscape:cy="55.499999"
     inkscape:window-x="0"
     inkscape:window-y="0"
     inkscape:window-maximized="0"
     inkscape:current-layer="svg3328" />
  <path
     style="fill:#000000"
     d="M 48.859325,718.30279 C 18.96307,701.57021 53.103788,649 93.866698,649 c 22.415102,0 34.715192,-35.38333 29.583722,-85.10262 -2.61971,-25.3825 -1.27643,-52.38034 2.98507,-59.99521 8.17314,-14.60461 17.3022,-115.70155 19.548,-216.47845 1.56844,-70.38102 -6.75755,-84.00826 -56.153398,-91.90697 -38.316942,-6.12713 -46.088917,-21.79868 -21.096916,-42.54019 15.722517,-13.04854 127.283404,-12.62596 141.054434,0.53428 4.00819,3.83042 24.53302,3.7426 45.61072,-0.19512 21.07772,-3.93774 54.02474,-3.61824 73.2156,0.71001 19.19086,4.32824 38.10666,5.88305 42.03513,3.45513 12.12866,-7.49592 68.77868,43.63976 102.41149,92.44271 27.31966,39.64223 33.06071,57.01463 39.30226,118.92823 C 532.33842,567.00191 479.02673,685.16692 355.5,716.53716 318.87783,725.83754 64.934271,727.29975 48.859325,718.30279 z M 306,645.9792 C 362.95948,626.74412 392.43869,602.13682 414.77088,555.18444 434.06705,514.61514 436.5,497.17988 436.5,399.46631 l 0,-110.03368 -27,-26.33108 C 394.65,248.61946 377.45174,230.4833 371.28167,222.799 c -6.17009,-7.68432 -26.42009,-16.40394 -45,-19.37694 C 307.70174,200.44905 286.425,195.19313 279,191.74224 c -22.93625,-10.66002 -70.05814,-1.73023 -76.62557,14.52086 -7.40644,18.32719 -6.27774,414.37614 1.21548,426.50043 6.47248,10.47268 39.19572,24.13784 57.41009,23.97433 7.425,-0.0666 27.675,-4.90805 45,-10.75866 z"
     id="path3338"
     inkscape:connector-curvature="0" />
</svg>
