<?xml version="1.0" encoding="UTF-8" standalone="no"?>
<!-- Created with Inkscape (http://www.inkscape.org/) -->

<svg
   xmlns:dc="http://purl.org/dc/elements/1.1/"
   xmlns:cc="http://creativecommons.org/ns#"
   xmlns:rdf="http://www.w3.org/1999/02/22-rdf-syntax-ns#"
   xmlns:svg="http://www.w3.org/2000/svg"
   xmlns="http://www.w3.org/2000/svg"
   xmlns:sodipodi="http://sodipodi.sourceforge.net/DTD/sodipodi-0.dtd"
   xmlns:inkscape="http://www.inkscape.org/namespaces/inkscape"
   id="svg5057"
   version="1.1"
   inkscape:version="0.48.5 r10040"
   width="540"
   height="1000"
   sodipodi:docname="dollar.svg">
  <metadata
     id="metadata5063">
    <rdf:RDF>
      <cc:Work
         rdf:about="">
        <dc:format>image/svg+xml</dc:format>
        <dc:type
           rdf:resource="http://purl.org/dc/dcmitype/StillImage" />
        <dc:title />
      </cc:Work>
    </rdf:RDF>
  </metadata>
  <defs
     id="defs5061" />
  <sodipodi:namedview
     pagecolor="#ffffff"
     bordercolor="#666666"
     borderopacity="1"
     objecttolerance="10"
     gridtolerance="10"
     guidetolerance="10"
     inkscape:pageopacity="0"
     inkscape:pageshadow="2"
     inkscape:window-width="960"
     inkscape:window-height="821"
     id="namedview5059"
     showgrid="false"
     inkscape:zoom="2.1261261"
     inkscape:cx="30"
     inkscape:cy="55.499999"
     inkscape:window-x="0"
     inkscape:window-y="0"
     inkscape:window-maximized="0"
     inkscape:current-layer="svg5057" />
  <path
     style="fill:#000000"
     d="m 317.06064,912.60784 c -23.74191,-8.7876 -35.97612,-50.47146 -29.41372,-100.21716 5.0396,-38.20234 3.62416,-49.154 -6.8735,-53.18233 C 250.56801,747.61744 238.5,770.20208 238.5,838.3208 c 0,43.54756 -3.6858,66.8003 -10.98077,69.27485 -17.36481,5.8904 -47.92439,-52.25352 -46.03897,-87.59565 1.89447,-35.51146 -14.221,-72 -31.79941,-72 C 125.40176,748 64.746718,680.9631 58.395924,647.11046 48.89503,596.46634 63.289964,563.5 94.904893,563.5 c 34.438747,0 59.483337,39.79897 42.329437,67.26674 -14.67444,23.4975 -14.88355,22.77202 11.55815,40.09729 22.55375,14.77779 22.93241,14.5993 36.15244,-17.0407 7.4669,-17.8708 10.86448,-41.91776 7.70252,-54.51599 -5.90452,-23.52546 10.29038,-52.88021 24.37232,-44.1771 4.38913,2.71264 7.98024,32.23305 7.98024,65.60091 0,72.5272 7.31404,82.92776 49.11658,69.84378 l 30.42027,-9.5214 6.35472,-93.23234 c 3.96522,-58.17507 2.90753,-100.79813 -2.81286,-113.35302 -5.88811,-12.923 -6.10168,-25.59917 -0.59697,-35.43548 4.71382,-8.42313 10.02883,-36.40382 11.81111,-62.1793 4.33336,-62.66898 21.31398,-66.59521 22.30772,-5.15794 0.42524,26.2925 1.70159,102.47955 2.83631,169.30455 l 2.06312,121.5 25.05333,2.87708 c 37.97959,4.36149 74.37629,-39.17421 82.22694,-98.35525 7.85594,-59.221 24.45981,-47.47431 30.16659,21.34186 3.39496,40.93871 0.46026,53.18416 -19.95577,83.26888 -13.16483,19.39947 -42.96094,45.57808 -66.21357,58.17469 L 355.5,752.7102 l -0.19089,69.51439 c -0.1944,70.77545 -12.52163,99.90542 -38.24844,90.38325 z M 414,500.5 c -6.1622,-7.425 -16.2872,-13.5 -22.5,-13.5 -19.36397,0 -35.90629,-26.19371 -24.03776,-38.06224 7.73249,-7.73249 15.52048,-5.39438 31.24862,9.38144 C 410.23296,469.14364 424.02828,478 429.36716,478 437.56623,478 450,497.42612 450,510.23608 c 0,9.40906 -25.93123,2.39605 -36,-9.73608 z m -219.67239,-36 c -8.72514,-13.31625 -23.27955,-22.5 -35.658,-22.5 -21.87499,0 -59.669609,-27.04841 -59.669609,-42.70366 0,-5.00078 -6.075,-14.13414 -13.5,-20.29634 -8.635631,-7.16693 -13.5,-27.07878 -13.5,-55.261 0,-38.72496 3.905818,-47.85006 32.272639,-75.39799 C 122.02259,231.10345 141.56663,217 147.70382,217 c 16.53524,0 48.27121,-37.46865 51.75722,-61.1065 4.68118,-31.74204 19.71603,-23.86227 33.52736,17.5717 11.42699,34.28099 11.08956,38.48806 -3.97017,49.5 C 219.96602,229.58434 203.53695,235 192.50919,235 141.31356,235 80.218213,298.90591 98.592004,333.23765 103.7664,342.9061 108,359.28315 108,369.63108 c 0,26.94563 39.99753,40.89346 65.68095,22.90409 29.08173,-20.36963 41.12041,-16.65943 57.5179,17.72647 11.97645,25.11488 12.87056,35.73251 4.54734,54 -13.03927,28.61808 -22.78672,28.67418 -41.41858,0.23841 z M 406.8,368.2 c -17.23281,-17.23281 -10.19175,-44.19453 22.96542,-87.93936 6.39237,-8.43357 19.96215,22.79766 20.09676,46.25328 C 450.1365,374.31323 431.22266,392.62266 406.8,368.2 z M 355.5,233.05147 c -9.9,-5.4395 -24.075,-12.92445 -31.5,-16.63321 -7.425,-3.70877 -12.36595,-11.53476 -10.97988,-17.39108 1.38606,-5.85633 3.91125,-22.5959 5.61153,-37.19907 6.07331,-52.16152 16.7205,-43.89015 27.57495,21.42189 4.2506,25.57618 9.86963,33.75 23.20122,33.75 9.6757,0 17.59218,6.075 17.59218,13.5 0,15.68429 -6.62181,16.22066 -31.5,2.55147 z M 279,208 c 0,-4.95 4.05,-9 9,-9 4.95,0 9,4.05 9,9 0,4.95 -4.05,9 -9,9 -4.95,0 -9,-4.05 -9,-9 z M 202.59073,100.14681 C 195.95281,89.40643 204.37784,73 216.53115,73 c 10.95125,0 11.02227,24.35959 0.0907,31.11566 -4.60796,2.84788 -10.92198,1.06189 -14.03115,-3.96885 z M 315,86.5 c 0,-7.425 4.05,-13.5 9,-13.5 4.95,0 9,6.075 9,13.5 0,7.425 -4.05,13.5 -9,13.5 -4.95,0 -9,-6.075 -9,-13.5 z"
     id="path5067"
     inkscape:connector-curvature="0" />
</svg>
