<?xml version="1.0" encoding="UTF-8" standalone="no"?>
<!-- Created with Inkscape (http://www.inkscape.org/) -->

<svg
   xmlns:dc="http://purl.org/dc/elements/1.1/"
   xmlns:cc="http://creativecommons.org/ns#"
   xmlns:rdf="http://www.w3.org/1999/02/22-rdf-syntax-ns#"
   xmlns:svg="http://www.w3.org/2000/svg"
   xmlns="http://www.w3.org/2000/svg"
   xmlns:sodipodi="http://sodipodi.sourceforge.net/DTD/sodipodi-0.dtd"
   xmlns:inkscape="http://www.inkscape.org/namespaces/inkscape"
   id="svg3383"
   version="1.1"
   inkscape:version="0.48.5 r10040"
   width="540"
   height="1000"
   sodipodi:docname="E.svg">
  <metadata
     id="metadata3389">
    <rdf:RDF>
      <cc:Work
         rdf:about="">
        <dc:format>image/svg+xml</dc:format>
        <dc:type
           rdf:resource="http://purl.org/dc/dcmitype/StillImage" />
        <dc:title />
      </cc:Work>
    </rdf:RDF>
  </metadata>
  <defs
     id="defs3387" />
  <sodipodi:namedview
     pagecolor="#ffffff"
     bordercolor="#666666"
     borderopacity="1"
     objecttolerance="10"
     gridtolerance="10"
     guidetolerance="10"
     inkscape:pageopacity="0"
     inkscape:pageshadow="2"
     inkscape:window-width="1084"
     inkscape:window-height="817"
     id="namedview3385"
     showgrid="false"
     inkscape:zoom="2.1261261"
     inkscape:cx="30"
     inkscape:cy="55.499999"
     inkscape:window-x="0"
     inkscape:window-y="0"
     inkscape:window-maximized="0"
     inkscape:current-layer="svg3383" />
  <path
     style="fill:#000000"
     d="m 58.5,741.70862 c -44.985122,-11.97329 -34.948825,-41.66449 21.043553,-62.25487 23.076047,-8.48587 45.074627,-18.08014 48.885717,-21.32058 6.46039,-5.49304 20.00103,-330.31749 17.05397,-409.10497 -1.806,-48.28198 -10.62276,-54.68822 -57.170758,-41.54021 -21.346865,6.02966 -47.652204,10.70448 -58.456309,10.3885 C 16.443278,217.4842 8.9814588,223.67728 6.3318118,237.40098 4.1975176,248.45544 1.8997396,236.81839 1.2256384,211.54086 L 0,165.58172 65.25,164.46083 c 35.8875,-0.6165 77.4,-0.73125 92.25,-0.25497 40.49233,1.29859 59.41346,0.4311 98.82863,-4.53096 19.91085,-2.50663 38.36776,-0.40212 41.54384,4.73682 3.7717,6.10276 12.16998,5.2163 24.69673,-2.60678 14.97828,-9.35409 21.30665,-9.52904 30.00617,-0.82953 19.14292,19.14292 -4.27209,29.93598 -76.85342,35.4253 -41.03351,3.10335 -72.74035,10.09687 -78.78218,17.37683 -5.56116,6.7008 -9.83946,41.06275 -9.50734,76.35992 0.50319,53.47568 3.94716,67.73543 20.65454,85.51962 33.03051,35.15935 77.45264,24.61104 102.80304,-24.41122 7.74196,-14.97132 12.84638,-36.01392 11.34315,-46.76134 -3.16325,-22.6157 23.58106,-32.97986 31.54553,-12.22478 8.47297,22.08019 18.04464,227.26605 11.76824,252.27321 C 353.81227,591.28751 306,558.05441 306,503.14334 306,459.86319 287.52719,445.71612 244.79824,456.27307 L 211.5,464.5 l -2.4338,69.59917 c -1.56351,44.71161 2.10464,80.4612 10.25815,99.97529 11.89964,28.47986 16.0706,30.75837 66.81427,36.49936 32.05336,3.62642 70.5999,1.97415 94.53221,-4.05208 C 423.57811,655.71757 432,640.74752 432,575.28333 c 0,-61.27794 42.35399,-82.91034 67.42127,-34.43557 17.54104,33.92063 21.56479,150.09371 6.16179,177.90224 -10.65285,19.23264 -16.73943,20.27679 -121.14972,20.78325 C 323.97,739.82654 229.95,741.51394 175.5,743.28302 c -54.45,1.76908 -107.1,1.0606 -117,-1.5744 z M 454.09158,342.33917 c -3.6338,-5.87961 -6.27069,-34.40167 -5.85977,-63.38236 C 449.06201,220.40503 436.11175,199 399.85714,199 386.42857,199 378,193.79412 378,185.5 c 0,-7.425 6.12995,-13.5 13.62212,-13.5 7.49217,0 20.97886,-4.59436 29.97043,-10.20969 12.8448,-8.02171 21.5206,-6.82068 40.48359,5.60435 28.44242,18.63619 32.84928,33.18878 35.46221,117.10534 1.81785,58.38155 0.53937,63.20267 -17.43911,65.76467 -10.67042,1.52057 -22.37387,-2.04591 -26.00766,-7.9255 z"
     id="path3393"
     inkscape:connector-curvature="0" />
</svg>
