<?xml version="1.0" encoding="UTF-8" standalone="no"?>
<!-- Created with Inkscape (http://www.inkscape.org/) -->

<svg
   xmlns:dc="http://purl.org/dc/elements/1.1/"
   xmlns:cc="http://creativecommons.org/ns#"
   xmlns:rdf="http://www.w3.org/1999/02/22-rdf-syntax-ns#"
   xmlns:svg="http://www.w3.org/2000/svg"
   xmlns="http://www.w3.org/2000/svg"
   xmlns:sodipodi="http://sodipodi.sourceforge.net/DTD/sodipodi-0.dtd"
   xmlns:inkscape="http://www.inkscape.org/namespaces/inkscape"
   id="svg3438"
   version="1.1"
   inkscape:version="0.48.5 r10040"
   width="540"
   height="1000"
   sodipodi:docname="F.svg">
  <metadata
     id="metadata3444">
    <rdf:RDF>
      <cc:Work
         rdf:about="">
        <dc:format>image/svg+xml</dc:format>
        <dc:type
           rdf:resource="http://purl.org/dc/dcmitype/StillImage" />
        <dc:title />
      </cc:Work>
    </rdf:RDF>
  </metadata>
  <defs
     id="defs3442" />
  <sodipodi:namedview
     pagecolor="#ffffff"
     bordercolor="#666666"
     borderopacity="1"
     objecttolerance="10"
     gridtolerance="10"
     guidetolerance="10"
     inkscape:pageopacity="0"
     inkscape:pageshadow="2"
     inkscape:window-width="1042"
     inkscape:window-height="799"
     id="namedview3440"
     showgrid="false"
     inkscape:zoom="2.1261261"
     inkscape:cx="30"
     inkscape:cy="55.499999"
     inkscape:window-x="0"
     inkscape:window-y="0"
     inkscape:window-maximized="0"
     inkscape:current-layer="svg3438" />
  <path
     style="fill:#000000"
     d="m 413.4375,143.3125 c -11.61348,0.10902 -24.80923,0.3363 -39.9375,0.5625 -34.65,0.51808 -115.65,0.97461 -180,1.125 -88.86814,0.20767 -121.264512,3.43063 -134.437499,13.5 -22.899014,17.5039 -17.768814,21.07814 50.062499,34.875 l 57.375,11.53125 7.875,124.875 c 5.41193,86.94389 4.47753,143.97769 -2.8125,188.15625 -5.75622,34.8834 -10.24074,75.50091 -10.125,90 C 161.68929,639.47654 148.11335,658 124.875,658 c -9.36106,0 -26.054666,4.68689 -37.124999,10.40625 -11.070335,5.71935 -26.05712,13.01572 -33.1875,16.3125 -18.627361,8.61249 -21.219121,23.21838 -6.75,37.6875 7.809548,7.80955 27.394743,11.85311 52.03125,10.40625 21.779559,-1.27909 79.277749,-2.52632 127.687499,-2.53125 C 317.0643,730.27225 351,721.58841 351,698.5 c 0,-17.89412 -24.98945,-29.35629 -79.3125,-36.5625 -43.31761,-5.74629 -46.61027,-8.04215 -50.625,-34.3125 -2.36327,-15.46403 -4.35861,-52.425 -4.5,-82.125 -0.14139,-29.7 -0.51975,-61.67932 -0.84375,-71.15625 -0.32398,-9.47692 5.51465,-23.51464 12.9375,-30.9375 10.83991,-10.83991 15.94394,-11.1923 26.71875,-2.25 7.37828,6.12344 22.77486,9.75489 34.03125,8.15625 21.98703,-3.12264 29.19797,10.87284 39.09375,75.375 5.05723,32.96369 28.84705,51.57672 49.5,38.8125 9.97145,-6.1627 12.63659,-209.06708 3.375,-255.375 C 371.11508,256.82542 333,283.62184 333,342.15625 c 0,22.58962 -4.36016,28.40919 -24.75,32.90625 -13.6125,3.00229 -28.8,6.51215 -33.75,7.875 -4.95,1.36285 -19.44969,-2.77981 -32.34375,-9.28125 -19.38226,-9.7729 -24.51432,-19.91214 -29.25,-59.34375 C 203.98652,240.04237 205.85392,211.15517 220.5,199 c 8.89177,-7.37951 53.50417,-12.19814 130.5,-13.78125 l 117.28125,-2.25 5.34375,21.9375 c 3.03857,12.10675 3.3868,36.31463 0.5625,53.71875 -2.8243,17.40412 -1.47897,41.41033 3.09375,53.4375 11.49742,30.24052 35.30338,28.44428 36.84375,-2.8125 0.67084,-13.6125 2.2735,-42.975 3.375,-65.25 1.1015,-22.275 -3.37399,-53.6625 -9.84375,-69.75 -11.33145,-28.17641 -12.92437,-31.70063 -94.21875,-30.9375 z"
     id="path3448"
     inkscape:connector-curvature="0" />
</svg>
