<?xml version="1.0" encoding="UTF-8" standalone="no"?>
<!-- Created with Inkscape (http://www.inkscape.org/) -->

<svg
   xmlns:dc="http://purl.org/dc/elements/1.1/"
   xmlns:cc="http://creativecommons.org/ns#"
   xmlns:rdf="http://www.w3.org/1999/02/22-rdf-syntax-ns#"
   xmlns:svg="http://www.w3.org/2000/svg"
   xmlns="http://www.w3.org/2000/svg"
   xmlns:sodipodi="http://sodipodi.sourceforge.net/DTD/sodipodi-0.dtd"
   xmlns:inkscape="http://www.inkscape.org/namespaces/inkscape"
   id="svg5276"
   version="1.1"
   inkscape:version="0.48.5 r10040"
   width="540"
   height="1000"
   sodipodi:docname="frac34.svg">
  <metadata
     id="metadata5282">
    <rdf:RDF>
      <cc:Work
         rdf:about="">
        <dc:format>image/svg+xml</dc:format>
        <dc:type
           rdf:resource="http://purl.org/dc/dcmitype/StillImage" />
        <dc:title />
      </cc:Work>
    </rdf:RDF>
  </metadata>
  <defs
     id="defs5280" />
  <sodipodi:namedview
     pagecolor="#ffffff"
     bordercolor="#666666"
     borderopacity="1"
     objecttolerance="10"
     gridtolerance="10"
     guidetolerance="10"
     inkscape:pageopacity="0"
     inkscape:pageshadow="2"
     inkscape:window-width="932"
     inkscape:window-height="698"
     id="namedview5278"
     showgrid="false"
     inkscape:zoom="2.1261261"
     inkscape:cx="30"
     inkscape:cy="55.499999"
     inkscape:window-x="0"
     inkscape:window-y="0"
     inkscape:window-maximized="0"
     inkscape:current-layer="svg5276" />
  <path
     style="fill:#000000"
     d="m 199.95929,872.60953 c 2.21777,-6.66023 11.25063,-13.50882 20.07302,-15.21905 10.26015,-1.98896 14.5876,1.25435 12.00841,9 -2.21777,6.66023 -11.25063,13.50882 -20.07302,15.21905 -10.26014,1.98896 -14.5876,-1.25436 -12.00841,-9 z m 74.54072,2.48726 c -15.24072,-3.25901 -27,-11.57621 -27,-19.09679 0,-7.77108 11.25162,-15.25944 27,-17.96949 29.76432,-5.12196 39.65997,-30.96679 23.45228,-61.25115 -8.60467,-16.07797 -12.9968,-16.43709 -70.31512,-5.74916 -51.20689,9.54834 -88.77186,10.96877 -131.080121,4.95645 -3.818619,-0.54266 -11.531086,-11.05651 -17.138812,-23.36413 -9.185012,-20.15891 -6.868309,-25.51578 23.367203,-54.03154 18.45968,-17.40972 51.21449,-43.79854 72.78846,-58.64182 21.57396,-14.84327 41.79347,-35.07908 44.93223,-44.96846 3.13877,-9.88938 9.91362,-17.98069 15.05522,-17.98069 5.14161,0 25.04685,-12.43342 44.23387,-27.62982 19.18702,-15.19641 38.76863,-25.22991 43.51468,-22.29669 4.74606,2.93322 7.00371,26.50414 5.01701,52.37982 -1.98671,25.87568 -3.773,50.08419 -3.96955,53.79669 -0.19654,3.7125 -4.40735,6.75 -9.35735,6.75 -4.95,0 -9,-11.91098 -9,-26.46885 0,-33.54009 -13.99837,-42.69455 -28.87056,-18.88038 -6.30261,10.09208 -16.33042,18.34923 -22.28403,18.34923 -5.95361,0 -16.1169,7.45726 -22.58508,16.5717 -6.46818,9.11444 -20.59855,21.26014 -31.40081,26.99045 -24.80297,13.1573 -33.73768,40.3748 -21.04146,64.09789 12.01197,22.44457 50.64117,24.33407 73.55445,3.59785 13.04695,-11.80734 18.93248,-12.54893 29.56443,-3.72519 18.14777,15.06131 36.62756,3.31152 22.17688,-14.10048 -8.31044,-10.01347 -8.33322,-18.29197 -0.10005,-36.36178 13.96666,-30.6535 23.48623,-19.73484 23.48623,26.93801 0,30.94453 3.01452,37.49821 17.26272,37.52971 23.83617,0.0531 28.1088,19.08853 5.6053,24.97334 -14.04046,3.67166 -18.36802,12.16373 -18.36802,36.04392 0,37.85369 14.77427,51.51757 62.64702,57.93866 59.2689,7.94963 43.60951,23.82859 -17.22821,17.46979 -31.6568,-3.3088 -55.8112,-1.9921 -59.03115,3.21789 -2.99749,4.85003 -8.24845,8.33906 -11.66882,7.7534 -3.42037,-0.58566 -18.36884,-3.66293 -33.21884,-6.83838 z M 41.897343,461.20057 c -14.729689,-5.79716 -13.813759,-7.80501 8.119131,-17.7983 25.941392,-11.81969 47.255085,-2.44905 35.968182,15.81355 -6.802794,11.00715 -19.688809,11.58725 -44.087313,1.98475 z m 338.239767,-10.2798 c -21.13679,-17.11553 -27.96751,-32.82252 -9.24074,-21.24875 5.993,3.70388 39.4055,6.9804 74.25,7.28115 50.07131,0.43219 63.35364,3.37716 63.35364,14.04684 0,21.33458 -101.99572,21.27162 -128.3629,-0.0792 z M 108,450.99997 c 0,-4.95 6.075,-9 13.5,-9 7.42501,0 13.50001,4.05 13.50001,9 0,4.95 -6.075,9 -13.50001,9 -7.425,0 -13.5,-4.05 -13.5,-9 z m 55.39048,-3.93888 c 1.71023,-8.25655 7.15953,-14.79798 12.10953,-14.53651 13.3586,0.7056 10.90444,20.84057 -3.10953,25.51189 -7.57009,2.52337 -10.94388,-1.59093 -9,-10.97538 z m 0.85953,-74.02165 c -6.1875,-2.49671 -11.25,-10.27698 -11.25,-17.28947 0,-7.0125 -5.93251,-12.75 -13.18335,-12.75 -19.3766,0 -33.84973,-33.25513 -27.35083,-62.84439 7.62675,-34.72441 56.62533,-54.21895 74.62713,-29.69111 6.47295,8.81952 9.1949,24.1355 6.04879,34.0355 -12.29826,38.69945 -8.64934,53.38072 16.28387,65.51748 13.7091,6.67317 22.58258,15.92418 19.71885,20.55778 -5.43253,8.79002 -45.45145,10.30964 -64.89446,2.46421 z m 96.75,-3.03947 c 0,-4.95 4.28902,-9 9.53115,-9 5.24213,0 7.02812,4.05 3.96885,9 -3.05928,4.95 -7.34829,9 -9.53116,9 -2.18287,0 -3.96884,-4.05 -3.96884,-9 z m 84.85918,-30.3127 c 52.52952,-49.54171 36.80472,-95.62979 -42.10918,-123.41856 -37.0649,-13.05205 -45.54819,-35.2427 -13.5,-35.31345 11.1375,-0.0243 32.26247,-9.65602 46.94437,-21.40319 24.24471,-19.39846 25.70775,-23.52389 15.94295,-44.95529 -5.91328,-12.97825 -16.41735,-23.59681 -23.34237,-23.59681 -6.92502,0 -17.26053,-5.62651 -22.96781,-12.50335 -5.70727,-6.87684 -21.39067,-14.65239 -34.852,-17.27901 -31.28356,-6.10413 -64.97514,23.42943 -64.97514,56.95629 0,26.18783 -24.36345,53.82607 -47.44834,53.82607 -16.08256,0 -42.55167,-32.82338 -42.55167,-52.76678 0,-7.01891 8.48322,-29.74766 18.8516,-50.50833 20.93752,-41.92332 77.73467,-77.11468 90.74636,-56.22618 5.35862,8.60256 10.9912,8.43567 25.83268,-0.76542 13.68478,-8.48397 22.23115,-9.06836 30.63388,-2.09472 6.40971,5.31959 17.87681,7.28407 25.48244,4.36551 19.54618,-7.50057 64.65663,17.9813 86.7435,48.99945 22.69397,31.87075 23.77803,62.70643 3.44972,98.12647 -14.91027,25.97965 -14.70412,27.24915 9,55.41989 35.74583,42.4815 34.27116,98.42604 -3.4307,130.15006 -18.22923,15.33889 -38.43647,23.30005 -59.14082,23.30005 l -31.45029,0 32.14082,-30.3127 z"
     id="path5286"
     inkscape:connector-curvature="0" />
</svg>
