<?xml version="1.0" encoding="UTF-8" standalone="no"?>
<!-- Created with Inkscape (http://www.inkscape.org/) -->

<svg
   xmlns:dc="http://purl.org/dc/elements/1.1/"
   xmlns:cc="http://creativecommons.org/ns#"
   xmlns:rdf="http://www.w3.org/1999/02/22-rdf-syntax-ns#"
   xmlns:svg="http://www.w3.org/2000/svg"
   xmlns="http://www.w3.org/2000/svg"
   xmlns:sodipodi="http://sodipodi.sourceforge.net/DTD/sodipodi-0.dtd"
   xmlns:inkscape="http://www.inkscape.org/namespaces/inkscape"
   id="svg5202"
   version="1.1"
   inkscape:version="0.48.5 r10040"
   width="540"
   height="1000"
   sodipodi:docname="frac14.svg">
  <metadata
     id="metadata5208">
    <rdf:RDF>
      <cc:Work
         rdf:about="">
        <dc:format>image/svg+xml</dc:format>
        <dc:type
           rdf:resource="http://purl.org/dc/dcmitype/StillImage" />
        <dc:title />
      </cc:Work>
    </rdf:RDF>
  </metadata>
  <defs
     id="defs5206" />
  <sodipodi:namedview
     pagecolor="#ffffff"
     bordercolor="#666666"
     borderopacity="1"
     objecttolerance="10"
     gridtolerance="10"
     guidetolerance="10"
     inkscape:pageopacity="0"
     inkscape:pageshadow="2"
     inkscape:window-width="1057"
     inkscape:window-height="863"
     id="namedview5204"
     showgrid="false"
     inkscape:zoom="2.1261261"
     inkscape:cx="30"
     inkscape:cy="55.499999"
     inkscape:window-x="0"
     inkscape:window-y="0"
     inkscape:window-maximized="0"
     inkscape:current-layer="svg5202" />
  <path
     style="fill:#000000"
     d="m 282.09375,32.49998 c -2.23519,0.5933 -4.64428,2.00432 -7.3125,4.21875 -6.52892,5.41852 -33.70349,17.67404 -60.1875,27 -51.02739,17.96855 -67.73732,33.92504 -59.0625,56.53125 4.74424,12.36332 9.63437,12.43721 46.96875,-0.84375 40.11496,-14.2701 42.21859,-14.24636 54.5625,2.53125 7.0694,9.60859 12.9375,36.5072 12.9375,59.90625 0,23.39907 2.49272,49.49368 5.625,57.65625 11.3405,29.5529 19.31212,-1.82612 23.34375,-91.40625 3.76024,-83.55028 -1.22873,-119.74684 -16.875,-115.59375 z M 280.125,334.84373 c -6.33705,0.66506 -12.80156,5.20296 -19.6875,13.5 -8.91932,10.74713 -21.10695,12.93438 -49.21875,8.71875 -20.51797,-3.07685 -48.33663,-1.49103 -61.875,3.65625 -34.74928,13.21166 -27.71357,39.25075 12.65625,46.40625 17.2688,3.06088 32.63476,6.0984 34.03125,6.75 1.39648,0.65162 16.38817,-4.67578 33.46875,-11.8125 22.19746,-9.27465 55.43617,-11.8682 116.4375,-9.28125 54.81497,2.32459 87.57581,0.0103 91.40625,-6.1875 10.82464,-17.51463 -18.19284,-26.71419 -71.15625,-22.5 -44.31587,3.52613 -53.60401,1.65753 -62.71875,-12.9375 -7.34955,-11.76851 -15.19611,-17.16757 -23.34375,-16.3125 z m -118.40625,102.9375 c -29.47905,-0.22645 -55.65407,0.89447 -73.125,3.65625 -55.869491,8.83178 -70.101805,21.16932 -50.0625,43.3125 12.176244,13.45462 26.922245,15.87339 89.15625,14.0625 134.30236,-3.90796 192.14404,-8.15827 203.0625,-14.90625 5.9061,-3.65017 19.34197,-2.35938 29.53125,3.09375 10.18928,5.45314 27.29947,7.15101 38.25,3.65625 10.95052,-3.49474 35.15625,-5.77242 53.71875,-5.0625 34.49204,1.3191 46.38812,-13.15156 18,-21.9375 -8.6625,-2.68098 -21.825,-8.24141 -29.25,-12.09375 -7.425,-3.85234 -31.725,-4.27691 -54,-1.125 -22.275,3.15192 -57.27954,2.81824 -77.90625,-0.84375 -40.17912,-7.13323 -98.24325,-11.43509 -147.375,-11.8125 z m 168.1875,115.875 c -14.75114,1.97029 -85.76456,48.37246 -118.96875,78.46875 -10.21903,9.26254 -25.29945,16.875 -33.46875,16.875 -8.16931,0 -18.67366,7.02385 -23.34375,15.75 -4.6701,8.72615 -23.00218,31.49245 -40.78125,50.34375 -61.805966,65.53343 -39.49316,90.75342 82.125,92.81251 46.64751,0.78977 87.51631,4.26631 90.84375,7.59375 9.79485,9.79485 -26.62832,31.5 -52.875,31.5 -53.14259,0 -60.59761,55.52433 -8.4375,63 76.864,11.01626 181.61619,8.63613 207.5625,-4.78125 45.36922,-23.4613 30.94139,-58.21875 -24.1875,-58.21875 -25.30868,0 -39.22645,-25.00603 -20.53125,-36.84375 6.9088,-4.37462 25.54838,-8.08065 41.34375,-8.15625 15.79537,-0.0758 31.59064,-4.63697 35.15625,-10.40625 9.93641,-16.07747 -41.77681,-53.87561 -65.8125,-48.09375 -28.50073,6.85594 -47.7388,-35.6187 -54,-118.40626 -2.77601,-36.70508 -8.34548,-68.66587 -12.375,-71.15625 -0.4557,-0.28163 -1.26659,-0.4126 -2.25,-0.28125 z M 297,618.34373 c 3.92955,-0.65422 7.06671,0.4207 8.71875,3.09375 8.30479,13.43743 1.44945,88.38669 -10.125,110.81251 -8.9158,17.27459 -35.93828,19.34639 -70.3125,5.625 -30.82631,-12.30515 -30.53162,-11.09571 -6.1875,-46.96876 25.82135,-38.0499 60.87819,-69.72756 77.90625,-72.5625 z"
     id="path5212"
     inkscape:connector-curvature="0" />
</svg>
