<?xml version="1.0" encoding="UTF-8" standalone="no"?>
<!-- Created with Inkscape (http://www.inkscape.org/) -->

<svg
   xmlns:dc="http://purl.org/dc/elements/1.1/"
   xmlns:cc="http://creativecommons.org/ns#"
   xmlns:rdf="http://www.w3.org/1999/02/22-rdf-syntax-ns#"
   xmlns:svg="http://www.w3.org/2000/svg"
   xmlns="http://www.w3.org/2000/svg"
   xmlns:sodipodi="http://sodipodi.sourceforge.net/DTD/sodipodi-0.dtd"
   xmlns:inkscape="http://www.inkscape.org/namespaces/inkscape"
   id="svg3496"
   version="1.1"
   inkscape:version="0.48.5 r10040"
   width="540"
   height="1000"
   sodipodi:docname="G.svg">
  <metadata
     id="metadata3502">
    <rdf:RDF>
      <cc:Work
         rdf:about="">
        <dc:format>image/svg+xml</dc:format>
        <dc:type
           rdf:resource="http://purl.org/dc/dcmitype/StillImage" />
        <dc:title />
      </cc:Work>
    </rdf:RDF>
  </metadata>
  <defs
     id="defs3500" />
  <sodipodi:namedview
     pagecolor="#ffffff"
     bordercolor="#666666"
     borderopacity="1"
     objecttolerance="10"
     gridtolerance="10"
     guidetolerance="10"
     inkscape:pageopacity="0"
     inkscape:pageshadow="2"
     inkscape:window-width="1099"
     inkscape:window-height="779"
     id="namedview3498"
     showgrid="false"
     inkscape:zoom="2.1261261"
     inkscape:cx="30"
     inkscape:cy="55.499999"
     inkscape:window-x="0"
     inkscape:window-y="0"
     inkscape:window-maximized="0"
     inkscape:current-layer="svg3496" />
  <path
     style="fill:#000000"
     d="m 278.4375,146.6875 c -8.17083,0.2437 -17.51933,0.98647 -28.6875,2.25 -69.32306,7.84302 -93.66742,19.42214 -137.25,65.25 -83.043164,87.32139 -81,81.69693 -81,224.4375 0,120.23216 1.211537,129.07559 20.25,149.34375 11.1375,11.85688 20.25,30.35815 20.25,41.0625 0,11.41369 10.235448,26.20121 24.75,35.4375 13.6125,8.66228 26.775,18.03107 29.25,21.09375 2.475,3.06268 16.65,12.02343 31.5,19.6875 34.55926,17.83599 128.23922,19.55017 167.625,3.09375 26.01385,-10.86929 32.89315,-10.98489 47.53125,-0.28125 15.157,11.08307 54.44281,9.64455 68.34375,-2.53125 2.475,-2.16785 6.525,-42.87358 9,-90.5625 l 4.5,-86.90625 30.375,-5.90625 c 16.63502,-3.38368 36.54772,-12.64146 44.4375,-20.53125 23.47234,-23.47233 -8.00333,-38.87431 -82.96875,-40.21875 -35.10466,-0.62957 -74.23065,-3.42306 -86.90625,-6.1875 -16.27426,-3.54928 -27.9001,0.50961 -39.65625,13.5 -9.15654,10.11787 -14.96965,19.80235 -12.9375,21.375 2.03216,1.57265 16.91519,11.82183 33.1875,23.0625 23.10434,15.96012 28.40006,24.78931 23.90625,39.9375 C 347.28811,609.21719 284.26859,667 239.625,667 228.3816,667 200.32534,654.57708 177.46875,639.4375 135.23492,611.46297 124.4333,589.74402 99,481.65625 83.986895,417.85276 114.54431,295.37468 158.625,242.3125 c 46.55435,-56.03984 69.25095,-66.20632 113.90625,-51.46875 48.42047,15.9802 101.87179,55.81312 118.96875,88.875 C 400.10049,296.35028 412.43488,307 423.5625,307 c 15.48594,0 18.22644,-5.67459 17.71875,-38.25 -0.32785,-21.0375 1.93428,-51.46952 5.0625,-67.5 6.7659,-34.67155 -12.4938,-47.07856 -45.28125,-29.53125 -17.40058,9.31251 -26.54703,7.73163 -59.34375,-9 C 317.23686,150.22903 302.95001,145.9564 278.4375,146.6875 z"
     id="path3506"
     inkscape:connector-curvature="0" />
</svg>
