<?xml version="1.0" encoding="UTF-8" standalone="no"?>
<!-- Created with Inkscape (http://www.inkscape.org/) -->

<svg
   xmlns:dc="http://purl.org/dc/elements/1.1/"
   xmlns:cc="http://creativecommons.org/ns#"
   xmlns:rdf="http://www.w3.org/1999/02/22-rdf-syntax-ns#"
   xmlns:svg="http://www.w3.org/2000/svg"
   xmlns="http://www.w3.org/2000/svg"
   xmlns:sodipodi="http://sodipodi.sourceforge.net/DTD/sodipodi-0.dtd"
   xmlns:inkscape="http://www.inkscape.org/namespaces/inkscape"
   id="svg3573"
   version="1.1"
   inkscape:version="0.48.5 r10040"
   width="540"
   height="1000"
   sodipodi:docname="H.svg">
  <metadata
     id="metadata3579">
    <rdf:RDF>
      <cc:Work
         rdf:about="">
        <dc:format>image/svg+xml</dc:format>
        <dc:type
           rdf:resource="http://purl.org/dc/dcmitype/StillImage" />
        <dc:title />
      </cc:Work>
    </rdf:RDF>
  </metadata>
  <defs
     id="defs3577" />
  <sodipodi:namedview
     pagecolor="#ffffff"
     bordercolor="#666666"
     borderopacity="1"
     objecttolerance="10"
     gridtolerance="10"
     guidetolerance="10"
     inkscape:pageopacity="0"
     inkscape:pageshadow="2"
     inkscape:window-width="1109"
     inkscape:window-height="798"
     id="namedview3575"
     showgrid="false"
     inkscape:zoom="2.1261261"
     inkscape:cx="30"
     inkscape:cy="55.499999"
     inkscape:window-x="0"
     inkscape:window-y="0"
     inkscape:window-maximized="0"
     inkscape:current-layer="svg3573" />
  <path
     style="fill:#000000"
     d="M 106.3125,136.5625 C 50.93737,138.28502 0,150.16965 0,167.21875 c 0,5.3409 20.061164,17.5406 44.4375,27 37.163149,14.42139 44.921284,21.63266 48.9375,44.71875 5.135913,29.52231 -0.416178,323.36476 -7.03125,371.53125 C 80.824953,650.65287 76.19197,656.08319 36,668.125 8.3028701,676.42326 1.0321991,682.79771 2.53125,697.65625 3.5815031,708.06633 12.6,719.18717 22.5,722.40625 c 29.637848,9.63704 184.31227,8.34732 203.0625,-1.6875 C 235.13709,715.59459 243,706.10865 243,699.625 243,680.55962 208.10035,654.23155 181.96875,653.78125 L 157.78125,653.5 156.375,563.5 c -0.78205,-49.5 2.13263,-97.0875 6.75,-105.75 7.30114,-13.69744 23.08644,-15.75 119.8125,-15.75 81.08092,0 112.15913,3.04862 114.75,11.25 3.23215,10.23137 2.94446,50.93072 -0.5625,157.21875 C 395.92838,646.73583 393.83694,649.79288 351,671.5 326.25,684.04177 306,697.43588 306,701.3125 306,722.948 333.16257,730 416.53125,730 508.90097,730 540,721.70928 540,696.8125 c 0,-8.07584 -2.63774,-12.26851 -5.90625,-9 -3.26851,3.26851 -11.65033,-1.94399 -18.5625,-11.8125 -6.91217,-9.86852 -20.28749,-18 -29.8125,-18 -25.91855,0 -29.34426,-26.77903 -30.375,-246.375 L 454.5,213.0625 494.15625,199.28125 C 573.01215,171.8636 541.36937,143.78543 428.34375,141.0625 359.06225,139.39341 306,152.44556 306,170.875 c 0,8.53538 40.44488,28.125 57.9375,28.125 6.58599,0 16.69867,5.88971 22.78125,13.21875 14.50286,17.47489 19.73598,100.55566 8.4375,136.6875 -8.00369,25.59528 -13.42466,29.09861 -51.46875,33.1875 -79.30207,8.52321 -158.51416,5.48524 -177.1875,-6.75 -16.19909,-10.6138 -18.25815,-20.11189 -16.3125,-82.125 2.39459,-76.32239 6.49051,-84.01942 50.0625,-98.15625 42.6832,-13.84847 42.90026,-37.7433 0.5625,-49.5 -26.5173,-7.36354 -61.27493,-10.03351 -94.5,-9 z"
     id="path3583"
     inkscape:connector-curvature="0" />
</svg>
