<?xml version="1.0" encoding="UTF-8" standalone="no"?>
<!-- Created with Inkscape (http://www.inkscape.org/) -->

<svg
   xmlns:dc="http://purl.org/dc/elements/1.1/"
   xmlns:cc="http://creativecommons.org/ns#"
   xmlns:rdf="http://www.w3.org/1999/02/22-rdf-syntax-ns#"
   xmlns:svg="http://www.w3.org/2000/svg"
   xmlns="http://www.w3.org/2000/svg"
   xmlns:sodipodi="http://sodipodi.sourceforge.net/DTD/sodipodi-0.dtd"
   xmlns:inkscape="http://www.inkscape.org/namespaces/inkscape"
   id="svg5347"
   version="1.1"
   inkscape:version="0.48.5 r10040"
   width="540"
   height="1000"
   sodipodi:docname="hash.svg">
  <metadata
     id="metadata5353">
    <rdf:RDF>
      <cc:Work
         rdf:about="">
        <dc:format>image/svg+xml</dc:format>
        <dc:type
           rdf:resource="http://purl.org/dc/dcmitype/StillImage" />
        <dc:title />
      </cc:Work>
    </rdf:RDF>
  </metadata>
  <defs
     id="defs5351" />
  <sodipodi:namedview
     pagecolor="#ffffff"
     bordercolor="#666666"
     borderopacity="1"
     objecttolerance="10"
     gridtolerance="10"
     guidetolerance="10"
     inkscape:pageopacity="0"
     inkscape:pageshadow="2"
     inkscape:window-width="919"
     inkscape:window-height="722"
     id="namedview5349"
     showgrid="false"
     inkscape:zoom="2.1261261"
     inkscape:cx="30"
     inkscape:cy="55.499999"
     inkscape:window-x="0"
     inkscape:window-y="0"
     inkscape:window-maximized="0"
     inkscape:current-layer="svg5347" />
  <path
     style="fill:#000000"
     d="m 208.00359,913.28993 c -18.90625,-13.24243 -20.40285,-19.22296 -15.00091,-59.94478 3.30033,-24.87913 11.84986,-53.58576 18.99896,-63.79253 7.14909,-10.20676 12.99835,-25.95223 12.99835,-34.98994 0,-9.03771 8.32543,-33.44907 18.50094,-54.24745 10.17551,-20.79839 20.86464,-57.05275 23.75361,-80.56525 l 5.25269,-42.75 -44.45362,0 c -48.4729,0 -66.05362,10.96519 -66.05362,41.198 0,10.7789 -5.88539,24.48245 -13.07866,30.45233 -7.19326,5.96988 -12.8789,21.65328 -12.63475,34.85199 0.69372,37.50129 -25.46827,150.03057 -45.308136,194.88189 -28.337133,64.06079 -73.678482,49.27541 -59.397137,-19.36883 9.755749,-46.89165 25.470533,-97.42567 32.983616,-106.06538 4.089292,-4.7025 7.612843,-16.8525 7.830112,-27 0.217269,-10.1475 6.644012,-34.65 14.28165,-54.45 15.197445,-39.39824 16.793555,-88.26438 3.037643,-92.99999 -17.398726,-5.9897 -8.042969,-31.83368 22.133482,-61.14068 16.9663,-16.47746 32.1538,-39.16158 33.75,-50.40917 5.03807,-35.50061 29.78642,-24.6814 30.83048,13.47813 0.51057,18.66057 3.51554,36.51554 6.67771,39.67773 3.16219,3.16217 26.85385,6.11945 52.64815,6.5717 43.65893,0.76545 48.32686,-1.29027 67.57228,-29.75866 12.53129,-18.53666 20.67356,-43.98882 20.67356,-64.62405 0,-28.4276 -3.34028,-34.53096 -20.25,-37.00076 -20.38479,-2.97736 -73.11825,11.074 -84.58195,22.53771 -8.3272,8.3272 -70.4507,7.86945 -78.98126,-0.58196 -3.74727,-3.7125 -15.55977,-6.75 -26.25,-6.75 -24.687976,0 -26.086749,-26.80352 -1.43678,-27.53183 40.16096,-1.18659 66.39288,-20.68458 77.44155,-57.56176 14.37959,-47.9948 33.21854,-47.35754 36.79096,1.24453 2.44603,33.27765 5.90363,38.49158 29.76748,44.88827 65.52654,17.56433 100.62643,-19.01256 125.89232,-131.18983 12.17281,-54.04572 30.46681,-85.04035 50.79714,-86.06315 3.1292,-0.15741 0.26946,14.90127 -6.35496,33.46377 -6.62443,18.5625 -12.22219,61.15302 -12.43946,94.64561 -0.39078,60.23819 -0.0792,61.03268 28.85496,73.59299 16.0875,6.98355 36.63683,15.00578 45.66517,17.82717 28.79718,8.99922 12.75018,34.08054 -29.91517,46.75712 -22.275,6.61827 -47.55471,9.83433 -56.17714,7.14679 -22.59504,-7.04265 -37.79339,29.66526 -25.58131,61.78543 7.49112,19.70314 15.07847,24.53404 38.7857,24.69502 35.61694,0.24183 74.98034,27.76887 67.51791,47.21563 -4.79252,12.48914 -62.96037,26.16695 -120.54833,28.3462 -10.72675,0.4059 -22.52067,3.75697 -26.20873,7.44677 -3.68805,3.6898 -9.47187,41.53811 -12.85291,84.10737 -3.38105,42.56925 -10.57126,80.13275 -15.97823,83.47444 -16.49998,10.19755 -31.07296,57.62315 -29.93308,97.4127 0.84591,29.52762 -3.26853,40.74913 -18.97443,51.75001 -24.79453,17.36676 -25.314,17.36001 -51.04585,-0.6633 z M 49.5,567.99998 c -3.059268,-4.95 -1.273287,-9 3.968847,-9 5.242134,0 9.531153,4.05 9.531153,9 0,4.95 -1.785982,9 -3.968847,9 -2.182866,0 -6.471885,-4.05 -9.531153,-9 z M 54,387.46883 c 0,-5.24213 4.05,-7.02812 9,-3.96885 4.95,3.05927 9,7.34829 9,9.53116 0,2.18286 -4.05,3.96884 -9,3.96884 -4.95,0 -9,-4.28902 -9,-9.53115 z M 426.58156,123.35196 c -6.31936,-16.46799 12.2857,-68.35198 24.51031,-68.35198 13.34222,0 8.75856,60.09019 -5.48538,71.91161 -10.85465,9.00856 -14.46098,8.33381 -19.02493,-3.55963 z"
     id="path5357"
     inkscape:connector-curvature="0" />
</svg>
