<?xml version="1.0" encoding="UTF-8" standalone="no"?>
<!-- Created with Inkscape (http://www.inkscape.org/) -->

<svg
   xmlns:dc="http://purl.org/dc/elements/1.1/"
   xmlns:cc="http://creativecommons.org/ns#"
   xmlns:rdf="http://www.w3.org/1999/02/22-rdf-syntax-ns#"
   xmlns:svg="http://www.w3.org/2000/svg"
   xmlns="http://www.w3.org/2000/svg"
   xmlns:sodipodi="http://sodipodi.sourceforge.net/DTD/sodipodi-0.dtd"
   xmlns:inkscape="http://www.inkscape.org/namespaces/inkscape"
   id="svg3631"
   version="1.1"
   inkscape:version="0.48.5 r10040"
   width="540"
   height="1000"
   sodipodi:docname="I.svg">
  <metadata
     id="metadata3637">
    <rdf:RDF>
      <cc:Work
         rdf:about="">
        <dc:format>image/svg+xml</dc:format>
        <dc:type
           rdf:resource="http://purl.org/dc/dcmitype/StillImage" />
        <dc:title />
      </cc:Work>
    </rdf:RDF>
  </metadata>
  <defs
     id="defs3635" />
  <sodipodi:namedview
     pagecolor="#ffffff"
     bordercolor="#666666"
     borderopacity="1"
     objecttolerance="10"
     gridtolerance="10"
     guidetolerance="10"
     inkscape:pageopacity="0"
     inkscape:pageshadow="2"
     inkscape:window-width="1072"
     inkscape:window-height="792"
     id="namedview3633"
     showgrid="false"
     inkscape:zoom="2.1261261"
     inkscape:cx="30"
     inkscape:cy="55.499999"
     inkscape:window-x="0"
     inkscape:window-y="0"
     inkscape:window-maximized="0"
     inkscape:current-layer="svg3631" />
  <path
     style="fill:#000000"
     d="m 58.46889,762.59018 c -11.745482,-8.58851 -14.503785,-18.24161 -10.158954,-35.55279 6.629187,-26.41279 21.258251,-32.03372 94.199554,-36.19435 26.40522,-1.50617 51.14016,-7.80402 54.96653,-13.99523 6.56729,-10.6261 20.00895,-282.53246 18.277,-369.71869 -1.16145,-58.46738 -17.36443,-72.12913 -85.54591,-72.12913 -65.00686,0 -90.348369,-16.71588 -64.511122,-42.55313 C 78.134302,180.00855 102.46079,177.97493 226.84846,178.97504 393.16362,180.31226 441,185.91563 441,204.05996 c 0,20.79523 -53.019,42.44166 -91.35795,37.29933 -25.97637,-3.48416 -40.18431,-0.0903 -57.87394,13.82435 l -23.44544,18.44219 7.19319,126.93708 c 3.95626,69.8154 6.1106,152.83695 4.78744,184.49235 -2.18368,52.24239 10.19489,107.63144 24.53858,109.80027 3.11197,0.47052 28.80224,1.48304 57.0895,2.25 60.71545,1.64619 86.83915,19.55846 71.1846,48.80923 -13.45527,25.14143 -30.30084,27.44606 -204.56996,27.98704 -113.34878,0.3519 -158.206442,-2.63156 -170.07713,-11.31162 z"
     id="path3641"
     inkscape:connector-curvature="0" />
</svg>
