<?xml version="1.0" encoding="UTF-8" standalone="no"?>
<!-- Created with Inkscape (http://www.inkscape.org/) -->

<svg
   xmlns:dc="http://purl.org/dc/elements/1.1/"
   xmlns:cc="http://creativecommons.org/ns#"
   xmlns:rdf="http://www.w3.org/1999/02/22-rdf-syntax-ns#"
   xmlns:svg="http://www.w3.org/2000/svg"
   xmlns="http://www.w3.org/2000/svg"
   xmlns:sodipodi="http://sodipodi.sourceforge.net/DTD/sodipodi-0.dtd"
   xmlns:inkscape="http://www.inkscape.org/namespaces/inkscape"
   id="svg3747"
   version="1.1"
   inkscape:version="0.48.5 r10040"
   width="540"
   height="1000"
   sodipodi:docname="K.svg">
  <metadata
     id="metadata3753">
    <rdf:RDF>
      <cc:Work
         rdf:about="">
        <dc:format>image/svg+xml</dc:format>
        <dc:type
           rdf:resource="http://purl.org/dc/dcmitype/StillImage" />
        <dc:title />
      </cc:Work>
    </rdf:RDF>
  </metadata>
  <defs
     id="defs3751" />
  <sodipodi:namedview
     pagecolor="#ffffff"
     bordercolor="#666666"
     borderopacity="1"
     objecttolerance="10"
     gridtolerance="10"
     guidetolerance="10"
     inkscape:pageopacity="0"
     inkscape:pageshadow="2"
     inkscape:window-width="1087"
     inkscape:window-height="809"
     id="namedview3749"
     showgrid="false"
     inkscape:zoom="2.1261261"
     inkscape:cx="30"
     inkscape:cy="55.499999"
     inkscape:window-x="0"
     inkscape:window-y="0"
     inkscape:window-maximized="0"
     inkscape:current-layer="svg3747" />
  <path
     style="fill:#000000"
     d="M 94.499999,722.79263 C 40.280062,711.55832 40.60076,674.95467 95.157809,647.70754 117.79463,636.40217 139.03281,622.95555 142.35377,617.82616 145.67476,612.69677 151.04025,549.775 154.2771,478 c 3.23685,-71.775 8.92523,-165.9375 12.64083,-209.25 6.23983,-72.73716 5.4998,-78.75 -9.69216,-78.75 -23.26693,0 -76.225771,-20.1695 -76.225771,-29.03075 0,-23.15847 113.439641,-30.58506 164.994161,-10.80173 21.37245,8.20138 18.69571,15.16764 -12.69224,33.03186 l -27.58426,15.6994 3.81607,79.16632 c 2.09884,43.54147 8.6623,88.22156 14.58546,99.2891 l 10.76939,20.12277 39.53091,-32.39261 C 327.43772,321.6399 414,222.16568 414,204.68351 c 0,-7.72761 -9.1125,-18.94199 -20.25,-24.92084 l -20.25,-10.87063 27,-11.11593 c 30.63769,-12.61356 118.79927,-10.07684 132.6942,3.81809 13.39774,13.39774 1.24439,38.16039 -15.56338,31.71063 C 498.84873,186.09747 342.39889,340.07925 342.16613,366.00148 342.07473,376.1773 352.125,398.22663 364.5,415 c 12.375,16.77337 22.61267,34.7727 22.75038,39.99852 0.1377,5.22581 12.28771,25.41045 27,44.85473 14.71229,19.44429 26.74962,40.01244 26.74962,45.707 0,15.50347 55.23716,96.56944 78.59301,115.34297 24.42329,19.63154 27.19558,57.1204 4.65699,62.97501 -13.82799,3.59196 -69.43685,3.04275 -148.5,-1.46662 -32.13769,-1.83297 -33.28999,-29.38762 -2.25,-53.80367 27.02487,-21.25777 28.34635,-40.11883 5.0984,-72.76756 -9.57088,-13.44106 -20.32097,-36.07005 -23.88911,-50.28663 -3.56814,-14.21659 -14.97492,-38.77937 -25.3484,-54.58395 -10.37349,-15.80458 -23.31892,-36.2729 -28.76763,-45.48516 -9.12871,-15.43415 -12.83947,-13.69717 -47.25,22.11729 C 218.20558,504.17321 216,509.58977 216,559.31091 216,623.96406 229.87264,658 256.22446,658 c 10.63437,0 27.19678,5.84143 36.80537,12.98095 17.26773,12.83053 17.26159,13.19244 -0.52983,31.23225 -14.87658,15.08428 -32.05539,18.77688 -99,21.28015 -44.55,1.66587 -89.1,1.35054 -99.000001,-0.70074 z"
     id="path3757"
     inkscape:connector-curvature="0" />
</svg>
