<?xml version="1.0" encoding="UTF-8" standalone="no"?>
<!-- Created with Inkscape (http://www.inkscape.org/) -->

<svg
   xmlns:dc="http://purl.org/dc/elements/1.1/"
   xmlns:cc="http://creativecommons.org/ns#"
   xmlns:rdf="http://www.w3.org/1999/02/22-rdf-syntax-ns#"
   xmlns:svg="http://www.w3.org/2000/svg"
   xmlns="http://www.w3.org/2000/svg"
   xmlns:sodipodi="http://sodipodi.sourceforge.net/DTD/sodipodi-0.dtd"
   xmlns:inkscape="http://www.inkscape.org/namespaces/inkscape"
   id="svg3860"
   version="1.1"
   inkscape:version="0.48.5 r10040"
   width="540"
   height="1000"
   sodipodi:docname="M.svg">
  <metadata
     id="metadata3866">
    <rdf:RDF>
      <cc:Work
         rdf:about="">
        <dc:format>image/svg+xml</dc:format>
        <dc:type
           rdf:resource="http://purl.org/dc/dcmitype/StillImage" />
        <dc:title />
      </cc:Work>
    </rdf:RDF>
  </metadata>
  <defs
     id="defs3864" />
  <sodipodi:namedview
     pagecolor="#ffffff"
     bordercolor="#666666"
     borderopacity="1"
     objecttolerance="10"
     gridtolerance="10"
     guidetolerance="10"
     inkscape:pageopacity="0"
     inkscape:pageshadow="2"
     inkscape:window-width="996"
     inkscape:window-height="780"
     id="namedview3862"
     showgrid="false"
     inkscape:zoom="2.1261261"
     inkscape:cx="30"
     inkscape:cy="55.499999"
     inkscape:window-x="0"
     inkscape:window-y="0"
     inkscape:window-maximized="0"
     inkscape:current-layer="svg3860" />
  <path
     style="fill:#000000"
     d="m 405.00001,730.45884 c -37.6692,-9.66067 -29.134,-38.85938 15.48695,-52.98054 41.77417,-13.22023 42.47302,-14.88347 51.67227,-122.9783 7.3839,-86.76373 7.45879,-298.98282 0.10971,-310.87389 -10.64115,-17.21775 -40.7938,58.02293 -54.33337,135.57942 -6.61639,37.89957 -18.62607,86.7702 -26.68819,108.60139 -8.06211,21.83119 -20.47453,73.48136 -27.58313,114.77814 -7.10862,41.29678 -17.00895,82.71646 -22.00075,92.04373 -11.40012,21.3013 -41.92413,38.12653 -54.76779,30.18871 C 270.17719,714.4849 252.00942,660.2676 251.78529,620.03907 251.6672,598.84258 247.17139,565.3 241.7946,545.5 c -5.3768,-19.8 -11.61369,-65.64335 -13.85977,-101.87411 -3.92096,-63.24787 -3.37925,-65.49705 13.58768,-56.41662 13.37592,7.15857 19.22925,23.1711 24.08007,65.8741 6.42873,56.59361 28.27615,108.45705 43.54364,103.36789 8.8962,-2.9654 24.39333,-42.04805 41.81374,-105.45126 6.12018,-22.275 14.23821,-50.625 18.04005,-63 3.80183,-12.375 11.92709,-40.725 18.05614,-63 25.27139,-91.84473 46.58343,-152.15034 56.70096,-160.44393 8.99717,-7.3752 63.07283,-8.39595 78.2429,-1.47693 2.475,1.12884 7.5375,1.57283 11.25,0.98665 11.10078,-1.75275 7.62372,42.14296 -3.6355,45.89604 -7.33949,2.44649 -11.33234,66.67784 -13.61382,219 -3.22045,215.01107 0.0906,269.75223 15.73166,260.08555 4.54721,-2.81032 8.26766,7.23127 8.26766,22.31465 l 0,27.42434 -56.25,-1.27858 c -30.9375,-0.70321 -66.375,-3.87525 -78.75,-7.04895 z M 123.1748,719.59782 c -8.52496,-4.7708 -22.51427,-7.96563 -31.087358,-7.09962 -8.573094,0.86602 -30.774942,1.1082 -49.337442,0.53819 -43.4448766,-1.3341 -45.516063,-24.0387 -3.783543,-41.47566 16.481551,-6.88643 34.231778,-17.81727 39.444949,-24.29076 5.347241,-6.63996 11.841449,-82.37853 14.899919,-173.76997 2.98179,-89.1 8.036465,-177.1875 11.232635,-195.75 5.78884,-33.62007 18.07754,-44.02644 26.39487,-22.35181 7.02127,18.29714 12.19782,127.35465 12.48846,263.10181 0.14841,69.3 3.72063,131.23429 7.93833,137.63176 4.21772,6.39747 19.47338,14.87107 33.90148,18.83022 19.16467,5.2589 25.39612,11.82472 23.12728,24.36824 -3.76484,20.81436 0.42777,18.14936 -37.80702,24.03191 -17.55196,2.70043 -38.88761,1.00649 -47.41256,-3.76431 z M 198.00001,280 c 0,-11.6 4.55769,-17.98077 11.25,-15.75 6.1875,2.0625 11.25,9.15 11.25,15.75 0,6.59999 -5.0625,13.68749 -11.25,15.75 -6.69231,2.23076 -11.25,-4.15 -11.25,-15.75 z M 109.40332,214.75 C 103.24514,208.5625 85.222643,199.08866 69.353318,193.69702 50.369316,187.24717 40.5,178.01178 40.5,166.69702 c 0,-15.27419 7.044153,-17.21741 63,-17.37933 45.73388,-0.1323 66.0048,3.56755 73.96378,13.5 16.11196,20.10702 14.52313,23.86823 -18.77608,44.44828 -35.66436,22.04178 -34.90968,21.92718 -49.28438,7.48403 z"
     id="path3870"
     inkscape:connector-curvature="0" />
</svg>
