<?xml version="1.0" encoding="UTF-8" standalone="no"?>
<!-- Created with Inkscape (http://www.inkscape.org/) -->

<svg
   xmlns:dc="http://purl.org/dc/elements/1.1/"
   xmlns:cc="http://creativecommons.org/ns#"
   xmlns:rdf="http://www.w3.org/1999/02/22-rdf-syntax-ns#"
   xmlns:svg="http://www.w3.org/2000/svg"
   xmlns="http://www.w3.org/2000/svg"
   xmlns:sodipodi="http://sodipodi.sourceforge.net/DTD/sodipodi-0.dtd"
   xmlns:inkscape="http://www.inkscape.org/namespaces/inkscape"
   id="svg3915"
   version="1.1"
   inkscape:version="0.48.5 r10040"
   width="540"
   height="1000"
   sodipodi:docname="N.svg">
  <metadata
     id="metadata3921">
    <rdf:RDF>
      <cc:Work
         rdf:about="">
        <dc:format>image/svg+xml</dc:format>
        <dc:type
           rdf:resource="http://purl.org/dc/dcmitype/StillImage" />
        <dc:title />
      </cc:Work>
    </rdf:RDF>
  </metadata>
  <defs
     id="defs3919" />
  <sodipodi:namedview
     pagecolor="#ffffff"
     bordercolor="#666666"
     borderopacity="1"
     objecttolerance="10"
     gridtolerance="10"
     guidetolerance="10"
     inkscape:pageopacity="0"
     inkscape:pageshadow="2"
     inkscape:window-width="1014"
     inkscape:window-height="811"
     id="namedview3917"
     showgrid="false"
     inkscape:zoom="2.1261261"
     inkscape:cx="30"
     inkscape:cy="55.499999"
     inkscape:window-x="0"
     inkscape:window-y="0"
     inkscape:window-maximized="0"
     inkscape:current-layer="svg3915" />
  <path
     style="fill:#000000"
     d="m 10.582352,722.1684 c -7.167347,-4.54421 -10.7546912,-19.73549 -8.9999997,-38.11219 2.277361,-23.85056 7.4102253,-31.19373 23.3893507,-33.46122 43.612434,-6.18877 47.5432,-27.66347 44.938536,-245.5098 L 67.5,203.5 45,200.38764 C 15.919763,196.36504 0,182.93638 0,162.42915 0,138.75823 11.385668,134.69139 78.743539,134.3028 c 57.577061,-0.33219 61.410081,1.00718 85.514831,29.88078 13.87975,16.62569 29.55145,46.44831 34.82601,66.27247 5.27456,19.82418 15.18172,42.32002 22.01589,49.99076 6.83419,7.67076 18.66164,31.6211 26.28323,53.223 7.62159,21.6019 18.16944,44.47181 23.43966,50.82203 10.19222,12.28087 43.08111,70.83741 65.5596,116.72461 15.241,31.11274 39.2107,54.19008 47.58617,45.81462 9.6229,-9.6229 9.42153,-315.2975 -0.22221,-337.29343 -7.46018,-17.01558 -14.89059,-20.26386 -41.17481,-18 -28.81637,2.48195 -32.07191,0.51589 -32.07191,-19.36869 0,-27.25804 23.2017,-33.22962 126,-32.42942 71.69744,0.55809 72.01197,0.66447 74.8478,25.31047 2.52237,21.92175 -0.10935,24.75 -23.02983,24.75 -14.2327,0 -33.1002,5.28127 -41.92778,11.73615 -15.12954,11.06299 -15.49222,25.2477 -6.32314,247.30253 11.01142,266.67233 8.6195,283.8087 -38.96548,279.1586 -29.26917,-2.86025 -23.3153,7.01957 -134.25238,-222.77756 -10.64205,-22.04415 -19.78248,-46.34415 -20.31205,-54 -0.52956,-7.65585 -9.64208,-30.05975 -20.25,-49.78644 C 215.67921,381.90658 207,360.93435 207,355.02832 c 0,-5.90604 -15.02749,-35.96498 -33.39442,-66.79766 l -33.39443,-56.05942 -8.16177,30.66438 c -9.83172,36.93847 5.16413,373.37789 17.17775,385.39151 2.25894,2.25895 21.24445,6.39446 42.19003,9.19002 49.79656,6.64625 52.92713,33.66729 6.58284,56.81886 -33.71773,16.8439 -164.623181,22.38442 -187.417648,7.93239 z"
     id="path3925"
     inkscape:connector-curvature="0" />
</svg>
