<?xml version="1.0" encoding="UTF-8" standalone="no"?>
<!-- Created with Inkscape (http://www.inkscape.org/) -->

<svg
   xmlns:dc="http://purl.org/dc/elements/1.1/"
   xmlns:cc="http://creativecommons.org/ns#"
   xmlns:rdf="http://www.w3.org/1999/02/22-rdf-syntax-ns#"
   xmlns:svg="http://www.w3.org/2000/svg"
   xmlns="http://www.w3.org/2000/svg"
   xmlns:sodipodi="http://sodipodi.sourceforge.net/DTD/sodipodi-0.dtd"
   xmlns:inkscape="http://www.inkscape.org/namespaces/inkscape"
   id="svg4025"
   version="1.1"
   inkscape:version="0.48.5 r10040"
   width="540"
   height="1000"
   sodipodi:docname="P.svg">
  <metadata
     id="metadata4031">
    <rdf:RDF>
      <cc:Work
         rdf:about="">
        <dc:format>image/svg+xml</dc:format>
        <dc:type
           rdf:resource="http://purl.org/dc/dcmitype/StillImage" />
        <dc:title />
      </cc:Work>
    </rdf:RDF>
  </metadata>
  <defs
     id="defs4029" />
  <sodipodi:namedview
     pagecolor="#ffffff"
     bordercolor="#666666"
     borderopacity="1"
     objecttolerance="10"
     gridtolerance="10"
     guidetolerance="10"
     inkscape:pageopacity="0"
     inkscape:pageshadow="2"
     inkscape:window-width="1035"
     inkscape:window-height="806"
     id="namedview4027"
     showgrid="false"
     inkscape:zoom="2.1261261"
     inkscape:cx="30"
     inkscape:cy="55.499999"
     inkscape:window-x="0"
     inkscape:window-y="0"
     inkscape:window-maximized="0"
     inkscape:current-layer="svg4025" />
  <path
     style="fill:#000000"
     d="M 28.597941,753.42269 C 5.723528,741.185 5.7959856,741.46309 17.880466,712.28859 27.667157,688.66142 33.781271,685 63.449026,685 82.294919,685 103.47232,679.24197 110.5099,672.20439 138.72885,643.98544 153.08066,411.66896 134.139,289.71413 123.36684,220.35823 120.79627,215.50258 95.890401,217.46478 62.137736,220.12396 54,217.36788 54,203.27724 54,181.70489 98.230977,170.314 161.99454,175.46519 c 32.178,2.59953 59.51796,4.90831 60.75546,5.13061 7.26266,1.30469 0.62187,27.4042 -6.97276,27.4042 -21.85939,0 -32.95861,80.43937 -28.22824,204.57853 1.2309,32.30241 4.78643,38.91567 23.43949,43.59729 12.09366,3.03532 26.62173,2.65525 32.28459,-0.84456 5.66286,-3.49985 40.66707,-7.47493 77.78712,-8.83353 62.67005,-2.29373 69.68567,-4.59734 98.2154,-32.24944 C 445.69946,388.63726 450,378.52043 450,341.97059 450,291.07444 443.38496,271 426.61337,271 c -6.85346,0 -17.51938,-8.1 -23.70203,-18 -6.18264,-9.9 -20.15295,-18 -31.04511,-18 -10.89216,0 -22.4776,-4.3261 -25.74543,-9.61356 -3.26783,-5.28746 -11.97233,-7.29932 -19.34334,-4.4708 -7.371,2.82852 -18.09883,2.09212 -23.83964,-1.63644 -5.7408,-3.72856 -18.18013,-6.7792 -27.64297,-6.7792 -9.46283,0 -19.02296,-5.39291 -21.24475,-11.98425 -2.53847,-7.53088 2.18277,-11.1974 12.70515,-9.86681 9.20962,1.16459 22.81975,-0.17953 30.24475,-2.98695 70.9179,-26.81419 135.77214,-1.48747 184.07544,71.88467 22.19159,33.70875 24.63538,44.51704 21.4338,94.79675 -4.47391,70.26143 -31.94201,110.54078 -97.31586,142.70446 -40.00101,19.68034 -52.26205,21.50088 -109.48196,16.25608 -35.43992,-3.24843 -71.46176,-4.06903 -80.04852,-1.82353 -19.38094,5.06822 -26.74809,51.60199 -18.88586,119.29029 l 5.72296,49.2707 54,9.2293 c 45.76288,7.82146 54.43841,12.316 56.87406,29.46478 2.15992,15.20746 -3.43078,22.66526 -22.5,30.01418 -31.25313,12.04439 -241.495911,15.79031 -262.276119,4.67302 z"
     id="path4035"
     inkscape:connector-curvature="0" />
</svg>
