<?xml version="1.0" encoding="UTF-8" standalone="no"?>
<!-- Created with Inkscape (http://www.inkscape.org/) -->

<svg
   xmlns:dc="http://purl.org/dc/elements/1.1/"
   xmlns:cc="http://creativecommons.org/ns#"
   xmlns:rdf="http://www.w3.org/1999/02/22-rdf-syntax-ns#"
   xmlns:svg="http://www.w3.org/2000/svg"
   xmlns="http://www.w3.org/2000/svg"
   xmlns:sodipodi="http://sodipodi.sourceforge.net/DTD/sodipodi-0.dtd"
   xmlns:inkscape="http://www.inkscape.org/namespaces/inkscape"
   id="svg5489"
   version="1.1"
   inkscape:version="0.48.5 r10040"
   width="540"
   height="1000"
   sodipodi:docname="percent.svg">
  <metadata
     id="metadata5495">
    <rdf:RDF>
      <cc:Work
         rdf:about="">
        <dc:format>image/svg+xml</dc:format>
        <dc:type
           rdf:resource="http://purl.org/dc/dcmitype/StillImage" />
        <dc:title />
      </cc:Work>
    </rdf:RDF>
  </metadata>
  <defs
     id="defs5493" />
  <sodipodi:namedview
     pagecolor="#ffffff"
     bordercolor="#666666"
     borderopacity="1"
     objecttolerance="10"
     gridtolerance="10"
     guidetolerance="10"
     inkscape:pageopacity="0"
     inkscape:pageshadow="2"
     inkscape:window-width="1097"
     inkscape:window-height="861"
     id="namedview5491"
     showgrid="false"
     inkscape:zoom="2.1261261"
     inkscape:cx="30"
     inkscape:cy="55.499999"
     inkscape:window-x="0"
     inkscape:window-y="0"
     inkscape:window-maximized="0"
     inkscape:current-layer="svg5489" />
  <path
     style="fill:#000000"
     d="m 423,28.00003 c -9.9,0 -18,4.11521 -18,9.28125 0,5.16603 -10.125,20.40411 -22.5,33.75 -22.28926,24.03795 -29.56932,46.96875 -14.90625,46.96875 4.18281,0 14.94687,-8.1 23.90625,-18 16.31853,-18.03178 40.5,-24.41097 40.5,-10.6875 0,4.01911 -12.10183,16.26655 -27,27.28125 -21.29292,15.7425 -25.91997,24.63701 -21.65625,41.625 3.01854,12.02682 -0.53287,32.88645 -7.875,46.96875 -7.25624,13.91756 -19.91205,39.4875 -28.125,56.8125 -8.21295,17.325 -20.72187,41.625 -27.84375,54 -7.12189,12.375 -27.91514,52.875 -46.125,90 -18.20986,37.125 -39.01351,79.65 -46.40625,94.5 -7.39276,14.85 -20.81428,35.1 -29.53125,45 -8.71697,9.9 -25.82371,42.49816 -38.25,72.28125 -12.4263,29.78307 -43.17064,94.1598 -68.34375,143.15625 C 44.710896,850.72964 31.490798,912.10324 56.25,922.09378 72.433587,928.624 75.523952,928.6159 86.34375,921.25003 105.06961,908.5018 215.89436,676.92115 216,650.40628 c 0.0326,-8.18712 8.16523,-27.05625 18,-41.90625 9.83477,-14.85 18.08067,-33.075 18.28125,-40.5 0.20058,-7.425 8.15467,-29.7 17.71875,-49.5 9.56407,-19.8 17.55078,-39.42451 17.71875,-43.59375 0.16796,-4.16925 8.38125,-17.7892 18.28125,-30.375 9.9,-12.58582 18,-29.96636 18,-38.53125 0,-8.5649 7.98383,-25.59283 17.71875,-37.96875 9.7349,-12.37593 20.21063,-40.45212 23.34375,-62.15625 3.13311,-21.70413 13.37427,-50.43169 22.78125,-63.84375 C 397.25073,228.61921 405,213.95062 405,209.40628 c 0,-4.54434 6.25341,-13.43996 13.78125,-19.6875 7.52784,-6.24755 17.94664,-28.90989 23.34375,-50.34375 5.39711,-21.43387 15.62494,-43.51297 22.5,-49.21875 19.16309,-15.90396 15.51839,-44.15625 -5.625,-44.15625 -9.9,0 -18,-4.05 -18,-9 0,-4.95 -8.1,-9 -18,-9 z m -87.75,89.71875 c -7.47849,1.01691 -17.17614,7.13628 -26.71875,18.28125 -8.47665,9.9 -20.1562,18 -25.875,18 -16.65812,0 -33.20183,25.46328 -27,41.625 5.27363,13.7428 6.86911,13.6367 21.9375,0 8.94906,-8.09879 22.70837,-14.625 30.375,-14.625 16.43465,0 29.36785,-14.69453 37.96875,-42.75 4.53478,-14.79214 -1.0723,-21.83872 -10.6875,-20.53125 z m -114.75,68.625 c -11.2815,0.68502 -25.1342,19.28669 -18.28125,30.375 3.19328,5.16683 9.81177,9.28125 14.625,9.28125 13.04089,0 20.78108,-27.03142 10.6875,-37.125 -2.04952,-2.04952 -4.42783,-2.68934 -7.03125,-2.53125 z m -87.75,7.03125 c -9.84795,-0.0877 -16.81586,2.89125 -24.1875,9.5625 -8.51482,7.7058 -19.465566,14.0625 -24.46875,14.0625 -9.851515,0 -30.09375,38.49104 -30.09375,57.375 0,6.39754 -9.693719,16.05265 -21.375,21.375 -27.098935,12.3471 -38.6758701,83.541 -22.5,137.53125 12.624771,42.13773 19.667142,48.97238 61.875,61.03125 44.37264,12.67735 49.31498,12.52624 77.90625,-3.9375 39.48992,-22.73953 78.25718,-90.45633 79.03125,-138.375 0.75975,-47.03309 -13.41964,-58.36644 -26.4375,-21.09375 -13.35949,38.25083 -66.22456,99.78163 -91.125,106.03125 -27.212187,6.82982 -54.276648,-6.95483 -62.15625,-31.78125 -6.180775,-19.4739 7.666208,-86.43286 25.59375,-123.75 10.875883,-22.63873 50.90216,-48.00303 87.1875,-55.40625 31.55357,-6.43781 28.12686,-19.99386 -7.59375,-29.25 -8.63576,-2.23776 -15.74748,-3.32238 -21.65625,-3.375 z M 450,445.65628 c -5.02404,-0.18054 -10.52137,0.33273 -16.875,1.40625 -33.92772,5.73246 -41.85584,11.3015 -91.6875,62.4375 -55.26368,56.71019 -80.20137,167.62041 -46.40625,207 21.0785,24.56161 57.21177,46.93236 83.53125,51.75 34.14446,6.24995 55.63949,-1.69969 86.0625,-32.34375 43.73754,-44.05535 73.0141,-118.32497 71.15625,-180.5625 -1.45885,-48.87112 -3.84598,-54.11616 -36.84375,-82.6875 -22.24301,-19.25925 -33.86541,-26.4584 -48.9375,-27 z m -11.25,51.75 c 9.49079,0.0125 15.69435,8.08206 24.75,25.59375 12.67812,24.51678 12.53711,31.20243 -1.40625,74.25 -8.4277,26.01897 -28.49937,60.4125 -44.4375,76.5 -15.93814,16.0875 -32.72845,29.25 -37.40625,29.25 -16.05455,0 -38.25,-33.04104 -38.25,-56.8125 0,-36.60479 39.54213,-117.50575 65.8125,-134.71875 14.09978,-9.23854 23.55577,-14.07222 30.9375,-14.0625 z"
     id="path5499"
     inkscape:connector-curvature="0" />
</svg>
