<?xml version="1.0" encoding="UTF-8" standalone="no"?>
<!-- Created with Inkscape (http://www.inkscape.org/) -->

<svg
   xmlns:dc="http://purl.org/dc/elements/1.1/"
   xmlns:cc="http://creativecommons.org/ns#"
   xmlns:rdf="http://www.w3.org/1999/02/22-rdf-syntax-ns#"
   xmlns:svg="http://www.w3.org/2000/svg"
   xmlns="http://www.w3.org/2000/svg"
   xmlns:sodipodi="http://sodipodi.sourceforge.net/DTD/sodipodi-0.dtd"
   xmlns:inkscape="http://www.inkscape.org/namespaces/inkscape"
   id="svg4080"
   version="1.1"
   inkscape:version="0.48.5 r10040"
   width="540"
   height="1000"
   sodipodi:docname="Q.svg">
  <metadata
     id="metadata4086">
    <rdf:RDF>
      <cc:Work
         rdf:about="">
        <dc:format>image/svg+xml</dc:format>
        <dc:type
           rdf:resource="http://purl.org/dc/dcmitype/StillImage" />
        <dc:title />
      </cc:Work>
    </rdf:RDF>
  </metadata>
  <defs
     id="defs4084" />
  <sodipodi:namedview
     pagecolor="#ffffff"
     bordercolor="#666666"
     borderopacity="1"
     objecttolerance="10"
     gridtolerance="10"
     guidetolerance="10"
     inkscape:pageopacity="0"
     inkscape:pageshadow="2"
     inkscape:window-width="1061"
     inkscape:window-height="800"
     id="namedview4082"
     showgrid="false"
     inkscape:zoom="2.1261261"
     inkscape:cx="30"
     inkscape:cy="55.499999"
     inkscape:window-x="0"
     inkscape:window-y="0"
     inkscape:window-maximized="0"
     inkscape:current-layer="svg4080" />
  <path
     style="fill:#000000"
     d="m 315,190.00001 c -4.95,0 -9,4.05 -9,9 0,4.95 4.05,9 9,9 4.95,0 9,-4.05 9,-9 0,-4.95 -4.05,-9 -9,-9 z m 32.90625,18 c -3.74647,0.331 -5.90625,3.21256 -5.90625,8.71875 0,4.77584 7.66955,12.79214 16.875,17.71875 9.20546,4.92661 25.26785,29.3337 36,54.28125 10.73214,24.94755 21.56885,45.28125 23.90625,45.28125 2.3374,0 4.21875,-13.96495 4.21875,-30.9375 0,-22.67556 -8.10101,-39.3827 -30.375,-63 -20.27314,-21.49578 -36.47653,-32.7907 -44.71875,-32.0625 z m -177.75,9.84375 C 162.72083,219.28712 153,228.52976 153,236.68751 c 0,5.96783 5.22779,5.12999 13.78125,-1.96875 7.54462,-6.26148 11.82779,-13.20346 9.5625,-15.46875 -1.56037,-1.56037 -3.70903,-1.88737 -6.1875,-1.40625 z m -36,34.3125 c -19.52907,-0.27304 -52.686613,69.58636 -39.374998,91.125 5.284218,8.55003 9.905138,7.26516 19.124998,-5.34375 13.60499,-18.60594 31.89415,-77.23085 25.875,-83.25 -1.66294,-1.66294 -3.60475,-2.50301 -5.625,-2.53125 z m 301.5,120.9375 c -3.92254,0.63181 -7.04386,8.62814 -8.4375,24.46875 -16.96375,192.81611 -68.33897,288.02919 -109.125,202.5 -13.09731,-27.46534 -20.36376,-31.65397 -65.25,-39.65625 -40.81118,-7.27578 -52.3774,-6.72766 -60.46875,3.65625 -5.4957,7.05282 -15.16672,12.9375 -21.65625,12.9375 -6.48953,0 -18.86708,6.4745 -27.5625,14.34375 -14.67417,13.27994 -16.96035,12.14856 -31.5,-15.75 -9.93135,-19.05619 -17.23003,-58.09379 -19.687498,-106.59375 -2.131917,-42.075 -5.1613,-77.92677 -6.75,-79.59375 -1.5887,-1.66698 -8.8029,6.43302 -16.03125,18 -15.326734,24.5262 -8.197277,88.59339 25.3125,230.0625 13.478768,56.90369 99.325608,110.2407 182.812498,113.62499 30.42776,1.23345 33.44169,3.9039 38.25,32.90625 8.81868,53.19198 45.83768,101.28358 84.9375,110.25 34.34502,7.87609 63.1631,-4.46855 94.5,-40.78125 34.95081,-40.50045 43.10306,-61.82018 37.6875,-98.71875 -4.86609,-33.15474 -25.74016,-31.57084 -44.71875,3.375 -31.0166,57.11178 -48.92551,71.63412 -78.1875,63.5625 -21.80407,-6.01442 -28.03002,-13.86586 -34.03125,-42.75 -6.52592,-31.40945 -2.94325,-44.51658 32.34375,-116.43749 52.57944,-107.16587 64.36193,-162.71008 49.78125,-236.53125 -6.91337,-35.00197 -15.68119,-53.92802 -22.21875,-52.875 z m -216.84375,229.5 c 61.86559,2.20048 95.05217,54.24077 49.21875,86.34375 -24.76793,17.34809 -29.01562,17.4503 -43.03125,0.5625 -6.1622,-7.425 -16.48957,-13.5 -23.0625,-13.5 -32.99929,0 -28.92353,-70.72393 4.21875,-73.125 4.36589,-0.3163 8.53187,-0.42795 12.65625,-0.28125 z"
     id="path4090"
     inkscape:connector-curvature="0" />
</svg>
