<?xml version="1.0" encoding="UTF-8" standalone="no"?>
<!-- Created with Inkscape (http://www.inkscape.org/) -->

<svg
   xmlns:dc="http://purl.org/dc/elements/1.1/"
   xmlns:cc="http://creativecommons.org/ns#"
   xmlns:rdf="http://www.w3.org/1999/02/22-rdf-syntax-ns#"
   xmlns:svg="http://www.w3.org/2000/svg"
   xmlns="http://www.w3.org/2000/svg"
   xmlns:sodipodi="http://sodipodi.sourceforge.net/DTD/sodipodi-0.dtd"
   xmlns:inkscape="http://www.inkscape.org/namespaces/inkscape"
   id="svg5637"
   version="1.1"
   inkscape:version="0.48.5 r10040"
   width="540"
   height="1000"
   sodipodi:docname="question.svg">
  <metadata
     id="metadata5643">
    <rdf:RDF>
      <cc:Work
         rdf:about="">
        <dc:format>image/svg+xml</dc:format>
        <dc:type
           rdf:resource="http://purl.org/dc/dcmitype/StillImage" />
        <dc:title />
      </cc:Work>
    </rdf:RDF>
  </metadata>
  <defs
     id="defs5641" />
  <sodipodi:namedview
     pagecolor="#ffffff"
     bordercolor="#666666"
     borderopacity="1"
     objecttolerance="10"
     gridtolerance="10"
     guidetolerance="10"
     inkscape:pageopacity="0"
     inkscape:pageshadow="2"
     inkscape:window-width="959"
     inkscape:window-height="776"
     id="namedview5639"
     showgrid="false"
     inkscape:zoom="2.1261261"
     inkscape:cx="30"
     inkscape:cy="55.499999"
     inkscape:window-x="0"
     inkscape:window-y="0"
     inkscape:window-maximized="0"
     inkscape:current-layer="svg5637" />
  <path
     style="fill:#000000"
     d="M 236.8125,143.3125 C 119.09723,145.23631 34.198642,227.03304 57.375,319.375 c 12.856239,51.22334 64.21688,66.50229 108,32.0625 27.38383,-21.54012 30.61866,-52.50577 9,-85.5 -13.62446,-20.79353 -13.56651,-23.48136 0.5625,-39.09375 8.37656,-9.25599 33.47927,-19.68999 55.96875,-23.0625 34.21673,-5.13112 44.10087,-2.9848 60.75,12.65625 C 302.59916,226.71782 315.68264,235 320.625,235 c 4.94237,0 19.8864,11.42914 33.1875,25.3125 45.90908,47.91875 24.71811,92.14645 -59.34375,123.46875 C 238.65469,404.57814 216,436.17565 216,493.46875 c 0,24.23337 4.7475,48.90375 10.6875,54.84375 27.07073,27.07073 52.83431,5.03108 73.6875,-63 2.55311,-8.32919 26.80661,-29.29209 54,-46.6875 58.81982,-37.62658 69.12207,-54.22915 75.375,-123.1875 4.3081,-47.51047 2.20923,-56.20328 -23.34375,-94.78125 -34.71309,-52.40719 -81.20784,-75.2262 -158.0625,-77.34375 -3.86316,-0.10644 -7.73398,-0.062 -11.53125,0 z M 268.875,586 c -29.25709,0 -69.59176,25.65639 -83.8125,53.15625 -14.59322,28.22019 -6.52746,78.64561 14.90625,92.25 6.27794,3.98473 24.97722,7.51815 41.34375,7.59375 C 277.96221,739.16974 324,693.49359 324,657.15625 324,627.02765 292.18828,586 268.875,586 z"
     id="path5647"
     inkscape:connector-curvature="0" />
</svg>
