<?xml version="1.0" encoding="UTF-8" standalone="no"?>
<!-- Created with Inkscape (http://www.inkscape.org/) -->

<svg
   xmlns:dc="http://purl.org/dc/elements/1.1/"
   xmlns:cc="http://creativecommons.org/ns#"
   xmlns:rdf="http://www.w3.org/1999/02/22-rdf-syntax-ns#"
   xmlns:svg="http://www.w3.org/2000/svg"
   xmlns="http://www.w3.org/2000/svg"
   xmlns:sodipodi="http://sodipodi.sourceforge.net/DTD/sodipodi-0.dtd"
   xmlns:inkscape="http://www.inkscape.org/namespaces/inkscape"
   id="svg4138"
   version="1.1"
   inkscape:version="0.48.5 r10040"
   width="540"
   height="1000"
   sodipodi:docname="R.svg">
  <metadata
     id="metadata4144">
    <rdf:RDF>
      <cc:Work
         rdf:about="">
        <dc:format>image/svg+xml</dc:format>
        <dc:type
           rdf:resource="http://purl.org/dc/dcmitype/StillImage" />
        <dc:title />
      </cc:Work>
    </rdf:RDF>
  </metadata>
  <defs
     id="defs4142" />
  <sodipodi:namedview
     pagecolor="#ffffff"
     bordercolor="#666666"
     borderopacity="1"
     objecttolerance="10"
     gridtolerance="10"
     guidetolerance="10"
     inkscape:pageopacity="0"
     inkscape:pageshadow="2"
     inkscape:window-width="988"
     inkscape:window-height="772"
     id="namedview4140"
     showgrid="false"
     inkscape:zoom="2.1261261"
     inkscape:cx="30"
     inkscape:cy="55.499999"
     inkscape:window-x="0"
     inkscape:window-y="0"
     inkscape:window-maximized="0"
     inkscape:current-layer="svg4138" />
  <path
     style="fill:#000000"
     d="M 32.994,743.70829 C 5.3537139,716.068 17.433004,692.99592 65.568327,681.48962 81.079242,677.78188 94.011589,666.62052 99.488845,652.21424 104.35755,639.40857 110.579,542.7505 113.31429,437.41851 L 118.28756,245.9058 76.037041,224.80487 C 35.017466,204.3187 18.721144,186.27886 30.549421,174.45058 c 3.175214,-3.17522 52.028113,-6.75116 108.561999,-7.94655 82.38193,-1.74193 105.01664,0.51084 114.01002,11.34721 13.31698,16.04598 -2.18976,29.78414 -33.87438,30.01094 -10.58912,0.0758 -26.94041,7.22532 -36.3362,15.88782 -15.35051,14.15249 -16.59272,25.33505 -12.24705,110.25 l 4.83619,94.5 87.05755,-0.5733 c 61.31825,-0.40382 91.61558,-4.35615 102.47406,-13.3679 C 390.32491,393.56723 423,335.93801 423,312.31967 423,287.73037 370.13867,226 349.08219,226 c -18.64918,0 -46.18905,-32.69184 -38.29702,-45.4614 10.98405,-17.77257 73.57581,-3.51358 106.93339,24.36044 40.48805,33.83232 69.99379,99.81737 62.42189,139.59692 -7.09571,37.27777 -26.29904,76.36639 -53.57242,109.04732 -17.47319,20.93762 -19.39348,29.00442 -11.71321,49.20506 5.05246,13.28898 12.3958,28.3445 16.31853,33.45672 3.92274,5.11222 12.34585,35.61994 18.71804,67.79494 7.70317,38.89552 18.7109,65.40823 32.8472,79.11422 C 520.3422,719.57319 505.53144,757 453.50005,757 406.20922,757 378.27471,715.73515 376.875,643.80948 374.65998,529.98756 375.1973,532.13901 342,504.17015 311.77206,478.70298 307.95589,477.86167 247.5,483.3368 c -34.65,3.13804 -66.02666,7.50333 -69.72592,9.70063 -3.69925,2.19732 -5.44706,42.55683 -3.884,89.68782 2.97405,89.67732 8.58243,101.84952 47.05992,102.13693 22.61916,0.16893 40.05,16.44936 40.05,37.40667 0,24.07492 -12.18002,27.43698 -116.29471,32.10089 C 62.618048,758.04692 45.719914,756.4342 32.994,743.70829 z"
     id="path4148"
     inkscape:connector-curvature="0" />
</svg>
