<?xml version="1.0" encoding="UTF-8" standalone="no"?>
<!-- Created with Inkscape (http://www.inkscape.org/) -->

<svg
   xmlns:dc="http://purl.org/dc/elements/1.1/"
   xmlns:cc="http://creativecommons.org/ns#"
   xmlns:rdf="http://www.w3.org/1999/02/22-rdf-syntax-ns#"
   xmlns:svg="http://www.w3.org/2000/svg"
   xmlns="http://www.w3.org/2000/svg"
   xmlns:sodipodi="http://sodipodi.sourceforge.net/DTD/sodipodi-0.dtd"
   xmlns:inkscape="http://www.inkscape.org/namespaces/inkscape"
   id="svg4193"
   version="1.1"
   inkscape:version="0.48.5 r10040"
   width="540"
   height="1000"
   sodipodi:docname="S.svg">
  <metadata
     id="metadata4199">
    <rdf:RDF>
      <cc:Work
         rdf:about="">
        <dc:format>image/svg+xml</dc:format>
        <dc:type
           rdf:resource="http://purl.org/dc/dcmitype/StillImage" />
        <dc:title />
      </cc:Work>
    </rdf:RDF>
  </metadata>
  <defs
     id="defs4197" />
  <sodipodi:namedview
     pagecolor="#ffffff"
     bordercolor="#666666"
     borderopacity="1"
     objecttolerance="10"
     gridtolerance="10"
     guidetolerance="10"
     inkscape:pageopacity="0"
     inkscape:pageshadow="2"
     inkscape:window-width="1025"
     inkscape:window-height="797"
     id="namedview4195"
     showgrid="false"
     inkscape:zoom="2.1261261"
     inkscape:cx="30"
     inkscape:cy="55.499999"
     inkscape:window-x="0"
     inkscape:window-y="0"
     inkscape:window-maximized="0"
     inkscape:current-layer="svg4193" />
  <path
     style="fill:#000000"
     d="m 202.5,716.94546 c -24.75,-5.8308 -53.48634,-15.21125 -63.85854,-20.84543 -14.88331,-8.08462 -23.11649,-7.26159 -39.058179,3.90441 -16.090821,11.27045 -24.722874,12.08744 -42.436656,4.0165 -21.768434,-9.91836 -22.183777,-12.03617 -19.710204,-100.50158 1.38975,-49.70334 5.130605,-94.58272 8.31301,-99.73196 13.401459,-21.68402 46.55483,-3.21136 61.137829,34.06527 C 122.78575,578.49192 149.8823,613 165.89473,613 c 5.55771,0 16.52058,7.49292 24.36191,16.65093 7.84134,9.15801 31.26862,19.3712 52.06063,22.69598 84.73937,13.55037 155.54445,-32.37442 166.92561,-108.26939 6.10869,-40.73568 5.02823,-43.81994 -23.51024,-67.11189 -27.92806,-22.79376 -105.4259,-42.32743 -141.95524,-35.78044 -6.99744,1.25412 -21.17244,-1.80804 -31.5,-6.80479 -10.32757,-4.99675 -33.57387,-11.51163 -51.65844,-14.47749 -18.08457,-2.96588 -35.19329,-11.41813 -38.01937,-18.78278 -2.82608,-7.36465 -15.36711,-17.27924 -27.868956,-22.03244 C 73.932591,371.18029 72,365.88524 72,316.80866 c 0,-29.50028 4.010797,-64.18605 8.912881,-77.07952 10.280366,-27.03942 52.600459,-67.0272 71.378449,-67.44473 7.03524,-0.15642 19.26524,-6.14321 27.17779,-13.30397 10.97608,-9.93322 22.80528,-11.1208 49.90076,-5.00979 22.94408,5.17473 39.46566,4.73044 46.67797,-1.25524 6.14002,-5.09577 14.86656,-6.97652 19.39231,-4.17944 23.3091,14.40581 112.96088,31.27716 126.81177,23.86439 30.76089,-16.46273 39.97964,3.15392 42.01093,89.39542 1.69797,72.08992 0.11286,81.84121 -12.91365,79.44066 C 443.18214,339.7314 428.4,321.69366 418.5,301.15258 380.69714,222.71704 343.63402,199.43192 263.16447,203.56214 197.88666,206.91261 145.07499,229.85641 126.92,262.75295 c -11.43403,20.71827 -10.9573,27.03334 4.37356,57.93396 14.62803,29.484 25.42077,37.59509 72.02287,54.12745 37.19747,13.19603 74.32783,19.16347 115.5207,18.56605 38.56603,-0.55935 64.10733,3.22236 70.03559,10.36959 5.13221,6.1875 15.44468,11.25 22.91659,11.25 7.47192,0 26.82752,14.04084 43.01245,31.20187 21.72364,23.03376 30.83172,42.47112 34.79253,74.25 9.25984,74.29474 1.69739,110.04759 -29.4308,139.13941 C 444.67357,674.06787 432,689.20684 432,693.23345 c 0,4.02661 -17.2125,13.70597 -38.25,21.5097 -44.34268,16.44862 -126.75069,17.39758 -191.25,2.20231 z"
     id="path4203"
     inkscape:connector-curvature="0" />
</svg>
