<?xml version="1.0" encoding="UTF-8" standalone="no"?>
<!-- Created with Inkscape (http://www.inkscape.org/) -->

<svg
   xmlns:dc="http://purl.org/dc/elements/1.1/"
   xmlns:cc="http://creativecommons.org/ns#"
   xmlns:rdf="http://www.w3.org/1999/02/22-rdf-syntax-ns#"
   xmlns:svg="http://www.w3.org/2000/svg"
   xmlns="http://www.w3.org/2000/svg"
   xmlns:sodipodi="http://sodipodi.sourceforge.net/DTD/sodipodi-0.dtd"
   xmlns:inkscape="http://www.inkscape.org/namespaces/inkscape"
   id="svg4269"
   version="1.1"
   inkscape:version="0.48.5 r10040"
   width="540"
   height="1000"
   sodipodi:docname="T.svg">
  <metadata
     id="metadata4275">
    <rdf:RDF>
      <cc:Work
         rdf:about="">
        <dc:format>image/svg+xml</dc:format>
        <dc:type
           rdf:resource="http://purl.org/dc/dcmitype/StillImage" />
        <dc:title />
      </cc:Work>
    </rdf:RDF>
  </metadata>
  <defs
     id="defs4273" />
  <sodipodi:namedview
     pagecolor="#ffffff"
     bordercolor="#666666"
     borderopacity="1"
     objecttolerance="10"
     gridtolerance="10"
     guidetolerance="10"
     inkscape:pageopacity="0"
     inkscape:pageshadow="2"
     inkscape:window-width="1043"
     inkscape:window-height="786"
     id="namedview4271"
     showgrid="false"
     inkscape:zoom="2.1261261"
     inkscape:cx="30"
     inkscape:cy="55.499999"
     inkscape:window-x="0"
     inkscape:window-y="0"
     inkscape:window-maximized="0"
     inkscape:current-layer="svg4269" />
  <path
     style="fill:#000000"
     d="m 130.5,748.41461 c -18.89494,-3.52031 -27.84095,-10.92105 -29.80142,-24.6537 -3.838447,-26.88741 34.78843,-51.7135 69.62158,-44.74688 15.66399,3.1328 29.77682,0.80361 35.27551,-5.82192 5.0411,-6.07414 15.34999,-89.93975 22.90865,-186.368 7.55867,-96.42826 17.36679,-194.8679 21.79583,-218.75477 11.17226,-60.25456 1.27363,-68.3184 -76.68588,-62.47171 -33.61285,2.52085 -65.0236,8.20447 -69.80168,12.63027 -4.778075,4.42581 -10.324172,48.79777 -12.324674,98.60437 C 87.232695,422.77497 76.007863,437.01966 35.698625,387.63074 13.883757,360.90207 12.386487,355.18054 22.952055,338.92226 29.536563,328.79002 37.715263,298.225 41.126943,271 47.0946,223.37844 64.735427,190 83.936222,190 c 5.030545,0 15.717853,-5.94704 23.749578,-13.21565 8.03172,-7.26861 26.57562,-12.97569 41.20867,-12.68239 41.48095,0.83142 154.39731,0.27342 233.60553,-1.15434 39.6,-0.71379 76.95849,-0.99405 83.01888,-0.62271 25.82148,1.58206 39.98112,55.21357 39.98112,151.43384 0,97.53981 -4.34981,109.78639 -39.10714,110.10346 -34.11364,0.31122 -42.91944,-23.50918 -40.03569,-108.29959 1.92487,-56.59675 -0.62424,-83.55981 -8.51942,-90.1122 -6.19639,-5.14256 -36.47434,-8.13516 -67.28432,-6.65024 L 294.53527,221.5 296.56056,316 c 1.11392,51.975 2.81774,147.70484 3.78629,212.73296 1.21238,81.39912 5.39937,122.61692 13.43982,132.30507 7.12818,8.58894 29.73625,15.1222 58.02168,16.76705 41.41012,2.40807 47.26655,5.33424 55.02092,27.49125 14.8038,42.29973 0.40104,47.15142 -141.53142,47.67615 C 215.00903,753.23235 145.35,751.1813 130.5,748.41461 z"
     id="path4279"
     inkscape:connector-curvature="0" />
</svg>
