<?xml version="1.0" encoding="UTF-8" standalone="no"?>
<!-- Created with Inkscape (http://www.inkscape.org/) -->

<svg
   xmlns:dc="http://purl.org/dc/elements/1.1/"
   xmlns:cc="http://creativecommons.org/ns#"
   xmlns:rdf="http://www.w3.org/1999/02/22-rdf-syntax-ns#"
   xmlns:svg="http://www.w3.org/2000/svg"
   xmlns="http://www.w3.org/2000/svg"
   xmlns:sodipodi="http://sodipodi.sourceforge.net/DTD/sodipodi-0.dtd"
   xmlns:inkscape="http://www.inkscape.org/namespaces/inkscape"
   id="svg4384"
   version="1.1"
   inkscape:version="0.48.5 r10040"
   width="540"
   height="1000"
   sodipodi:docname="V.svg">
  <metadata
     id="metadata4390">
    <rdf:RDF>
      <cc:Work
         rdf:about="">
        <dc:format>image/svg+xml</dc:format>
        <dc:type
           rdf:resource="http://purl.org/dc/dcmitype/StillImage" />
        <dc:title />
      </cc:Work>
    </rdf:RDF>
  </metadata>
  <defs
     id="defs4388" />
  <sodipodi:namedview
     pagecolor="#ffffff"
     bordercolor="#666666"
     borderopacity="1"
     objecttolerance="10"
     gridtolerance="10"
     guidetolerance="10"
     inkscape:pageopacity="0"
     inkscape:pageshadow="2"
     inkscape:window-width="1035"
     inkscape:window-height="809"
     id="namedview4386"
     showgrid="false"
     inkscape:zoom="2.1261261"
     inkscape:cx="30"
     inkscape:cy="55.499999"
     inkscape:window-x="0"
     inkscape:window-y="0"
     inkscape:window-maximized="0"
     inkscape:current-layer="svg4384" />
  <path
     style="fill:#000000"
     d="M 244.10654,697.86258 C 227.54949,676.8137 198,593.75783 198,568.26919 198,552.96183 143.32345,323.63942 134.63357,302.5 130.56394,292.6 124.74369,265.66474 121.6997,242.64385 L 116.16517,200.7877 58.082585,189.24272 C 26.137164,182.89299 0,174.48412 0,170.55635 0,139.48899 156.63326,116.99519 211.96892,140.11591 229.03601,147.24699 243,157.25587 243,162.35784 c 0,5.10198 -16.25009,17.56651 -36.1113,27.69894 -40.50409,20.66365 -40.5978,22.0417 -7.99301,117.54243 C 208.30306,335.15378 216,363.26443 216,370.06732 c 0,16.3275 46.17705,164.37052 54.17471,173.6834 8.95784,10.43097 40.83883,-81.2588 80.7547,-232.25072 C 378.73642,206.31296 378.22961,196.94985 344.25,188.10182 324.54266,182.97018 315,175.05641 315,163.84468 c 0,-21.13993 22.74906,-40.40171 39.9298,-33.80884 7.23747,2.77727 51.83905,5.7706 99.11462,6.65184 84.00683,1.56593 85.95558,2.08641 85.95558,22.95728 0,11.74527 -3.0375,20.81323 -6.75,20.15101 -17.40897,-3.10532 -65.64832,13.80114 -77.00231,26.98702 -12.69532,14.74364 -28.42687,64.28442 -41.82638,131.71701 -3.93446,19.8 -14.10657,60.3 -22.60469,90 -8.49812,29.7 -20.82575,78.3 -27.39473,108 -29.65958,134.09828 -52.98411,184.5 -85.38152,184.5 -9.20366,0 -24.92389,-10.41184 -34.93383,-23.13742 z"
     id="path4394"
     inkscape:connector-curvature="0" />
</svg>
