<?xml version="1.0" encoding="UTF-8" standalone="no"?>
<!-- Created with Inkscape (http://www.inkscape.org/) -->

<svg
   xmlns:dc="http://purl.org/dc/elements/1.1/"
   xmlns:cc="http://creativecommons.org/ns#"
   xmlns:rdf="http://www.w3.org/1999/02/22-rdf-syntax-ns#"
   xmlns:svg="http://www.w3.org/2000/svg"
   xmlns="http://www.w3.org/2000/svg"
   xmlns:sodipodi="http://sodipodi.sourceforge.net/DTD/sodipodi-0.dtd"
   xmlns:inkscape="http://www.inkscape.org/namespaces/inkscape"
   id="svg4439"
   version="1.1"
   inkscape:version="0.48.5 r10040"
   width="540"
   height="1000"
   sodipodi:docname="W.svg">
  <metadata
     id="metadata4445">
    <rdf:RDF>
      <cc:Work
         rdf:about="">
        <dc:format>image/svg+xml</dc:format>
        <dc:type
           rdf:resource="http://purl.org/dc/dcmitype/StillImage" />
        <dc:title />
      </cc:Work>
    </rdf:RDF>
  </metadata>
  <defs
     id="defs4443" />
  <sodipodi:namedview
     pagecolor="#ffffff"
     bordercolor="#666666"
     borderopacity="1"
     objecttolerance="10"
     gridtolerance="10"
     guidetolerance="10"
     inkscape:pageopacity="0"
     inkscape:pageshadow="2"
     inkscape:window-width="1044"
     inkscape:window-height="796"
     id="namedview4441"
     showgrid="false"
     inkscape:zoom="2.1261261"
     inkscape:cx="30"
     inkscape:cy="55.499999"
     inkscape:window-x="0"
     inkscape:window-y="0"
     inkscape:window-maximized="0"
     inkscape:current-layer="svg4439" />
  <path
     style="fill:#000000"
     d="M 485.15625,163.84375 C 471.93286,164.17243 457.93175,166.83499 445.5,172 c -9.9,4.11314 -25.0875,9.6065 -33.75,12.375 -8.6625,2.7685 -15.75,11.38929 -15.75,19.125 0,7.7357 7.0875,16.77267 15.75,19.96875 21.54685,7.94985 29.7969,22.13561 23.90625,41.0625 -2.72044,8.74084 -6.56835,33.04084 -8.4375,54 C 425.3496,339.4904 419.26056,372.7 413.71875,392.5 402.66657,431.98762 399.4417,447.78076 391.5,498.25 388.57906,516.8125 382.9339,532 379.125,532 370.44515,532 339.60139,471.92962 333.28125,442.84375 326.8393,413.19731 306,407.37625 306,435.25 c 0,11.9625 2.6901,24.34635 5.90625,27.5625 3.21615,3.21615 6.71423,62.94922 7.875,132.75 1.16077,69.80077 5.55817,130.3849 9.84375,134.4375 4.28557,4.05261 15.975,9.14998 25.875,11.53125 38.15021,9.17633 46.19297,6.02402 56.8125,-23.34375 5.94439,-16.43894 10.95489,-53.90144 11.25,-83.25 0.29507,-29.34856 3.85651,-71.6625 7.875,-93.9375 22.72333,-125.95824 37.42009,-226.95491 33.75,-230.625 -2.30684,-2.30684 0.81753,-23.42369 6.75,-46.6875 8.28657,-32.49528 15.08194,-42.29181 29.25,-43.03125 C 527.78957,219.26791 540,209.4653 540,189.71875 c 0,-16.50044 -25.7523,-26.59811 -54.84375,-25.875 z M 34.875,181.5625 C 17.787397,181.75419 4.5,189.79706 4.5,203.5 c 0,13.90274 5.0873706,17.48081 22.5,15.46875 47.772383,-5.52022 59.480363,22.6093 67.78125,164.53125 3.513168,60.06531 31.67951,209.88245 42.75,226.96875 3.97094,6.1288 0.83278,23.62376 -7.3125,39.375 -14.80872,28.6369 -12.27947,64.31601 6.46875,86.90625 17.4518,21.02813 43.51713,12.66202 56.25,-18 C 215.81041,663.67059 233.99044,460 216,460 c -4.95,0 -9.12645,9.1125 -9.28125,20.25 -0.39444,28.37936 -41.263,109.44885 -48.9375,97.03125 -3.42101,-5.53531 -1.32143,-15.99047 4.78125,-23.34375 9.00076,-10.84525 7.6627,-17.25623 -7.03125,-33.46875 -14.23168,-15.7025 -20.2934,-41.83676 -28.125,-121.5 -5.48244,-55.76754 -14.04296,-108.91039 -19.125,-118.40625 -12.274425,-22.93498 2.03609,-60.12581 26.15625,-67.78125 10.18355,-3.23214 18.5625,-9.41317 18.5625,-13.5 0,-13.45461 -27.86657,-18.51012 -46.6875,-8.4375 C 92.690154,198.13424 82.553089,197.90564 67.78125,190 56.773146,184.10864 45.127561,181.44748 34.875,181.5625 z m 285.75,10.125 c -5.9168,-0.10339 -12.31875,0.10217 -19.125,0.28125 -34.40666,0.90524 -49.5,4.94037 -49.5,13.21875 0,6.55045 8.1,11.8125 18,11.8125 12,0 18,6 18,18 0,9.9 1.70473,18 3.65625,18 C 297.42586,253 351,201.18803 351,195.625 c 0,-2.10432 -12.62461,-3.62736 -30.375,-3.9375 z M 216,199 c -4.95,0 -9,4.05 -9,9 0,4.95 4.05,9 9,9 4.95,0 9,-4.05 9,-9 0,-4.95 -4.05,-9 -9,-9 z m 91.125,82.6875 C 303.98025,281.40667 300.47856,283.701 297,289 c -12.26708,18.68677 -11.28297,84.06078 1.40625,96.75 17.17115,17.17115 25.73973,3.64871 25.59375,-41.0625 -0.12376,-37.91285 -7.44075,-62.15752 -16.875,-63 z m -51.75,37.40625 c -1.36418,-0.20655 -2.26136,3.0097 -2.53125,9.5625 -0.39079,9.48749 1.50937,14.80312 4.5,11.8125 2.99065,-2.99063 3.44359,-10.65938 0.84375,-17.15625 -1.07739,-2.69235 -1.99399,-4.09482 -2.8125,-4.21875 z"
     id="path4449"
     inkscape:connector-curvature="0" />
</svg>
