<?xml version="1.0" encoding="UTF-8" standalone="no"?>
<!-- Created with Inkscape (http://www.inkscape.org/) -->

<svg
   xmlns:dc="http://purl.org/dc/elements/1.1/"
   xmlns:cc="http://creativecommons.org/ns#"
   xmlns:rdf="http://www.w3.org/1999/02/22-rdf-syntax-ns#"
   xmlns:svg="http://www.w3.org/2000/svg"
   xmlns="http://www.w3.org/2000/svg"
   xmlns:sodipodi="http://sodipodi.sourceforge.net/DTD/sodipodi-0.dtd"
   xmlns:inkscape="http://www.inkscape.org/namespaces/inkscape"
   id="svg4500"
   version="1.1"
   inkscape:version="0.48.5 r10040"
   width="540"
   height="1000"
   sodipodi:docname="X.svg">
  <metadata
     id="metadata4506">
    <rdf:RDF>
      <cc:Work
         rdf:about="">
        <dc:format>image/svg+xml</dc:format>
        <dc:type
           rdf:resource="http://purl.org/dc/dcmitype/StillImage" />
        <dc:title />
      </cc:Work>
    </rdf:RDF>
  </metadata>
  <defs
     id="defs4504" />
  <sodipodi:namedview
     pagecolor="#ffffff"
     bordercolor="#666666"
     borderopacity="1"
     objecttolerance="10"
     gridtolerance="10"
     guidetolerance="10"
     inkscape:pageopacity="0"
     inkscape:pageshadow="2"
     inkscape:window-width="1059"
     inkscape:window-height="802"
     id="namedview4502"
     showgrid="false"
     inkscape:zoom="2.1261261"
     inkscape:cx="30"
     inkscape:cy="55.499999"
     inkscape:window-x="0"
     inkscape:window-y="0"
     inkscape:window-maximized="0"
     inkscape:current-layer="svg4500" />
  <path
     style="fill:#000000"
     d="m 49.5,722.45364 c -60.959403,-6.87796 -65.012593,-37.33841 -8.60209,-64.64626 28.750626,-13.91794 45.457706,-29.52692 56.249998,-52.55286 8.443652,-18.01498 24.479782,-36.75893 35.635862,-41.65321 11.15608,-4.89428 18.80576,-12.99428 16.9993,-18 -1.80645,-5.00573 4.48891,-24.58921 13.98971,-43.51887 13.93691,-27.7683 19.70499,-32.40015 29.85645,-23.97519 C 208.25596,490.24635 225,482.70002 225,463.96885 225,456.83598 228.75337,451 233.34082,451 242.73537,451 270,400.32743 270,382.86725 c 0,-6.25198 -4.47527,-12.85901 -9.94505,-14.68227 -10.03929,-3.34643 -34.66878,-64.48738 -34.91944,-86.68498 -0.25686,-22.74795 22.37382,-4.46114 26.90722,21.74248 3.50613,20.26588 9.98204,26.88819 28.37977,29.02135 C 304.80331,335.0907 333,307.95622 333,281.66701 c 0,-6.78033 8.1,-22.62536 18,-35.21117 C 373.77732,217.49917 373.98437,199 351.53116,199 c -23.40994,0 -32.55648,-16.85155 -17.34607,-31.95833 15.53371,-15.42791 107.56907,-22.3244 150.67192,-11.29031 17.95364,4.59603 37.70549,8.78218 43.89299,9.30253 6.1875,0.52038 11.25,6.58513 11.25,13.47727 0,6.89212 -4.05,10.02811 -9,6.96884 -4.95,-3.05927 -9,-0.7434 -9,5.14642 0,7.18534 -10.22933,9.04875 -31.09016,5.66351 -22.96785,-3.72717 -37.07537,-0.33732 -54,12.97563 C 424.30943,219.19704 414,231.778 414,237.24323 c 0,5.46523 -20.25,43.70244 -45,84.97155 C 321.45367,401.49539 315.58501,423.81217 337.5,442 c 7.425,6.1622 13.5,16.74675 13.5,23.52121 0,21.36662 71.91115,151.28503 92.6523,167.39045 10.91624,8.47641 30.6874,17.84529 43.93592,20.81974 13.24853,2.97446 30.1129,14.6029 37.47638,25.841 13.25685,20.2325 12.82175,20.54548 -44.36411,31.91222 -38.00842,7.55487 -90.81945,9.60992 -154.47637,6.01118 C 273.02586,714.48833 195.075,715.05895 153,718.76384 c -42.075,3.70489 -88.65,5.3653 -103.5,3.6898 z m 245.25,-55.355 c 16.0875,-9.80874 28.9207,-20.93109 28.51821,-24.71636 -2.22387,-20.91505 -50.99986,-97.26537 -63.63307,-99.60651 -10.40307,-1.92784 -22.21446,12.78112 -39.35076,49.00427 l -24.4859,51.75894 25.85076,20.68581 c 31.49185,25.1998 36.18119,25.38416 73.10076,2.87385 z M 172.67312,219.51753 C 160.42609,211.00325 129.39766,204.09581 97.354197,202.75029 37.193704,200.22413 22.369072,191.769 30.911251,164.85498 c 3.892746,-12.26496 15.59953,-19.11275 36.932229,-21.60322 42.41044,-4.95118 176.62222,8.61393 186.89858,18.8903 C 266.32592,173.72592 254.26419,190 234.09481,190 c -10.40383,0 -17.94237,7.4721 -19.71885,19.54505 -3.70083,25.15085 -15.73183,28.02784 -41.70284,9.97248 z"
     id="path4510"
     inkscape:connector-curvature="0" />
</svg>
