<?xml version="1.0" encoding="UTF-8" standalone="no"?>
<!-- Created with Inkscape (http://www.inkscape.org/) -->

<svg
   xmlns:dc="http://purl.org/dc/elements/1.1/"
   xmlns:cc="http://creativecommons.org/ns#"
   xmlns:rdf="http://www.w3.org/1999/02/22-rdf-syntax-ns#"
   xmlns:svg="http://www.w3.org/2000/svg"
   xmlns="http://www.w3.org/2000/svg"
   xmlns:sodipodi="http://sodipodi.sourceforge.net/DTD/sodipodi-0.dtd"
   xmlns:inkscape="http://www.inkscape.org/namespaces/inkscape"
   id="svg4555"
   version="1.1"
   inkscape:version="0.48.5 r10040"
   width="540"
   height="1000"
   sodipodi:docname="Y.svg">
  <metadata
     id="metadata4561">
    <rdf:RDF>
      <cc:Work
         rdf:about="">
        <dc:format>image/svg+xml</dc:format>
        <dc:type
           rdf:resource="http://purl.org/dc/dcmitype/StillImage" />
        <dc:title />
      </cc:Work>
    </rdf:RDF>
  </metadata>
  <defs
     id="defs4559" />
  <sodipodi:namedview
     pagecolor="#ffffff"
     bordercolor="#666666"
     borderopacity="1"
     objecttolerance="10"
     gridtolerance="10"
     guidetolerance="10"
     inkscape:pageopacity="0"
     inkscape:pageshadow="2"
     inkscape:window-width="955"
     inkscape:window-height="839"
     id="namedview4557"
     showgrid="false"
     inkscape:zoom="2.1261261"
     inkscape:cx="30"
     inkscape:cy="55.499999"
     inkscape:window-x="0"
     inkscape:window-y="0"
     inkscape:window-maximized="0"
     inkscape:current-layer="svg4555" />
  <path
     style="fill:#000000"
     d="m 196.18053,748.19512 c -92.85568,-7.22765 -108.505461,-40.86415 -24.02028,-51.62743 55.69268,-7.09516 70.2601,-16.6706 69.12243,-45.43549 -0.53582,-13.54771 0.17115,-55.53307 1.57104,-93.3008 C 245.46563,487.36473 241.14068,469 221.93368,469 212.44214,469 204.81209,449.15442 183.00603,367.75 180.68558,359.0875 173.38498,352 166.78249,352 160.18,352 146.29939,338.8375 135.93669,322.75 75.258926,228.55121 72.820559,226.34311 29.25,226.13782 -0.01678611,225.99992 -7.0091931,214.97981 7.5811938,191.98752 11.676633,185.53371 46.085692,176.97621 85.8889,172.51246 c 56.96235,-6.38806 76.11608,-5.31805 96.86435,5.4113 25.01074,12.93356 25.3362,13.95508 9.88549,31.02793 -15.30635,16.91331 -15.28873,19.62392 0.41958,64.60119 39.99188,114.50757 51.0083,133.57426 75.49811,130.66841 C 287.14212,402.016 297.89295,388.70089 325.25428,334 366.01274,252.51548 368.47267,230.07786 337.5,222.3042 325.125,219.19828 315,211.30931 315,204.77317 c 0,-21.10821 41.48994,-31.64638 131.98187,-33.52254 L 535.5,169.4154 l 2.78627,32.67455 c 2.71013,31.78175 2.0639,32.53009 -23.65048,27.38721 C 486.41776,223.83356 450,238.05452 450,254.71714 c 0,5.5461 -11.0262,24.53992 -24.50266,42.20847 -30.86687,40.46854 -49.62704,76.36358 -88.95774,170.2085 -29.0338,69.27604 -30.9214,79.52767 -26.29296,142.79798 5.76643,78.82645 8.64348,85.71495 34.86296,83.47218 32.50972,-2.78082 79.1346,11.36589 84.62625,25.67691 13.13664,34.23352 -56.40808,42.90264 -233.55532,29.11394 z"
     id="path4565"
     inkscape:connector-curvature="0" />
</svg>
