<?xml version="1.0" encoding="UTF-8" standalone="no"?>
<!-- Created with Inkscape (http://www.inkscape.org/) -->

<svg
   xmlns:dc="http://purl.org/dc/elements/1.1/"
   xmlns:cc="http://creativecommons.org/ns#"
   xmlns:rdf="http://www.w3.org/1999/02/22-rdf-syntax-ns#"
   xmlns:svg="http://www.w3.org/2000/svg"
   xmlns="http://www.w3.org/2000/svg"
   xmlns:sodipodi="http://sodipodi.sourceforge.net/DTD/sodipodi-0.dtd"
   xmlns:inkscape="http://www.inkscape.org/namespaces/inkscape"
   id="svg4610"
   version="1.1"
   inkscape:version="0.48.5 r10040"
   width="540"
   height="1000"
   sodipodi:docname="Z.svg">
  <metadata
     id="metadata4616">
    <rdf:RDF>
      <cc:Work
         rdf:about="">
        <dc:format>image/svg+xml</dc:format>
        <dc:type
           rdf:resource="http://purl.org/dc/dcmitype/StillImage" />
        <dc:title />
      </cc:Work>
    </rdf:RDF>
  </metadata>
  <defs
     id="defs4614" />
  <sodipodi:namedview
     pagecolor="#ffffff"
     bordercolor="#666666"
     borderopacity="1"
     objecttolerance="10"
     gridtolerance="10"
     guidetolerance="10"
     inkscape:pageopacity="0"
     inkscape:pageshadow="2"
     inkscape:window-width="892"
     inkscape:window-height="754"
     id="namedview4612"
     showgrid="false"
     inkscape:zoom="2.1261261"
     inkscape:cx="30"
     inkscape:cy="55.499999"
     inkscape:window-x="0"
     inkscape:window-y="0"
     inkscape:window-maximized="0"
     inkscape:current-layer="svg4610" />
  <path
     style="fill:#000000"
     d="M 80.474405,712.55875 C 38.97343,699.79841 18,684.64925 18,667.43335 18,658.12 12.9375,648.44583 6.75,645.93517 -0.53829053,642.97786 -1.3306324,638.75204 4.5,633.93518 23.832001,617.96442 108,514.96575 108,507.27942 c 0,-4.47797 10.56534,-17.96024 23.47855,-29.9606 39.22032,-36.4478 163.39399,-194.4229 170.42837,-216.82084 3.62709,-11.54889 16.15684,-29.9171 27.8439,-40.81824 25.76068,-24.02838 27.67327,-47.67975 3.85567,-47.67975 -19.51635,0 -34.21089,-32.9956 -20.70803,-46.49846 13.38973,-13.38973 104.77985,11.67628 108.21139,29.67965 1.53907,8.07466 -7.5757,30.34966 -20.25505,49.5 -23.65843,35.73269 -32.59007,47.26743 -96.65027,124.81881 -20.44438,24.75 -46.20185,65.41209 -57.23881,90.36019 -11.03697,24.9481 -26.56938,50.7565 -34.51647,57.352 C 204.50216,483.80769 198,495.9981 198,504.302 c 0,8.30389 -4.68836,19.78635 -10.41857,25.51656 -7.89142,7.89143 -7.70348,13.69004 0.77481,23.90576 12.784,15.40378 5.78583,32.27568 -13.3874,32.27568 -19.80489,0 -15.48547,14.28087 9.21451,30.46491 C 201.02143,627.49765 228.98155,631 300.22045,631 407.64575,631 405,633.04766 405,549.90677 c 0,-35.83733 4.51093,-57.13199 14.14286,-66.76391 20.02196,-20.02196 27.06317,-17.97313 51.91852,15.10713 20.28133,26.99263 31.54575,85.41124 33.37297,173.0761 0.71397,34.25234 -20.86746,38.63237 -187.49143,38.05215 C 229.24931,709.07288 145.35,711.25651 130.5,714.23075 115.65,717.205 93.13848,716.4526 80.474405,712.55875 z M 37.967537,309.24999 C 34.410391,300.58749 31.5,261.75523 31.5,222.95608 c 0,-63.33486 2.177435,-72.30724 21.307154,-87.79867 18.295267,-14.81569 32.28948,-16.71812 98.999996,-13.45845 42.73107,2.08796 88.83035,6.59892 102.44285,10.02433 39.40318,9.91535 29.83835,28.86476 -18,35.6608 -23.5125,3.34025 -56.925,13.62483 -74.25,22.85462 -17.325,9.2298 -40.6125,20.95167 -51.75,26.04861 -25.270234,11.5646 -25.781903,24.11879 -1.51239,37.10743 15.16375,8.1154 20.96284,6.9849 30.40435,-5.92712 10.13646,-13.86244 11.51531,-10.51242 10.51238,25.54049 -1.43338,51.5263 -7.94791,58.45628 -37.03556,39.39732 -20.364532,-13.34336 -23.538692,-13.48037 -28.243771,-1.21913 -7.211686,18.79336 -38.429978,17.4908 -46.407472,-1.93632 z"
     id="path4620"
     inkscape:connector-curvature="0" />
</svg>
